<svg width="102" height="38" fill="none" xmlns="http://www.w3.org/2000/svg"><path d="M3.016 22.837l-.032.031c.032-.031.032-.031.032-.063v-.157c.353-1.858 1.027-3.684 1.7-5.48.706-1.889 1.38-3.747 2.277-5.542A35.992 35.992 0 019.88 6.714c.962-1.417 2.116-2.96 3.591-3.905.45-.126.898-.598 1.476-.504.577.095.577.693.449 1.26.16-.44.256-.913-.129-1.228-.513-.378-1.507.22-1.924.504a1.884 1.884 0 00-.545.315c.096-.095.225-.19.385-.284l-.16.063.448-.252c.514-.283 1.668-.913 2.053-.094.289.661-.16 1.763-.385 2.393-.417 1.07-.93 2.078-1.475 3.086.096-.22.48-1.07.48-1.07-.224-.032-1.25 2.298-1.442 2.361h.032c-.129.095-.225.19-.225.22-.064.378.385.284.642.252 1.09-.125 2.501-1.039 3.207-1.826.77-.85 1.058-2.141 1.058-3.275V4.7c-.032-2.142-1.54-4.85-4.137-4.692-1.443.063-2.79 1.448-3.72 2.393a27.111 27.111 0 00-1.892 2.393c-.257.378-.513.724-.738 1.102-.257.347-.77.882-.898 1.291 0 0 .16-.189.289-.315-.353.536-.674 1.103-.994 1.638-.033-.032.192-.472.192-.472-.289-.063-1.604 2.519-1.764 2.802-.577 1.04-1.09 2.079-1.443 3.18-.385 1.229-.898 2.394-1.283 3.59-.192.599-.385 1.166-.513 1.764-.064.283-.128.535-.16.819 0 .031-.065.535 0 .472-.065.22-.065.504-.097.724 0 0 0-.535.032-.598-.128.158-.032.756-.064.819-.16 1.196-.417 2.456 0 3.621.545 1.606 1.892 2.929 3.368 3.779.77.472 1.796 1.008 2.758.945 1.122-.063 2.213-.977 3.046-1.638 2.438-2.015 4.65-4.85 5.068-8.061.032-.22.192-1.323-.193-1.354-.353-.032-.61.724-.737.913a27.354 27.354 0 01-3.336 4.314c-1.283 1.386-2.886 2.866-4.842 3.306a3.556 3.556 0 01-.834.095c-.385-.032-.738-.126-1.027-.41-.16-.157-.32-.692-.513-.787 0-.157-.032-.315-.064-.409l-.096-.189c-.032-.945 0-1.826.16-2.803V22.9c0-.032.032-.032.032-.063zM8.661 7.438c-1.25 2.016-2.31 4.094-3.368 6.235-.609 1.26-1.218 2.551-1.7 3.905a48.053 48.053 0 012.438-6.14c1.155-2.425 2.694-4.787 4.522-6.74-.738.882-1.379 1.89-1.892 2.74zm3.303-3.464c-.449.441-.866.945-1.25 1.417.609-.787 1.25-1.574 2.052-2.204-.289.252-.577.567-.802.787zm3.271.252a3.35 3.35 0 00.16-.661c-.063.283-.192.567-.192.787.032-.063.032-.094.032-.126zm15.523 13.289s.032.032 0-.031c-.16-.22-.385-.063-.61 0-.93.189-1.891.409-2.853.566.352-1.133.705-2.33.833-3.495.065-.44.097-.913 0-1.354a2.566 2.566 0 00-.32-.819s-.385-.472-.289-.22l-.032-.032-.128-.252.128.126c.032-.189-.513-.535-.513-.535-.802-.787-1.892-1.386-2.983-.787-.673.378-1.218 1.007-1.667 1.637-.16.22-.321.473-.45.724-.128.252-.32 1.071-.512 1.197-.16.126-.642.158-.866.284a3.79 3.79 0 00-.866.472c-.61.378-1.09.913-1.54 1.448-.77 1.008-1.154 2.142-1.7 3.15-1.026 1.92.097 4.44 1.989 5.353a3.86 3.86 0 001.956.346c.674-.094 1.315-.44 1.828-.819.481-.346 1.54-.976 1.732-1.511 0-.032-.064 0-.16.094l.93-1.07c.032.031-.225.346-.225.346.225.095 1.38-1.574 1.508-1.7.224-.378.449-.788.705-1.165.225-.284.16-.252.481-.378-.032.031.385-.095.45-.095.352-.063 4.104-.315 3.174-1.48zm-11.096 6.361h-.032c-2.662.378.417-5.164.48-5.48l-.192.284c.481-.945.93-1.7 1.155-1.952.353 1.574 2.084 2.173 3.496 2.362-.93 1.826-2.662 4.377-4.907 4.786zm6.318-8.723c-.225.882-.417 2.047-.898 2.835-.16.314-.064.22-.385.283-.192.063-.61 0-.802-.032-.353-.031-.77-.094-1.026-.315-.45-.377-.385-.976-.32-1.511.063-.535.224-1.04.416-1.543.096-.189.706-1.197.61-1.386-.033-.094-.385.473-.418.504.193-.346.385-.535.546-.756-.032 0 0-.031.032-.094v.031l.032-.063s0-.031.032-.031c.481-.63 1.668-2.047 2.309-1.07.481.818.032 2.361-.128 3.148zm-2.213-2.046l.032-.032c0 .032-.032.032-.032.032z" fill="#fff"/><path d="M47.487 17.673v-.032c-.192-1.04-1.636.693-1.828.85-.93 1.008-1.796 2.11-2.63 3.212-.834 1.134-1.635 2.268-2.501 3.401a16.036 16.036 0 01-1.315 1.606c-.16.19-.545.724-.834.724-1.122 0-.257-4.44-.128-5.132.192-1.229.288-2.866 1.09-3.842.192-.252 2.373-2.992 2.373-2.992-.064-.031-.32.284-.48.473l1.378-1.827.096-.126h.033-.032l.256-.346c.032.031 0 .094-.032.157l.289-.315.834-1.07c.609-.85 1.186-1.764 1.731-2.645.866-1.449 2.053-3.527 1.411-5.29-.48-1.292-2.245-1.544-3.431-1.103-.866.315-1.604.976-2.213 1.669-.32.41-.641.85-.93 1.323-.096.126-.513 1.133-.61 1.26h.033c-.193.346-.385.692-.514 1.038.065-.252.225-.755.353-.85-.256.19-.48 1.102-.545 1.197-1.219 2.613-2.277 5.259-3.047 8.03-.865-.976-2.244-2.645-3.752-2.047-1.25.504-2.18 1.795-2.822 2.928-.577 1.008-.738 2.047-1.155 3.024-.737 1.668-1.09 5.1 1.412 5.605.77.157 1.475-.315 2.084-.725 1.09-.787 2.117-1.7 3.079-2.645-.16 1.67-.513 4.189.866 5.511 1.7 1.7 3.4-.598 4.425-1.858 1.315-1.637 2.342-3.464 3.657-5.038.641-.756 1.282-1.512 1.956-2.204.513-.504 1.54-1.134 1.443-1.921zM35.685 19.75c-.032.094-.032.157-.032.157-.128.756-.128 1.417-.673 1.953-.481.504-.995.976-1.508 1.448-.48.441-1.635 1.732-2.373 1.67-.898-.095-.224-2.11.224-3.339-.48 1.26-1.25 3.307-.192 3.37.289.031.77-.22 1.187-.567-.385.346-1.027.819-1.411.63-.738-.315-.097-2.11.032-2.614.416-1.448 1.026-2.834 1.731-4.157.353-.66.866-1.732 1.54-1.795l-.16.095c.032-.032.064-.032.096-.032.224-.063.449.095.609.22.417.284.673.82.962 1.229.32.504.096 1.04-.032 1.606v.126zm5.163-7.274c0-.032 0-.095.032-.126v-.032a.344.344 0 01.065-.126v-.031c.737-2.016 1.539-4.031 2.694-5.857.288-.473 1.122-1.921 1.86-1.512.288.158.352.567.352.85.129 1.89-1.41 4.126-2.373 5.637a53.25 53.25 0 01-3.688 5.101l.706-.724.641-.787-1.636 2.078-.224.284-.128.126c.032-.19.192-.378.352-.599a.838.838 0 00-.16.19c.417-1.355.866-2.709 1.347-4.063-.032.032 0-.031.032-.157l.096-.158c0-.031 0-.063.032-.094zm-2.694 2.582c-.064.157-.256.882-.352.976 0 .032-.032.063-.064.063.256-.315.096-.724.224-1.102.064-.189.385-.535.45-.787 0 .252-.161.692-.258.85zm-5.099 8.723a37.36 37.36 0 002.31-2.173c-.065.41-1.059 1.102-1.412 1.417-.417.41-.898.819-1.379 1.197h-.032l.513-.441zm5.677-11.589a6.45 6.45 0 01-.481 1.07c.16-.471.256-.944.48-1.385a10.3 10.3 0 00.578-1.196c-.16.504-.417 1.039-.577 1.511zm2.084.378l-.128.315c0-.031.032-.094.032-.157l.096-.158zm-6.927 4.157c-.128.094-.224.22-.256.22.064 0 .16-.126.256-.22zm.898-.063a.677.677 0 01.193.126l-.193-.126zm6.35-.567c0-.031.032-.063.064-.094a.379.379 0 01-.064.094zm.064-.094l.032-.063c0 .031-.032.063-.032.063z" fill="#fff"/><path d="M57.415 17.578c0 .032 0 .032-.032 0v-.031c-.513-.85-1.186.314-1.475.724-.545.724-1.058 1.417-1.636 2.078-.48.567-.994 1.134-1.379 1.732 0 .063-.064.22-.064.22-.128.19-.32.347-.48.536-.29.283-.578.598-.899.882-.48.44-3.175 2.928-3.528 1.322-.192-.787.065-1.763.225-2.519.096-.41.192-.787.257-1.197.064-.314-.033-.63.128-.944.096-.19.128-.158.353-.22l.545-.19c.353-.126.705-.252 1.026-.44.481-.284.93-.63 1.347-.977.994-.819 2.053-1.795 2.47-3.023.224-.693.256-1.448-.193-2.047-.417-.535-1.122-.818-1.764-.944-1.732-.315-3.047.661-4.04 1.952-1.22 1.48-2.085 3.306-2.502 5.164-.225.914-.353 1.827-.513 2.772-.16.944-.257 1.826.256 2.708-.032-.315-.096-.599-.096-.882 0-.157.064-.315.064-.44 0-.064-.064-.253-.064-.347 0-.284.064-.504.128-.787.032-.284 0-.567.032-.85.032-.316.16-.568.289-.851.096-.252.128-.472.224-.724.097-.22.16-.473.257-.724.032-.158.193-.347.289-.536-.096.284-.289.535-.353.787-.096.378-.032.788-.064 1.166-.064.409-.193.818-.257 1.26-.064.409-.256.786-.32 1.196-.065.378-.193.661-.16 1.039 0 .22.031.44.063.63.032.252.193.41.353.598.545.63 1.283 1.134 2.117 1.354.577.158 1.09.126 1.635-.157.77-.41 1.443-1.04 2.02-1.638.546-.598.963-1.26 1.444-1.89.449-.566.994-1.101 1.443-1.668l1.732-2.204.994-1.292c.16-.188.257-.346.128-.598zm-7.953.346c.032-.063.032-.094.032-.094.481-1.008.834-2.078 1.507-3.054l.578-.756c.128-.158.352-.441.577-.504.48-.095.61.724.577 1.039l-.128.661c-.032.19.032.315 0 .473-.064.189-.225.283-.32.44l-.546.693a9.244 9.244 0 01-2.694 2.11c.16-.346.256-.693.417-1.008z" fill="#fff"/><path d="M74.783 8.351c-.128-1.007-1.7-1.763-2.566-1.165-.705.473-1.346 1.764-1.86 2.52l-3.142 4.66a50.975 50.975 0 01-1.476 2.141c-.128.22-1.347 2.079-1.347 2.079.129.031.417-.41.481-.473-.866 1.197-1.988 2.457-3.046 3.653-.353.441-2.47 3.18-3.24 2.834-.256-.126-.32-.535-.352-.755-.257-1.67.385-3.338.577-4.944l-.128.315.192-.788c0 .095-.032.19-.032.284l.032-.19-.096.946c.449-1.89 1.09-3.716 1.828-5.48.192-.44 2.052-5.007 2.437-5.416-.064.031-.16.157-.256.283a29.137 29.137 0 011.988-3.149c-.16.252-.449.725-.449.725.128.031 1.411-1.7 1.411-1.89 0-.031-.096.032-.192.095.32-.41.545-.63.288-1.323-.384-.787-1.507-1.763-2.437-1.291-.192.126-.32.283-.449.44-.673.851-1.219 1.953-1.668 2.898-.16.378-.288.44-.545.724-.417.473-.641 1.102-.93 1.638-.577 1.133-1.026 2.33-1.54 3.495a24.362 24.362 0 00-1.282 3.306c-.16.441-.289.882-.417 1.323-.128.441-.577 1.26-.513 1.732l.192-.41c-.16.536-.288 1.103-.417 1.67-.032 0 .032-.41.032-.41-.128 0-.416 1.386-.48 1.575a20.326 20.326 0 00-.29 2.015c-.031.724 0 1.386.354 2.047.673 1.165 1.892 2.299 3.207 2.708.224.063.48.126.705.095.225-.032.45-.126.61-.284.128-.063.64-.598.288-.346l.61-.567s-.29.346-.385.41c.16-.064.513-.536.513-.536 1.058-1.134 2.116-2.236 3.078-3.464.995-1.322 1.893-2.771 2.79-4.188-.256.756-.32 1.511-.544 2.267-.129.41-.257.819-.353 1.228-.064.158-.129.914-.064.85 0 .095 0 .158-.032.221 0-.031 0-.063-.033-.094-.096.031-.096.976-.128 1.133-.128.441-.32.85-.385 1.354-.16 1.323-.064 2.866.77 4 .513.692 1.283 1.07 2.149 1.133.93.032 1.443-.472 1.924-1.165.32-.472.61-.882.802-1.417.16-.44.48-1.291.288-1.732-.128-.283-.192-.315-.449-.189-.352.126-.77.882-.994 1.165-.32.347-.962 1.228-1.507 1.291-.32.032-.257-.031-.32-.409-.033-.22-.033-1.7 0-1.732a.936.936 0 00-.161.378c.128-1.04.577-2.299.898-3.401.385-1.291.673-2.582 1.026-3.873.385-1.323.898-2.645 1.443-3.905.129-.284 1.572-3.401 1.796-3.684-.224.157-1.379 2.55-1.764 3.338.77-1.795 1.668-3.527 2.79-5.165.032 0-.32.535-.256.535.096.063.866-1.102.802-1.133-.032 0-.064 0-.097.031.16-.157.353-.252.321-.567zm-8.37 14.958c-.289 1.291-.61 3.023-.353 4.314-.289-1.448-.192-3.086.064-4.534.193-1.197.545-2.299.962-3.401-.353 1.26-.385 2.362-.673 3.621zm-5.356-11.966c.898-2.11 2.18-4.03 3.528-5.857-1.347 1.89-2.438 3.936-3.4 6.046-.737 1.669-1.41 3.275-1.892 4.944.096-.44.192-.882.353-1.323.385-1.29.898-2.55 1.41-3.81zm-.738 3.055A44.533 44.533 0 0162.34 9.8c-.705 1.449-1.667 3.716-2.02 4.598zm10.167 2.078a6.323 6.323 0 01-.353.819l.577-1.449-.224.63zm-7.697-7.59v-.03.03zm2.405-4.156c0 .032-.032.063-.064.063.032 0 .064-.031.064-.063zm26.058 12.817c-.192.031-1.86.535-1.764.787 0 .031.064.063.096.063-.545.22-1.25.252-1.796.598-.609.41-1.186.819-1.828 1.165.578-.976 1.123-2.015 1.476-3.054.128-.378.866-2.708.384-2.96-.064-.032-.096.252-.128.409.032-1.26-.385-3.18-2.116-3.306-1.059-.063-2.053 1.228-2.63 1.92-1.315 1.638-2.47 3.401-3.624 5.102-.32.472-3.528 5.574-3.528 5.574s.225-.315.513-.725c-.288.473-.577.977-.834 1.48.129-.472 1.347-4.22 2.117-6.424.064-.094.096-.22.128-.314l.193-.536v.032c.288-.85.577-1.7.834-2.583 0 .095-.129.567-.097.567.193.032.45-1.29.321-1.29l-.096.157c.096-.473.256-.693-.032-1.229-.225-.472-.61-.913-1.155-1.039-1.058-.283-1.571.567-1.507 1.386 0 .126.16.189.16.315 0 .157-.16.44-.192.567-.225.66-.385 1.29-.642 1.92-.128.347-1.314 3.622-1.314 3.622.064-.032.096-.095.128-.158a9.369 9.369 0 01-.32.85c-.033-.03.095-.251.031-.251-.32-.063-1.122 2.582-1.186 2.834a12.187 12.187 0 01-.513 1.763c-.097.315-.225.63-.321.976 0 .032-.16.788 0 .504-.032.095-.064.158-.064.22 0-.03-.032-.062-.032-.094-.097.032-.16.693-.16.725-.13.346-.29.598-.45.913-.417 1.008-.641 2.11-.802 3.18-.256 1.638-1.026 4.094-.192 5.606.289.535 1.187 1.637 1.892.976.32-.315.32-1.04.353-1.417.192-1.04.353-2.11.577-3.15l.289-1.448c.032-.063.288-1.228.192-1.197a.684.684 0 00-.16.253c.16-.504.385-.977.577-1.512.257-.756.45-1.48.834-2.173.449-.693.834-1.448 1.25-2.141.322-.567.61-1.291.963-1.764.096-.126.288-.189.449-.315.32-.346.545-.818.802-1.196.48-.756.898-1.512 1.41-2.204.225-.315 2.79-3.842 3.047-4.063a.672.672 0 00-.192.126c.257-.315.545-.598.802-.85.032.031-.193.22-.16.252.064.031 1.539-1.102 1.795-1.134.706-.126.45 1.197.353 1.543-.16.725-.577 1.417-.93 2.047-.192.346-.385.661-.545 1.008-.032.031-.289.63-.192.567l-.193.283a.806.806 0 00.096-.22c-.128 0-.288.535-.32.63-.193.314-.45.566-.706.818-.673.756-1.283 1.543-1.956 2.267-.513.536-1.187 1.48-1.957 1.67-.545.125-.962-.158-.673.692.192.598.898 1.984 1.668 1.984.705 0 1.571-1.04 1.988-1.48.481-.535 1.026-1.04 1.54-1.606.128-.189 1.603-1.92 1.827-2.015h-.032c.321-.158.642-.032 1.09-.347.257-.189.386-.378.674-.566.225-.127.32-.284.417-.378 0 0 0 .031.032.031.32-.315.77-.22 1.187-.504.513-.346 1.154-.787 1.603-1.196.578-.504 1.38-.788 1.636-1.638-.128.032-.289.032-.385.095zm-16.42 3.212v.031c-.032.41-.32.882-.481 1.26a39.406 39.406 0 00-.61 1.795 46.93 46.93 0 01-1.41 3.716 25.264 25.264 0 00-1.09 3.212c.352-1.543.93-3.055 1.378-4.504.417-1.322 1.058-2.613 1.572-3.904.064-.158.673-1.417.609-1.67a.097.097 0 01.032.064zm1.411.944a8.02 8.02 0 01-.32 1.04c.096-.315.192-.693.32-1.04zm4.394-5.164l-.61.882c.193-.284.385-.599.61-.882zm5.227 3.81c.032-.094.193-.126.289-.189l-.289.19zM78.2 16.665c-.032.031-.064.126-.096.252l.096-.252zm-.224.535l.128-.283-.128.283zm1.668.788v-.032c.032-.032.032-.032.032-.063.032-.032 0 .031-.032.095zm-1.668-.788c0 .063-.032.095-.064.126l.064-.126zm-6.8 13.856c0-.032 0-.032.033-.063 0 .031 0 .031-.032.063zm5.26-9.73c0 .03-.032.03-.032.03l.032-.03z" fill="#fff"/><path d="M101.993 17.956c-.096-.44-.353-.504-.674-.378-.609.284-1.218.913-1.796 1.291-1.315.819-2.63 1.48-4.04 2.173 0-.032-.033-.095-.065-.189.032.157 0 .22-.032.252-.32-1.354-.641-2.708-.898-4.094.129.599.417 1.606.642 2.457-.289-1.323-.642-2.96-.61-2.96-.064.03-.064.094-.064.157-.064-.378-.16-.85-.096-1.26.032-.472.289-.881.449-1.322-.032.22-.096.503-.096.503.192.032.32-1.133.32-1.26-.032-.188-.449-.786-.449-.629-.865-.787-2.565.945-2.822 1.7-.192.504-.192 1.04-.16 1.575.032.535.192 1.008.353 1.512.096.377-.032.63 0 1.039.064.63.288 1.26.417 1.858.128.472.545 1.417.448 1.858-.064.44-1.026.818-1.443 1.07-.545.347-1.09.756-1.635 1.165-.962.725-1.989 1.638-2.373 2.803-.065.157-.29.85-.065.976.032.032.129-.504.16-.567-.416 2.079 1.668 3.087 3.625 3.118 2.213.063 3.752-1.197 4.522-3.15.32-.85.417-1.731.385-2.613 0-.598-.065-1.165-.16-1.732-.065-.504-.13-.472.224-.756.256-.188.641-.314.898-.44 1.026-.536 1.956-1.165 2.886-1.827.673-.472 2.277-1.29 2.149-2.299v-.031zM89.036 28.789c-.834-.252 0-1.543.289-1.953.48-.63 1.186-1.102 1.828-1.543l.962-.63c.096-.063.706-.535.513-.472l.385-.22-.225.189c.065-.032.16-.063.225-.126.032.755.032 1.511-.193 2.267-.031.126-.64 1.385-.897 1.637l.16-.126c-.289.347-.61.63-.994.85 0-.03.288-.22.256-.251l-.898.346c-.449.095-.962.189-1.41.032zm4.041.913a6.989 6.989 0 01-2.501.535c1.571-.094 3.207-.85 4.137-2.141-.353.693-.802 1.228-1.636 1.606zm2.341-8.943a7.483 7.483 0 00-.192-.882c.064.346.128.693.192.882zm.417 3.275c-.032-.032-.032-.095-.032-.158 0 .063.032.126.032.158z" fill="#fff"/></svg>