<svg width="174" height="65" fill="none" xmlns="http://www.w3.org/2000/svg"><path d="M5.146 39.063l-.055.054c.055-.054.055-.054.055-.108v-.269c.601-3.178 1.75-6.302 2.9-9.373 1.203-3.231 2.352-6.41 3.884-9.48 1.422-2.908 3.063-5.763 4.923-8.403 1.642-2.423 3.611-5.063 6.128-6.679.766-.215 1.531-1.023 2.516-.862.985.162.985 1.185.766 2.155.274-.754.438-1.562-.219-2.1-.875-.647-2.57.376-3.282.861-.328.108-.657.323-.93.539.164-.162.383-.323.656-.485l-.273.108.766-.431c.875-.485 2.845-1.562 3.501-.162.492 1.131-.273 3.017-.656 4.094-.712 1.831-1.587 3.555-2.517 5.279.164-.377.82-1.832.82-1.832-.382-.054-2.133 3.932-2.461 4.04h.054c-.218.162-.383.323-.383.377-.109.646.657.485 1.095.431 1.86-.215 4.267-1.777 5.47-3.124 1.314-1.454 1.806-3.663 1.806-5.602v-.054c-.055-3.663-2.626-8.295-7.058-8.026-2.461.108-4.76 2.478-6.346 4.094a46.378 46.378 0 00-3.228 4.094c-.437.646-.875 1.239-1.258 1.885-.438.593-1.313 1.508-1.532 2.208 0 0 .274-.323.493-.538-.602.915-1.15 1.885-1.696 2.8-.055-.053.328-.807.328-.807-.492-.108-2.735 4.309-3.009 4.794-.985 1.777-1.86 3.555-2.462 5.44-.656 2.1-1.532 4.094-2.188 6.14-.329 1.024-.657 1.994-.876 3.017-.109.485-.218.916-.273 1.4 0 .054-.11.916 0 .809-.11.377-.11.861-.164 1.238 0 0 0-.915.054-1.023-.218.27-.054 1.293-.109 1.4-.274 2.047-.711 4.202 0 6.195.93 2.747 3.228 5.01 5.744 6.464 1.313.808 3.064 1.723 4.705 1.616 1.915-.108 3.775-1.67 5.198-2.801 4.158-3.448 7.932-8.295 8.644-13.79.054-.377.328-2.262-.329-2.316-.601-.054-1.04 1.239-1.258 1.562a46.788 46.788 0 01-5.69 7.38c-2.188 2.37-4.923 4.901-8.26 5.656-.438.107-.93.161-1.423.161-.657-.054-1.258-.215-1.75-.7-.274-.27-.548-1.185-.876-1.347 0-.27-.055-.538-.11-.7l-.164-.323c-.054-1.616 0-3.124.274-4.794v-.054c0-.054.055-.054.055-.108zm9.628-26.34c-2.133 3.448-3.939 7.003-5.744 10.665-1.04 2.155-2.079 4.364-2.9 6.68a82.328 82.328 0 014.158-10.504c1.97-4.147 4.596-8.187 7.714-11.527-1.258 1.508-2.352 3.232-3.228 4.686zm5.635-5.925c-.765.754-1.477 1.616-2.133 2.424 1.04-1.347 2.133-2.693 3.501-3.77-.492.43-.985.97-1.368 1.346zm5.58.431c.11-.323.22-.7.274-1.131-.11.485-.328.97-.328 1.347.055-.108.055-.162.055-.216zM52.47 29.96s.055.054 0-.054c-.274-.377-.657-.107-1.04 0-1.586.323-3.227.7-4.869.97.602-1.94 1.204-3.986 1.423-5.98.11-.753.164-1.561 0-2.315-.11-.485-.274-.97-.547-1.4 0 0-.657-.809-.493-.378l-.054-.054-.22-.43.22.215c.054-.323-.876-.916-.876-.916-1.367-1.347-3.228-2.37-5.088-1.347-1.148.647-2.079 1.724-2.844 2.801a9.452 9.452 0 00-.766 1.24c-.22.43-.547 1.83-.876 2.046-.273.216-1.094.27-1.477.485a6.454 6.454 0 00-1.477.808c-1.04.646-1.86 1.562-2.626 2.478-1.313 1.723-1.97 3.662-2.9 5.386-1.75 3.286.165 7.595 3.392 9.157 1.04.485 2.243.7 3.338.593 1.149-.162 2.243-.754 3.118-1.4.82-.593 2.626-1.67 2.954-2.586 0-.054-.11 0-.273.161l1.586-1.831c.055.054-.383.592-.383.592.383.162 2.353-2.693 2.572-2.908.383-.647.765-1.347 1.203-1.993.383-.485.274-.431.82-.647-.054.054.657-.161.767-.161.602-.108 7.002-.539 5.416-2.532zM33.54 40.84h-.054c-4.54.647.711-8.833.82-9.372l-.328.485c.821-1.616 1.587-2.909 1.97-3.34.602 2.694 3.556 3.717 5.963 4.04-1.586 3.125-4.54 7.488-8.37 8.188zm10.778-14.92c-.383 1.508-.71 3.501-1.532 4.848-.273.539-.109.377-.656.485-.328.107-1.04 0-1.368-.054-.602-.054-1.313-.162-1.75-.539-.766-.646-.657-1.67-.547-2.585.109-.916.382-1.778.71-2.64.165-.323 1.204-2.046 1.04-2.37-.055-.161-.656.808-.711.862.328-.592.657-.915.93-1.293-.055 0 0-.053.055-.161v.054l.054-.108s0-.054.055-.054c.82-1.077 2.845-3.501 3.94-1.831.82 1.4.054 4.04-.22 5.386zm-3.775-3.501l.055-.054c0 .054-.055.054-.055.054z" fill="#408F95"/><path d="M81.007 30.23v-.055c-.328-1.777-2.79 1.185-3.118 1.455-1.587 1.723-3.064 3.609-4.486 5.494-1.423 1.94-2.79 3.878-4.268 5.817-.71.97-1.422 1.886-2.243 2.748-.273.323-.93 1.239-1.422 1.239-1.915 0-.438-7.595-.219-8.78.328-2.101.493-4.902 1.86-6.572.329-.43 4.049-5.117 4.049-5.117-.11-.054-.547.485-.82.808l2.352-3.124.164-.216.437-.592c.055.053 0 .161-.054.269l.492-.539 1.422-1.831c1.04-1.454 2.025-3.017 2.955-4.525 1.477-2.477 3.501-6.032 2.407-9.049-.82-2.208-3.83-2.64-5.854-1.885-1.477.538-2.735 1.67-3.775 2.855-.547.7-1.094 1.454-1.586 2.262-.165.215-.876 1.939-1.04 2.155h.055c-.328.592-.657 1.184-.875 1.777.109-.43.383-1.293.601-1.454-.437.323-.82 1.885-.93 2.047-2.079 4.47-3.884 8.995-5.197 13.735-1.477-1.67-3.83-4.525-6.4-3.501-2.135.862-3.721 3.07-4.815 5.01-.985 1.723-1.259 3.5-1.97 5.17-1.258 2.855-1.86 8.726 2.407 9.588 1.313.27 2.517-.538 3.556-1.239 1.86-1.346 3.611-2.908 5.252-4.524-.273 2.855-.875 7.164 1.478 9.426 2.9 2.909 5.799-1.023 7.55-3.178 2.243-2.8 3.993-5.925 6.236-8.618 1.094-1.293 2.189-2.586 3.337-3.77.876-.863 2.626-1.94 2.462-3.287zm-20.133 3.555c-.054.161-.054.269-.054.269-.219 1.292-.219 2.424-1.15 3.34-.82.861-1.695 1.67-2.57 2.477-.821.754-2.79 2.963-4.049 2.855-1.532-.162-.383-3.609.383-5.71-.82 2.155-2.133 5.656-.328 5.764.492.054 1.313-.377 2.024-.97-.656.593-1.75 1.4-2.407 1.078-1.258-.539-.164-3.61.055-4.471.71-2.478 1.75-4.848 2.954-7.11.602-1.131 1.477-2.963 2.626-3.07l-.274.161c.055-.054.11-.054.164-.054.384-.108.766.162 1.04.377.711.485 1.149 1.4 1.641 2.1.547.863.164 1.778-.055 2.748v.215zm8.809-12.443c0-.054 0-.162.054-.216v-.054a.587.587 0 01.11-.215v-.054c1.258-3.447 2.626-6.895 4.595-10.019.493-.808 1.915-3.286 3.173-2.585.493.269.602.97.602 1.454.219 3.232-2.407 7.056-4.048 9.642a91.104 91.104 0 01-6.292 8.726l1.204-1.239 1.094-1.347-2.79 3.556-.383.484-.219.216c.055-.323.328-.647.602-1.024-.11.108-.219.216-.274.323a171.911 171.911 0 012.298-6.948c-.055.054 0-.054.055-.27l.164-.269c0-.054 0-.108.055-.161zm-4.596 4.417c-.11.269-.438 1.508-.602 1.67 0 .053-.054.107-.11.107.439-.539.165-1.239.384-1.885.11-.323.656-.916.766-1.347 0 .431-.274 1.185-.438 1.455zm-8.699 14.92a63.725 63.725 0 003.94-3.717c-.11.7-1.806 1.886-2.408 2.424-.71.7-1.532 1.4-2.352 2.047h-.055l.875-.754zm9.684-19.822a11.038 11.038 0 01-.82 1.831c.273-.808.437-1.616.82-2.37a17.94 17.94 0 00.985-2.047c-.274.862-.712 1.778-.985 2.586zm3.556.646l-.219.539c0-.054.055-.162.055-.27l.164-.269zm-11.817 7.11c-.219.162-.383.378-.438.378.11 0 .274-.216.438-.378zm1.532-.107c.11.054.218.107.328.215l-.328-.215zm10.832-.97c0-.054.055-.108.11-.162a.665.665 0 01-.11.162zm.11-.162l.054-.107c0 .054-.055.108-.055.108z" fill="#408F95"/><path d="M97.944 30.068c0 .054 0 .054-.055 0v-.054c-.875-1.454-2.024.539-2.516 1.239-.93 1.239-1.806 2.424-2.79 3.555-.821.97-1.697 1.939-2.353 2.962 0 .108-.11.377-.11.377-.218.324-.547.593-.82.916-.492.485-.985 1.024-1.532 1.508-.82.755-5.416 5.01-6.018 2.263-.328-1.347.11-3.017.383-4.31.164-.7.328-1.346.438-2.046.11-.539-.055-1.078.219-1.616.164-.323.218-.27.601-.377l.93-.324c.602-.215 1.204-.43 1.751-.754.82-.484 1.587-1.077 2.298-1.67 1.696-1.4 3.501-3.07 4.212-5.17.383-1.186.438-2.478-.328-3.502-.711-.915-1.915-1.4-3.009-1.616-2.954-.538-5.197 1.132-6.893 3.34-2.079 2.532-3.556 5.656-4.267 8.834-.383 1.562-.602 3.124-.876 4.74-.273 1.616-.437 3.124.438 4.632-.055-.538-.164-1.023-.164-1.508 0-.27.11-.538.11-.754 0-.108-.11-.43-.11-.592 0-.485.11-.862.219-1.347.054-.485 0-.97.054-1.454.055-.54.274-.97.493-1.455.164-.43.219-.808.383-1.239.164-.377.273-.808.437-1.239.055-.269.329-.592.493-.915-.164.485-.493.915-.602 1.346-.164.647-.055 1.347-.11 1.993-.109.7-.328 1.4-.437 2.155-.11.7-.438 1.347-.547 2.047-.11.646-.328 1.13-.274 1.777 0 .377.055.754.11 1.078.054.43.328.7.602 1.023.93 1.077 2.188 1.94 3.61 2.316.985.27 1.86.216 2.79-.27 1.313-.7 2.462-1.777 3.447-2.8.93-1.023 1.641-2.155 2.462-3.232.766-.97 1.696-1.885 2.462-2.855l2.954-3.77 1.696-2.209c.274-.323.438-.592.219-1.023zm-13.568.592c.055-.107.055-.161.055-.161.82-1.724 1.422-3.555 2.571-5.225l.985-1.293c.219-.27.602-.754.985-.862.82-.161 1.04 1.24.985 1.778l-.22 1.13c-.054.324.055.54 0 .809-.109.323-.382.485-.546.754l-.93 1.185c-1.259 1.454-2.845 2.693-4.596 3.609.273-.593.438-1.185.711-1.724z" fill="#408F95"/><path d="M127.571 14.285c-.219-1.723-2.899-3.016-4.376-1.993-1.204.808-2.298 3.017-3.174 4.31l-5.361 7.972c-.821 1.238-1.641 2.477-2.517 3.662-.218.377-2.297 3.555-2.297 3.555.218.054.711-.7.82-.808-1.477 2.047-3.392 4.202-5.197 6.249-.602.754-4.213 5.44-5.526 4.848-.437-.216-.547-.916-.602-1.293-.437-2.855.657-5.71.985-8.457l-.219.539.329-1.347c0 .162-.055.323-.055.485l.055-.323-.164 1.616c.766-3.232 1.86-6.356 3.118-9.373.328-.754 3.501-8.564 4.158-9.265-.11.054-.274.27-.438.485 1.04-1.885 2.134-3.663 3.392-5.386-.273.43-.766 1.239-.766 1.239.219.053 2.407-2.91 2.407-3.232 0-.054-.164.054-.328.161.547-.7.93-1.077.492-2.262-.656-1.347-2.571-3.016-4.157-2.208-.329.215-.547.484-.766.754-1.149 1.454-2.079 3.34-2.845 4.955-.274.647-.493.754-.93 1.24-.711.807-1.094 1.884-1.587 2.8-.985 1.94-1.75 3.986-2.626 5.98a41.761 41.761 0 00-2.188 5.655 35.933 35.933 0 00-.711 2.262c-.22.754-.985 2.155-.876 2.963l.329-.7c-.274.915-.493 1.885-.712 2.854-.054 0 .055-.7.055-.7-.219 0-.711 2.37-.82 2.693a34.859 34.859 0 00-.493 3.448c-.055 1.239 0 2.37.602 3.5 1.149 1.994 3.228 3.933 5.471 4.633.383.108.82.216 1.203.162.383-.054.766-.216 1.04-.485.219-.108 1.094-1.023.492-.592l1.04-.97s-.493.593-.657.7c.274-.107.875-.915.875-.915 1.806-1.94 3.611-3.825 5.253-5.926 1.695-2.262 3.227-4.74 4.759-7.164-.438 1.293-.547 2.586-.93 3.879-.219.7-.438 1.4-.602 2.1-.109.27-.219 1.563-.109 1.455 0 .161 0 .27-.055.377 0-.054 0-.108-.055-.162-.164.054-.164 1.67-.218 1.94-.219.754-.547 1.454-.657 2.316-.273 2.262-.109 4.901 1.313 6.84.875 1.185 2.189 1.832 3.666 1.94 1.586.053 2.462-.808 3.282-1.993.547-.809 1.04-1.509 1.368-2.424.273-.755.821-2.209.492-2.963-.219-.485-.328-.539-.766-.323-.601.215-1.313 1.508-1.696 1.993-.547.592-1.641 2.1-2.571 2.208-.547.054-.438-.054-.547-.7-.055-.377-.055-2.909 0-2.962-.164.215-.219.43-.274.646.219-1.778.985-3.932 1.532-5.818.657-2.208 1.149-4.416 1.751-6.625.656-2.262 1.532-4.524 2.462-6.68.219-.484 2.681-5.816 3.064-6.301-.383.269-2.353 4.363-3.009 5.71 1.313-3.07 2.844-6.034 4.759-8.835.055 0-.547.916-.437.916.164.108 1.477-1.885 1.367-1.939-.054 0-.109 0-.164.054.274-.27.602-.431.547-.97zm-14.279 25.586c-.492 2.209-1.039 5.171-.602 7.38-.492-2.478-.328-5.28.11-7.757.328-2.047.93-3.932 1.641-5.817-.602 2.154-.656 4.04-1.149 6.194zm-9.136-20.469c1.532-3.608 3.72-6.894 6.018-10.018-2.298 3.232-4.158 6.733-5.799 10.342-1.259 2.855-2.407 5.602-3.228 8.457.164-.755.328-1.509.602-2.263.656-2.208 1.532-4.363 2.407-6.518zm-1.258 5.225a76.152 76.152 0 013.446-7.864c-1.203 2.478-2.845 6.356-3.446 7.864zm17.342 3.556c-.164.484-.383.97-.602 1.4l.985-2.478-.383 1.078zm35.425 1.831c-.328.054-3.173.916-3.009 1.346 0 .054.11.108.164.108-.93.377-2.133.431-3.063 1.024-1.04.7-2.024 1.4-3.119 1.993.985-1.67 1.915-3.448 2.517-5.225.219-.647 1.477-4.633.657-5.064-.11-.053-.165.431-.219.7.054-2.154-.657-5.44-3.611-5.655-1.805-.108-3.501 2.1-4.486 3.286-2.243 2.8-4.213 5.817-6.182 8.726-.547.808-6.018 9.534-6.018 9.534s.383-.539.875-1.239c-.492.808-.985 1.67-1.422 2.532.219-.808 2.297-7.218 3.61-10.989.11-.161.165-.377.219-.538l.329-.916v.054c.492-1.455.984-2.909 1.422-4.417 0 .161-.219.97-.164.97.328.053.766-2.21.547-2.21l-.164.27c.164-.808.437-1.185-.055-2.1-.383-.809-1.039-1.563-1.969-1.778-1.806-.485-2.681.97-2.572 2.37 0 .216.274.323.274.539 0 .269-.274.754-.328.97-.383 1.13-.657 2.208-1.095 3.285-.218.593-2.243 6.195-2.243 6.195.11-.054.164-.162.219-.27-.164.485-.328.97-.547 1.454-.055-.053.164-.43.055-.43-.547-.108-1.915 4.416-2.024 4.847a20.908 20.908 0 01-.876 3.017c-.164.538-.383 1.077-.547 1.67 0 .053-.273 1.346 0 .861-.055.162-.109.27-.109.378 0-.054-.055-.108-.055-.162-.164.054-.273 1.185-.273 1.239-.219.592-.493 1.023-.766 1.562-.712 1.724-1.095 3.609-1.368 5.44-.438 2.801-1.751 7.003-.328 9.588.492.916 2.024 2.801 3.227 1.67.548-.539.548-1.778.602-2.424.328-1.778.602-3.609.985-5.386l.492-2.478c.055-.108.493-2.1.329-2.047a1.18 1.18 0 00-.274.43c.274-.861.657-1.669.985-2.585.437-1.292.766-2.531 1.422-3.716.766-1.185 1.423-2.478 2.134-3.663.547-.97 1.039-2.209 1.641-3.017.164-.215.493-.323.766-.538.547-.593.93-1.4 1.368-2.047.82-1.293 1.532-2.586 2.407-3.77.383-.54 4.76-6.572 5.197-6.95-.109.055-.219.109-.328.216.438-.538.93-1.023 1.368-1.454.054.054-.329.377-.274.43.11.055 2.626-1.884 3.064-1.938 1.203-.216.766 2.047.602 2.64-.274 1.238-.985 2.423-1.587 3.5-.328.593-.656 1.131-.93 1.724-.055.054-.492 1.077-.328.97l-.328.484c.109-.161.164-.377.164-.377-.219 0-.493.916-.547 1.078-.329.538-.766.97-1.204 1.4-1.149 1.293-2.188 2.64-3.337 3.878-.876.916-2.024 2.532-3.337 2.855-.93.216-1.642-.27-1.149 1.185.328 1.024 1.532 3.394 2.845 3.394 1.203 0 2.68-1.778 3.391-2.532.821-.916 1.751-1.778 2.626-2.747.219-.323 2.736-3.286 3.119-3.447h-.055c.547-.27 1.094-.054 1.86-.593.438-.323.657-.646 1.149-.97.383-.215.547-.484.711-.646 0 0 0 .054.055.054.547-.539 1.313-.377 2.024-.862.876-.592 1.97-1.347 2.736-2.047.984-.861 2.352-1.346 2.79-2.8-.219.053-.493.053-.657.16zm-28.01 5.494v.054c-.055.7-.548 1.508-.821 2.155-.383 1.023-.711 2.046-1.04 3.07a80.028 80.028 0 01-2.407 6.356 43.467 43.467 0 00-1.86 5.494c.602-2.64 1.587-5.225 2.353-7.703.711-2.262 1.805-4.47 2.68-6.679.11-.27 1.149-2.424 1.04-2.855.055.054.055.108.055.108zm2.407 1.616c-.164.646-.329 1.239-.547 1.778.164-.539.328-1.185.547-1.778zm7.495-8.834l-1.04 1.509c.329-.485.657-1.024 1.04-1.509zm8.917 6.518c.055-.162.329-.216.493-.323l-.493.323zm-13.075-6.302c-.055.054-.109.215-.164.43l.164-.43zm2.462 2.262v-.054c.055-.054.055-.054.055-.108.054-.053 0 .054-.055.162zm-2.845-1.347c0 .108-.055.162-.109.216l.109-.216zm-11.598 23.7c0-.053 0-.053.054-.107 0 .054 0 .054-.054.108zm8.972-16.643c0 .054-.055.054-.055.054l.055-.054z" fill="#408F95"/><path d="M173.988 30.714c-.165-.754-.602-.862-1.149-.646-1.04.485-2.079 1.562-3.064 2.208-2.243 1.4-4.486 2.532-6.893 3.717 0-.054-.055-.162-.11-.323.055.269 0 .377-.054.43-.547-2.316-1.095-4.632-1.532-7.002.219 1.024.711 2.747 1.094 4.202-.492-2.263-1.094-5.064-1.04-5.064-.109.054-.109.162-.109.27-.109-.647-.273-1.455-.164-2.155.055-.808.492-1.508.766-2.262a13.97 13.97 0 01-.164.862c.328.053.547-1.94.547-2.155-.055-.323-.766-1.347-.766-1.077-1.477-1.347-4.377 1.616-4.814 2.908-.329.862-.329 1.778-.274 2.694.055.915.328 1.723.602 2.585.164.647-.055 1.078 0 1.778.109 1.077.492 2.154.711 3.178.219.808.93 2.424.766 3.178-.109.754-1.751 1.4-2.462 1.831-.93.593-1.86 1.293-2.79 1.993-1.641 1.24-3.392 2.801-4.049 4.794-.109.27-.492 1.454-.109 1.67.055.054.219-.862.274-.97-.712 3.555 2.844 5.28 6.182 5.333 3.775.108 6.401-2.047 7.714-5.387.547-1.454.711-2.962.656-4.47a17.57 17.57 0 00-.273-2.963c-.11-.862-.219-.808.383-1.293.437-.323 1.094-.538 1.531-.754 1.751-.915 3.338-1.993 4.924-3.124 1.149-.808 3.884-2.208 3.666-3.932v-.054zm-22.103 18.53c-1.422-.431 0-2.64.493-3.34.82-1.077 2.024-1.885 3.118-2.64l1.641-1.077c.164-.107 1.204-.915.876-.808l.656-.377-.383.323c.11-.053.274-.107.383-.215.055 1.293.055 2.586-.328 3.878-.055.216-1.094 2.37-1.532 2.801l.274-.215a6.222 6.222 0 01-1.696 1.454c0-.054.492-.377.437-.43l-1.531.592c-.766.161-1.642.323-2.408.054zm6.894 1.562c-1.423.592-2.791.862-4.268.915 2.681-.161 5.471-1.454 7.058-3.662-.602 1.185-1.368 2.1-2.79 2.747zm3.993-15.298a12.717 12.717 0 00-.328-1.508c.11.592.219 1.185.328 1.508zm.712 5.602c-.055-.054-.055-.161-.055-.27 0 .108.055.216.055.27z" fill="#408F95"/></svg>