<svg width="120" height="45" fill="none" xmlns="http://www.w3.org/2000/svg"><path d="M3.549 27.044l-.038.037c.038-.037.038-.037.038-.075v-.186c.415-2.2 1.207-4.363 2-6.489.83-2.237 1.622-4.437 2.678-6.563.981-2.014 2.113-3.99 3.396-5.817 1.132-1.678 2.49-3.506 4.226-4.624.528-.15 1.056-.709 1.735-.597.68.112.68.82.529 1.492.188-.522.301-1.082-.151-1.455-.604-.447-1.774.261-2.264.597a2.216 2.216 0 00-.642.373c.114-.112.264-.224.453-.336l-.189.075.529-.298c.603-.336 1.962-1.082 2.415-.112.34.783-.19 2.088-.453 2.834-.49 1.268-1.095 2.461-1.736 3.654.113-.26.566-1.268.566-1.268-.264-.037-1.471 2.723-1.698 2.797h.038c-.151.112-.264.224-.264.261-.076.448.453.336.755.299 1.282-.15 2.942-1.231 3.772-2.163.906-1.007 1.246-2.536 1.246-3.879v-.037c-.038-2.536-1.811-5.743-4.868-5.556-1.697.074-3.282 1.715-4.376 2.834A32.08 32.08 0 009.02 5.676c-.302.447-.604.858-.868 1.305-.302.41-.906 1.044-1.057 1.53 0 0 .189-.225.34-.374-.415.634-.792 1.305-1.17 1.94-.037-.038.227-.56.227-.56-.34-.075-1.887 2.983-2.075 3.319-.68 1.23-1.283 2.461-1.698 3.766-.453 1.455-1.057 2.834-1.51 4.251-.226.709-.452 1.38-.603 2.089-.076.335-.151.634-.189.97 0 .037-.075.633 0 .559-.075.26-.075.596-.113.857 0 0 0-.634.038-.708-.151.186-.038.895-.076.97-.188 1.416-.49 2.908 0 4.288.642 1.902 2.226 3.468 3.962 4.475.905.56 2.113 1.193 3.245 1.118 1.32-.074 2.603-1.155 3.584-1.939 2.867-2.386 5.47-5.742 5.961-9.546.038-.261.227-1.566-.226-1.604-.415-.037-.717.858-.868 1.082A32.372 32.372 0 0112 28.573c-1.509 1.64-3.395 3.393-5.697 3.915a4.158 4.158 0 01-.98.112c-.454-.037-.869-.149-1.208-.485-.189-.186-.378-.82-.604-.932 0-.186-.038-.373-.075-.485l-.114-.224c-.037-1.118 0-2.162.189-3.318v-.038c0-.037.038-.037.038-.074zm6.64-18.236c-1.471 2.387-2.716 4.848-3.961 7.384-.717 1.492-1.434 3.02-2 4.624a57.126 57.126 0 012.867-7.272c1.359-2.871 3.17-5.668 5.32-7.98-.867 1.044-1.622 2.238-2.226 3.244zm3.886-4.102c-.528.523-1.018 1.12-1.471 1.679.717-.933 1.471-1.865 2.415-2.61-.34.297-.68.67-.944.931zm3.849.299c.075-.224.15-.485.189-.783-.076.335-.227.67-.227.932.038-.075.038-.112.038-.15zm18.262 15.737s.038.037 0-.038c-.188-.26-.453-.074-.717 0-1.094.224-2.226.485-3.358.671.415-1.342.83-2.759.981-4.139.076-.522.114-1.081 0-1.603a3.057 3.057 0 00-.377-.97s-.453-.56-.34-.26l-.037-.038-.151-.299.15.15c.038-.224-.603-.634-.603-.634-.943-.933-2.226-1.641-3.509-.933-.792.448-1.434 1.194-1.962 1.94-.189.26-.377.559-.528.857-.151.299-.377 1.268-.604 1.417-.188.15-.754.187-1.018.336a4.45 4.45 0 00-1.02.56c-.716.447-1.282 1.08-1.81 1.715-.906 1.193-1.359 2.535-2 3.729-1.207 2.274.113 5.258 2.34 6.34a4.515 4.515 0 002.3.41c.793-.112 1.548-.523 2.152-.97.565-.41 1.81-1.156 2.037-1.79 0-.037-.075 0-.189.112l1.094-1.268c.038.037-.264.41-.264.41.264.112 1.623-1.864 1.774-2.014.264-.447.528-.932.83-1.38.264-.335.188-.298.566-.447-.038.037.452-.112.528-.112.415-.074 4.83-.373 3.735-1.752zm-13.055 7.532h-.037c-3.132.448.49-6.115.566-6.488l-.227.335c.566-1.118 1.095-2.013 1.359-2.312.415 1.865 2.452 2.573 4.112 2.797-1.094 2.163-3.131 5.184-5.773 5.668zm7.433-10.33c-.264 1.045-.49 2.425-1.056 3.357-.189.373-.075.261-.453.336-.226.074-.717 0-.943-.038-.415-.037-.906-.112-1.207-.373-.529-.447-.453-1.156-.378-1.79.076-.634.264-1.23.49-1.827.114-.224.83-1.417.718-1.64-.038-.112-.453.559-.49.596.226-.41.452-.634.64-.895-.037 0 0-.037.038-.112v.037l.038-.074s0-.038.038-.038c.566-.745 1.962-2.423 2.716-1.267.566.97.038 2.796-.15 3.729zm-2.603-2.423l.038-.038c0 .038-.038.038-.038.038z" fill="#fff"/><path d="M55.867 20.928v-.037c-.226-1.23-1.924.82-2.15 1.007-1.095 1.193-2.113 2.498-3.094 3.803-.981 1.343-1.925 2.685-2.943 4.028-.49.67-.981 1.305-1.547 1.902-.189.223-.642.857-.981.857-1.32 0-.302-5.258-.151-6.078.226-1.454.34-3.394 1.283-4.55.226-.298 2.792-3.542 2.792-3.542-.076-.038-.378.335-.566.559l1.622-2.163.113-.149h.038-.038l.302-.41c.038.037 0 .112-.038.186l.34-.373.981-1.268c.717-1.006 1.396-2.088 2.037-3.132 1.02-1.715 2.415-4.177 1.66-6.265-.565-1.529-2.64-1.827-4.037-1.305-1.018.373-1.886 1.156-2.603 1.976a16.52 16.52 0 00-1.094 1.567c-.113.149-.604 1.342-.717 1.491h.038c-.227.41-.453.82-.604 1.23.076-.298.264-.894.415-1.006-.302.224-.566 1.305-.641 1.417-1.434 3.095-2.68 6.228-3.585 9.51-1.018-1.157-2.64-3.133-4.414-2.425-1.472.597-2.566 2.126-3.32 3.468-.68 1.194-.868 2.424-1.359 3.58-.867 1.977-1.282 6.041 1.66 6.638.906.187 1.736-.373 2.453-.858 1.283-.932 2.49-2.013 3.622-3.132-.189 1.976-.604 4.96 1.019 6.526 2 2.014 4-.709 5.206-2.2 1.547-1.94 2.755-4.102 4.302-5.967.754-.895 1.509-1.79 2.301-2.61.604-.597 1.811-1.343 1.698-2.275zm-13.885 2.461c-.037.112-.037.187-.037.187-.151.895-.151 1.678-.793 2.312a38.277 38.277 0 01-1.773 1.715c-.566.522-1.924 2.051-2.792 1.976-1.056-.111-.264-2.498.264-3.952-.566 1.491-1.471 3.915-.226 3.99.34.037.905-.261 1.396-.671-.453.41-1.208.97-1.66.745-.868-.372-.113-2.498.037-3.095.49-1.715 1.208-3.356 2.038-4.922.415-.783 1.019-2.051 1.81-2.126l-.188.112c.038-.037.076-.037.113-.037.264-.075.529.112.717.26.49.337.793.97 1.132 1.455.377.597.113 1.23-.038 1.902v.15zm6.075-8.614c0-.037 0-.112.038-.15v-.036c.037-.112.075-.15.075-.15v-.037c.868-2.386 1.811-4.773 3.17-6.936.34-.56 1.32-2.275 2.188-1.79.34.186.415.671.415 1.007.15 2.237-1.66 4.885-2.792 6.675a63.072 63.072 0 01-4.34 6.041l.831-.858.755-.932-1.925 2.461-.264.336-.15.15c.037-.225.226-.448.414-.71-.075.075-.15.15-.188.224a119.41 119.41 0 011.584-4.81c-.037.037 0-.037.038-.187l.113-.186c0-.037 0-.075.038-.112zm-3.17 3.058c-.075.186-.301 1.044-.414 1.156 0 .037-.038.075-.076.075.302-.373.113-.858.264-1.306.076-.223.453-.634.529-.932 0 .298-.19.82-.302 1.007zm-5.998 10.33a44.04 44.04 0 002.716-2.574c-.075.485-1.245 1.306-1.66 1.678-.49.485-1.056.97-1.622 1.418h-.038l.604-.522zm6.678-13.724a7.67 7.67 0 01-.566 1.268c.189-.56.302-1.118.566-1.64.226-.41.49-.933.679-1.418-.189.597-.49 1.231-.68 1.79zm2.452.448l-.15.373c0-.037.037-.112.037-.187l.113-.186zm-8.15 4.922c-.15.112-.264.261-.301.261.075 0 .188-.149.302-.26zm1.057-.074a.79.79 0 01.226.149l-.226-.15zm7.47-.671c0-.038.038-.075.076-.112-.038.074-.075.111-.075.111zm.076-.112l.038-.075c0 .037-.038.075-.038.075z" fill="#fff"/><path d="M67.547 20.816c0 .037 0 .037-.037 0v-.037c-.604-1.007-1.396.373-1.736.858-.641.857-1.245 1.678-1.924 2.46-.566.672-1.17 1.343-1.622 2.052 0 .074-.076.26-.076.26-.15.225-.377.411-.566.635-.34.335-.679.708-1.056 1.044-.566.522-3.736 3.468-4.15 1.566-.227-.932.075-2.088.264-2.983.113-.485.226-.932.301-1.417.076-.373-.037-.746.151-1.119.114-.224.151-.186.415-.261l.642-.224c.415-.149.83-.298 1.207-.522.566-.335 1.094-.746 1.585-1.156 1.17-.97 2.414-2.125 2.905-3.58.264-.82.302-1.715-.226-2.424-.49-.634-1.321-.97-2.076-1.118-2.037-.373-3.584.783-4.754 2.312-1.433 1.752-2.452 3.915-2.942 6.115-.265 1.082-.415 2.163-.604 3.282-.189 1.119-.302 2.163.302 3.207-.038-.373-.113-.708-.113-1.044 0-.187.075-.373.075-.522 0-.075-.075-.299-.075-.41 0-.336.075-.597.15-.933.038-.335 0-.67.038-1.007.038-.373.189-.67.34-1.006.113-.299.15-.56.264-.858.113-.261.188-.56.302-.858.037-.186.226-.41.34-.634-.114.336-.34.634-.416.933-.113.447-.038.932-.075 1.38-.076.484-.227.969-.302 1.49-.076.486-.302.933-.377 1.418-.076.448-.227.783-.19 1.23 0 .262.039.523.076.746.038.299.227.485.415.709.642.746 1.51 1.342 2.49 1.604.68.186 1.283.149 1.925-.187.905-.485 1.698-1.23 2.377-1.94.641-.708 1.132-1.49 1.698-2.237.528-.67 1.17-1.305 1.697-1.976l2.038-2.61 1.17-1.53c.188-.223.301-.41.15-.708zm-9.356.41c.037-.074.037-.111.037-.111.566-1.194.981-2.462 1.773-3.618l.68-.895c.15-.186.415-.522.679-.596.566-.112.717.857.679 1.23l-.151.783c-.038.224.038.373 0 .56-.075.223-.264.335-.377.522l-.642.82A10.888 10.888 0 0157.7 22.42c.189-.41.302-.82.49-1.194z" fill="#fff"/><path d="M87.98 9.89c-.15-1.193-2-2.088-3.018-1.38-.83.56-1.585 2.088-2.189 2.983l-3.697 5.52a60.237 60.237 0 01-1.736 2.535c-.15.261-1.584 2.462-1.584 2.462.15.037.49-.485.566-.56-1.02 1.417-2.34 2.909-3.585 4.326-.415.522-2.905 3.766-3.81 3.356-.302-.15-.378-.634-.416-.895-.301-1.976.453-3.953.68-5.855l-.151.373.226-.932c0 .112-.038.224-.038.336l.038-.224-.113 1.119c.528-2.238 1.283-4.4 2.15-6.489.227-.522 2.415-5.93 2.868-6.414-.076.037-.189.186-.302.335a34.53 34.53 0 012.34-3.729c-.19.299-.529.858-.529.858.151.037 1.66-2.014 1.66-2.237 0-.038-.113.037-.226.112.377-.485.641-.746.34-1.567-.453-.932-1.774-2.088-2.868-1.529-.226.15-.377.336-.528.522-.793 1.007-1.434 2.313-1.962 3.431-.189.448-.34.522-.642.858-.49.56-.754 1.305-1.094 1.94-.679 1.341-1.207 2.759-1.81 4.138a28.985 28.985 0 00-1.51 3.916c-.189.522-.34 1.044-.49 1.566-.151.522-.68 1.492-.604 2.051l.226-.485a30.21 30.21 0 00-.49 1.977c-.038 0 .037-.485.037-.485-.15 0-.49 1.64-.566 1.865-.15.783-.264 1.566-.34 2.386-.037.858 0 1.641.416 2.424.792 1.38 2.226 2.722 3.773 3.207.264.075.566.15.83.112.264-.037.528-.15.717-.336.15-.074.754-.708.34-.41l.716-.671s-.34.41-.453.485c.19-.075.604-.634.604-.634 1.245-1.343 2.49-2.648 3.622-4.102 1.17-1.567 2.226-3.282 3.283-4.96-.302.895-.377 1.79-.642 2.685-.15.485-.302.97-.415 1.454-.075.187-.15 1.082-.075 1.007 0 .112 0 .187-.038.261 0-.037 0-.074-.038-.112-.113.038-.113 1.156-.15 1.343-.151.522-.378 1.007-.453 1.603-.189 1.567-.076 3.394.905 4.736.604.82 1.51 1.268 2.528 1.343 1.094.037 1.698-.56 2.264-1.38.377-.56.717-1.044.943-1.678.189-.522.566-1.529.34-2.051-.151-.336-.227-.373-.528-.224-.415.15-.906 1.044-1.17 1.38-.377.41-1.132 1.454-1.773 1.529-.378.037-.302-.037-.378-.485-.037-.26-.037-2.014 0-2.05-.113.148-.15.297-.188.447.15-1.231.679-2.723 1.056-4.028.453-1.529.792-3.058 1.207-4.587.453-1.566 1.057-3.132 1.698-4.624.151-.335 1.85-4.027 2.113-4.363-.264.187-1.622 3.02-2.075 3.953.906-2.125 1.962-4.176 3.283-6.116.037 0-.378.634-.302.634.113.075 1.019-1.305.943-1.342-.038 0-.075 0-.113.037.189-.186.415-.298.377-.671zm-9.847 17.713c-.34 1.53-.717 3.58-.415 5.109-.34-1.715-.227-3.655.075-5.37.226-1.417.641-2.722 1.132-4.027-.415 1.491-.453 2.796-.792 4.288zm-6.301-14.17c1.056-2.499 2.565-4.774 4.15-6.937-1.585 2.238-2.867 4.662-4 7.16-.867 1.977-1.66 3.879-2.225 5.855.113-.522.226-1.044.414-1.566.453-1.53 1.057-3.02 1.66-4.513zm-.868 3.617a52.902 52.902 0 012.377-5.445c-.83 1.716-1.962 4.4-2.377 5.445zm11.96 2.461a7.522 7.522 0 01-.415.97l.68-1.716-.265.746zm-9.055-8.987v-.037.037zM76.7 5.6c0 .038-.038.075-.076.075.038 0 .076-.037.076-.075zm30.655 15.179c-.226.037-2.188.634-2.075.932 0 .037.076.075.113.075-.641.26-1.471.298-2.112.708-.717.485-1.396.97-2.151 1.38.679-1.156 1.321-2.387 1.736-3.617.15-.448 1.018-3.207.452-3.506-.075-.037-.113.299-.151.485.038-1.491-.452-3.766-2.49-3.915-1.245-.075-2.415 1.454-3.094 2.274-1.547 1.94-2.905 4.028-4.263 6.042-.377.559-4.15 6.6-4.15 6.6s.264-.373.603-.858c-.34.56-.679 1.156-.98 1.753.15-.56 1.584-4.997 2.49-7.607.075-.112.113-.261.15-.373l.227-.634v.037c.34-1.007.679-2.014.98-3.058 0 .112-.15.672-.112.672.226.037.528-1.53.377-1.53l-.113.187c.113-.56.301-.82-.038-1.454-.264-.56-.717-1.082-1.358-1.23-1.246-.337-1.85.67-1.774 1.64 0 .149.189.224.189.373 0 .186-.189.522-.227.671-.264.783-.452 1.529-.754 2.275-.151.41-1.547 4.288-1.547 4.288.076-.037.113-.112.15-.186-.112.335-.225.671-.376 1.007-.038-.038.113-.299.037-.299-.377-.074-1.32 3.058-1.396 3.356-.15.709-.34 1.38-.603 2.089-.114.373-.264.746-.378 1.156 0 .037-.188.932 0 .596-.037.112-.075.187-.075.261 0-.037-.038-.074-.038-.111-.113.037-.189.82-.189.857-.15.41-.339.709-.528 1.082-.49 1.193-.754 2.498-.943 3.766-.302 1.94-1.207 4.848-.226 6.638.34.634 1.396 1.94 2.226 1.156.377-.373.377-1.23.415-1.678.226-1.23.415-2.499.679-3.73l.34-1.715c.037-.074.34-1.454.226-1.417a.81.81 0 00-.189.299c.189-.597.453-1.156.68-1.79.301-.895.528-1.753.98-2.573.529-.82.981-1.716 1.472-2.536.377-.671.717-1.53 1.132-2.088.113-.15.34-.224.528-.373.377-.41.641-.97.943-1.417.566-.895 1.057-1.79 1.66-2.61.264-.374 3.283-4.55 3.585-4.811a.786.786 0 00-.227.149c.302-.373.642-.709.944-1.007.037.037-.227.261-.19.298.076.038 1.812-1.305 2.114-1.342.83-.15.528 1.417.415 1.827-.189.858-.68 1.678-1.094 2.424-.227.41-.453.783-.642 1.193-.038.038-.34.746-.226.672l-.227.335a.962.962 0 00.114-.26c-.151 0-.34.633-.378.745-.226.373-.528.671-.83.97-.792.895-1.509 1.827-2.301 2.684-.604.634-1.396 1.753-2.302 1.977-.641.15-1.132-.187-.792.82.226.709 1.056 2.35 1.962 2.35.83 0 1.849-1.231 2.34-1.753.565-.634 1.206-1.23 1.81-1.902.151-.224 1.887-2.275 2.151-2.387h-.038c.377-.186.755-.037 1.283-.41.302-.224.453-.447.792-.671.264-.15.378-.336.491-.448 0 0 0 .038.037.038.378-.373.906-.261 1.396-.597.604-.41 1.359-.932 1.887-1.417.679-.597 1.622-.932 1.924-1.939-.151.037-.339.037-.453.112zm-19.317 3.803v.038c-.038.485-.378 1.044-.566 1.491-.264.709-.49 1.418-.717 2.126a55.829 55.829 0 01-1.66 4.4 30.08 30.08 0 00-1.283 3.804c.415-1.827 1.094-3.617 1.622-5.333.49-1.566 1.245-3.095 1.849-4.624.076-.186.792-1.678.717-1.976.038.037.038.075.038.075zm1.66 1.12a9.535 9.535 0 01-.378 1.23c.114-.373.227-.82.378-1.23zm5.169-6.116l-.717 1.044c.226-.336.453-.709.717-1.044zm6.15 4.512c.037-.112.226-.15.339-.224l-.339.224zm-9.018-4.363c-.037.037-.075.149-.113.298l.113-.298zm-.264.634l.151-.336-.15.336zm1.962.932v-.037c.038-.038.038-.038.038-.075.038-.037 0 .037-.038.112zm-1.962-.932c0 .074-.038.111-.075.149l.075-.15zm-7.999 16.408c0-.038 0-.038.038-.075 0 .037 0 .037-.038.075zm6.188-11.523c0 .037-.038.037-.038.037l.038-.037z" fill="#fff"/><path d="M119.991 21.264c-.113-.522-.415-.597-.792-.448-.717.336-1.434 1.082-2.113 1.53-1.547.969-3.094 1.752-4.754 2.572 0-.037-.037-.112-.075-.224.038.187 0 .262-.038.299-.377-1.604-.755-3.207-1.056-4.848.151.708.49 1.902.754 2.909-.339-1.567-.754-3.506-.717-3.506-.075.038-.075.112-.075.187-.076-.448-.189-1.007-.113-1.492.037-.56.339-1.044.528-1.566-.038.26-.113.596-.113.596.226.038.377-1.342.377-1.491-.038-.224-.528-.932-.528-.746-1.019-.932-3.019 1.119-3.32 2.014-.227.596-.227 1.23-.189 1.864.038.634.226 1.194.415 1.79.113.448-.038.746 0 1.23.075.747.34 1.492.49 2.201.151.56.642 1.678.529 2.2-.076.522-1.208.97-1.698 1.268-.642.41-1.283.895-1.924 1.38-1.132.858-2.34 1.939-2.792 3.319-.076.186-.34 1.007-.076 1.156.038.037.151-.597.189-.671-.491 2.46 1.962 3.654 4.263 3.691 2.604.075 4.415-1.417 5.32-3.729.377-1.007.491-2.05.453-3.095 0-.708-.076-1.38-.189-2.05-.075-.598-.151-.56.264-.896.302-.224.755-.373 1.057-.522 1.207-.634 2.301-1.38 3.396-2.163.792-.56 2.678-1.529 2.527-2.722v-.037zm-15.243 12.828c-.98-.299 0-1.828.34-2.312.566-.746 1.396-1.306 2.151-1.828l1.132-.745c.113-.075.83-.634.603-.56l.453-.26-.264.223c.075-.037.189-.075.264-.15.038.896.038 1.79-.226 2.686-.038.149-.755 1.64-1.057 1.939l.189-.15c-.34.41-.717.747-1.17 1.008 0-.038.34-.261.302-.299l-1.056.41c-.529.112-1.132.224-1.661.038zm4.754 1.081a8.17 8.17 0 01-2.942.634c1.848-.112 3.773-1.007 4.867-2.536-.415.82-.944 1.455-1.925 1.902zm2.755-10.59a8.833 8.833 0 00-.227-1.045c.076.41.151.82.227 1.044zm.49 3.878c-.037-.037-.037-.112-.037-.187 0 .075.037.15.037.187z" fill="#fff"/></svg>