<svg width="50" height="50" fill="none" xmlns="http://www.w3.org/2000/svg"><path d="M41.176 23.303a1.133 1.133 0 00-.157-.55c-.277-.476-.887-.78-1.811-.9a18.22 18.22 0 01-1.495-.257 16.746 16.746 0 00-4.27-.375 34.733 34.733 0 00-4.477.458c-2.42.38-7.344 1.155-10.403.558-.415-.773-.487-1.464-.212-2.055.596-1.284 2.614-1.886 3.345-2.065.865 1.302 1.965 2.104 3.271 2.384 2.43.52 4.668-.962 4.762-1.026a.403.403 0 00.16-.45.402.402 0 00-.39-.283 1.293 1.293 0 01-.618-.208 2.629 2.629 0 01-.963-1.005c-.833-1.512-2.035-2.075-2.725-2.282 1.405-3.317-.422-5.486-.504-5.58l-.012-.012c-.44-.468-.192-1.316-.19-1.323a.396.396 0 00-.124-.423.41.41 0 00-.443-.057c-1.94.916-3.096 2.621-3.342 4.933a9.791 9.791 0 00.094 2.631 16.133 16.133 0 00-2.809.06c-.369.036-7.366.775-10.472 6.226-1.367 2.4-1.494 5.28-.342 7.705.94 1.979 2.495 3.502 4.622 4.534a8.219 8.219 0 00-1.511 2.204c-1.317 2.81-4.099 2.398-4.216 2.38a.413.413 0 00-.432.216.397.397 0 00.084.471c1.323 1.234 3.01 1.96 4.65 1.846 3.114-.217 5.662-2.868 6.612-4.009.392-.476.826-.916 1.299-1.314a.433.433 0 00.053.002c1.98-.124 4.517.01 4.537.012l.2.012a6.096 6.096 0 00-1.834 2.024c-.654 1.158-2.332 3.576-4.928 3.594a3.271 3.271 0 001.059-1.345 3.22 3.22 0 00.228-1.687.399.399 0 00-.29-.348.414.414 0 00-.437.137.399.399 0 00-.084.3c.077.6-.065 1.206-.402 1.712a2.75 2.75 0 01-1.508 1.055.409.409 0 00-.228.135.398.398 0 00.202.645c.474.134.965.202 1.458.205 3.011 0 4.907-2.71 5.643-4.012a5.227 5.227 0 011.803-1.9c.286-.173.586-.323.896-.448l.014-.007.381.003c8.268 0 13.266-3.369 15.12-4.912.441-.367 1-.57 1.577-.57h1.01a2.14 2.14 0 001.191-.343c.9-.599.775-1.564.553-2.074.016-.615-.084-3.5-3.195-4.622zM16.228 36.54c-.689.827-3.159 3.538-6.033 3.717-1.11.069-2.18-.248-3.19-.942 1.167-.136 2.904-.716 3.898-2.84.011-.024 1.122-2.48 2.86-2.909a.407.407 0 00.249-.183.397.397 0 00-.14-.55.413.413 0 00-.306-.047 3.596 3.596 0 00-1.222.58c-2.118-.951-3.652-2.396-4.556-4.299-1.042-2.19-.924-4.797.314-6.97 2.91-5.109 9.776-5.814 9.845-5.82l.005-.002h.005c.017-.002 1.738-.202 3.168 0a.413.413 0 00.363-.132.401.401 0 00.09-.37 8.938 8.938 0 01-.187-2.926c.192-1.75.935-3.057 2.211-3.895 0 .456.166.897.47 1.242.116.14 1.695 2.123.175 5.16a.398.398 0 00.144.516.411.411 0 00.185.063c.016.001 1.625.165 2.626 1.981.293.542.73.995 1.263 1.312l.013.008c-.786.354-2.054.76-3.343.482-1.157-.25-2.132-1.01-2.898-2.26a.406.406 0 00-.425-.188c-.134.025-3.296.631-4.202 2.579-.301.649-.32 1.358-.056 2.116a3.058 3.058 0 01-1.107-.664 2.123 2.123 0 01-.529-.823.398.398 0 00-.203-.235.414.414 0 00-.451.053.402.402 0 00-.12.432c.147.43.395.818.722 1.136 2.324 2.328 9.418 1.212 13.23.612.323-.051.614-.097.866-.135 1.166-.165 2.34-.27 3.516-.314a15.919 15.919 0 014.059.357c.48.104 1.005.195 1.563.268.851.112 1.083.317 1.26.65-.192.06-.39.1-.59.118a4.118 4.118 0 01-.975-.022 11.475 11.475 0 00-6.235.976 10.1 10.1 0 00-3.478 2.746c-.885 1.072-3.35 3.57-7.11 3.599a.41.41 0 00-.283.121.399.399 0 00.002.564.41.41 0 00.285.119h.003c4.105-.033 6.777-2.735 7.735-3.895a9.294 9.294 0 013.198-2.529 10.618 10.618 0 015.774-.904c.388.054.781.063 1.171.024.308-.026.611-.096.9-.206 1.99.657 2.577 2.115 2.742 3.067a4.535 4.535 0 00-2.393-.758h-.005c-4.527-.389-8.302 3.017-8.594 3.287-3.37 2.674-8.86 3.35-8.914 3.357a.635.635 0 00-.024.004l-2.843.507c-.153.023-1.385.243-3.034 1.595-.534.443-1.024.935-1.464 1.47zm23.269-6.226a18.388 18.388 0 01-3.559 2.274c.333-.528.609-1.09.821-1.676a.396.396 0 00-.013-.307.406.406 0 00-.387-.232.413.413 0 00-.366.263c-.82 2.206-1.906 2.758-1.933 2.771-.003.002-.006.005-.01.006-.748.286-1.51.533-2.285.74a6.182 6.182 0 001.098-2.047c.713-2.152 1.483-2.882 1.597-2.981a13.296 13.296 0 012.84-1.457 6.756 6.756 0 00-.636 1.122.387.387 0 00.205.53.478.478 0 00.539-.201c.684-1.501 1.433-1.849 1.553-1.896a7.986 7.986 0 012.134-.098h.01a4.702 4.702 0 00-.567 1.31 4.847 4.847 0 01-1.041 1.879zm-11.819 4.574c.253-.29.46-.614.614-.964l.005-.013c.005-.01.397-.976.953-1.584a15.507 15.507 0 003.338-1.77c-.189.425-.355.858-.5 1.3-.724 2.187-2.03 2.667-2.166 2.712-.711.133-1.458.242-2.244.319zm-8.323 0c.893-.521 1.474-.615 1.493-.617l.008-.002.01-.001 2.601-.465a3.546 3.546 0 01-1.047 1.127 52.536 52.536 0 00-3.065-.041zm4.231.103c.37-.39.66-.845.858-1.341a25.812 25.812 0 003.496-.855 7.818 7.818 0 00-.398.813c-.427.952-1.112 1.3-1.302 1.382a29.79 29.79 0 01-2.654.001zm19.776-5.657c-.218.139-.475.21-.735.205h-1.01a3.28 3.28 0 00-.67.072c.157-.31.283-.632.377-.965.23-.82.55-1.227.69-1.374a3.551 3.551 0 011.604.962c.072.166.276.746-.256 1.1z" fill="#0D2936"/><path d="M13.383 17.853a.496.496 0 00.637-.299 4.17 4.17 0 01.092-.233.497.497 0 10-.916-.39c-.04.095-.077.19-.112.285a.495.495 0 00.299.637zm12.994 9.834a.493.493 0 00.29-.094l.476-.343a.497.497 0 00-.582-.807l-.475.343a.498.498 0 00.29.9zm-8.467-.343a.497.497 0 100-.995.497.497 0 000 .995zm-5.36 3.814a.498.498 0 10.098.99.498.498 0 00-.098-.99zm-2.56-5.75a.497.497 0 10.097.99.497.497 0 00-.098-.99z" fill="#0D2936"/></svg>