<svg width="64" height="64" fill="none" xmlns="http://www.w3.org/2000/svg"><path d="M57.263 29.312a1.815 1.815 0 00-.245-.873c-.433-.754-1.386-1.234-2.829-1.426a28.136 28.136 0 01-2.334-.406 25.794 25.794 0 00-6.668-.594c-1.884.07-3.762.24-5.628.51-.395.06-.854.133-1.363.215-3.78.603-11.47 1.83-16.247.885-.649-1.226-.76-2.32-.332-3.257.931-2.035 4.084-2.988 5.225-3.272 1.35 2.064 3.068 3.334 5.108 3.778 3.795.824 7.29-1.525 7.437-1.625a.635.635 0 00-.36-1.163 1.999 1.999 0 01-.965-.328 4.138 4.138 0 01-1.504-1.593c-1.3-2.396-3.177-3.289-4.255-3.616 2.194-5.256-.66-8.691-.788-8.841l-.017-.02c-.689-.74-.302-2.084-.298-2.096a.636.636 0 00-.885-.76c-3.03 1.451-4.835 4.154-5.22 7.816a15.737 15.737 0 00.147 4.17 24.83 24.83 0 00-4.386.094c-.576.056-11.504 1.228-16.354 9.865-2.134 3.801-2.334 8.365-.534 12.208 1.468 3.135 3.896 5.547 7.218 7.184a13.03 13.03 0 00-2.36 3.491c-2.056 4.453-6.4 3.8-6.583 3.77a.636.636 0 00-.544 1.09c2.065 1.954 4.7 3.105 7.262 2.924 4.862-.344 8.842-4.544 10.326-6.351a15.954 15.954 0 012.028-2.082.57.57 0 00.083.003c3.09-.197 7.054.017 7.085.019l.31.018a9.611 9.611 0 00-2.861 3.208c-1.023 1.835-3.643 5.666-7.697 5.693a5.172 5.172 0 002.01-4.803.637.637 0 10-1.266.14c.12.95-.102 1.912-.627 2.713a4.294 4.294 0 01-2.357 1.672.637.637 0 00-.04 1.236 8.43 8.43 0 002.277.324c4.703 0 7.664-4.295 8.812-6.356a8.232 8.232 0 012.817-3.009 9.567 9.567 0 011.4-.711c.007-.003.013-.008.02-.012.2.003.399.006.596.006 12.912 0 20.717-5.338 23.612-7.783a3.823 3.823 0 012.463-.903h1.576a3.316 3.316 0 001.862-.544c1.404-.948 1.209-2.477.863-3.286.024-.974-.13-5.546-4.99-7.322zm-38.96 20.971c-1.076 1.31-4.934 5.605-9.422 5.888-1.734.11-3.403-.392-4.98-1.492 1.82-.215 4.534-1.135 6.086-4.499.017-.039 1.752-3.93 4.467-4.61a.637.637 0 00-.309-1.235 5.586 5.586 0 00-1.908.919c-3.309-1.508-5.704-3.797-7.116-6.811-1.626-3.472-1.442-7.6.492-11.044 4.545-8.095 15.266-9.212 15.373-9.222l.008-.002h.009c.027-.003 2.713-.32 4.947-.002a.637.637 0 00.706-.793 14.362 14.362 0 01-.29-4.638c.299-2.772 1.459-4.842 3.453-6.17a2.999 2.999 0 00.732 1.967c.183.222 2.649 3.364.275 8.178a.637.637 0 00.513.915c.025.003 2.538.263 4.1 3.14a5.411 5.411 0 001.993 2.09c-1.226.56-3.207 1.205-5.22.764-1.806-.395-3.33-1.6-4.526-3.582a.637.637 0 00-.663-.296c-.209.04-5.147 1-6.562 4.086-.47 1.028-.5 2.151-.088 3.352a4.761 4.761 0 01-1.73-1.052 3.368 3.368 0 01-.825-1.304.637.637 0 10-1.21.397c.232.68.618 1.296 1.128 1.8 3.631 3.688 14.71 1.919 20.66.968.506-.08.96-.153 1.354-.212a52.233 52.233 0 015.492-.498 24.515 24.515 0 016.338.565c.749.165 1.57.308 2.44.425 1.33.177 1.692.503 1.967 1.03a4.367 4.367 0 01-.92.187 6.336 6.336 0 01-1.523-.035 17.689 17.689 0 00-9.736 1.546 15.811 15.811 0 00-5.432 4.351c-1.383 1.699-5.233 5.655-11.103 5.702a.637.637 0 00.005 1.273h.006c6.41-.05 10.583-4.332 12.08-6.17a14.55 14.55 0 014.994-4.007 16.37 16.37 0 019.016-1.433c.606.086 1.22.1 1.83.04a5.107 5.107 0 001.404-.328c3.109 1.041 4.025 3.35 4.283 4.86a7.013 7.013 0 00-3.737-1.201h-.008c-7.07-.616-12.966 4.78-13.42 5.208-5.263 4.236-13.836 5.308-13.922 5.319a.797.797 0 00-.037.005l-4.44.805c-.239.036-2.163.384-4.738 2.526-.834.702-1.6 1.482-2.286 2.33zm36.338-9.866a28.668 28.668 0 01-5.558 3.604c.52-.837.95-1.727 1.282-2.655a.637.637 0 10-1.195-.438c-1.28 3.495-2.977 4.37-3.02 4.39a.065.065 0 01-.015.01c-1.168.453-2.36.844-3.57 1.171a9.836 9.836 0 001.716-3.242c1.113-3.41 2.316-4.566 2.493-4.723a20.659 20.659 0 014.437-2.309c-.387.56-.72 1.155-.995 1.778a.62.62 0 00.32.841.737.737 0 00.842-.32c1.069-2.378 2.238-2.929 2.426-3.004a12.308 12.308 0 013.26-.158.748.748 0 00.072.003h.017a7.506 7.506 0 00-.887 2.075 7.712 7.712 0 01-1.625 2.977zm-18.457 7.247a6.008 6.008 0 00.967-1.547c.006-.017.62-1.547 1.487-2.51a24.106 24.106 0 005.213-2.803 21.933 21.933 0 00-.78 2.057c-1.13 3.466-3.17 4.227-3.383 4.298-1.11.211-2.277.384-3.504.506zm-12.998.002c1.394-.827 2.302-.975 2.33-.98l.013-.002c.005 0 .01 0 .016-.002l4.063-.736a5.593 5.593 0 01-1.636 1.785c-.934-.04-2.84-.104-4.786-.065zm6.607.162a6.705 6.705 0 001.34-2.125 39.782 39.782 0 005.46-1.355c-.232.417-.44.847-.622 1.288-.666 1.509-1.737 2.062-2.033 2.19a45.796 45.796 0 01-4.145.002zm30.884-8.963c-.341.22-.741.334-1.148.326h-1.577a5.047 5.047 0 00-1.046.112c.245-.489.442-1 .588-1.527.358-1.3.86-1.945 1.078-2.179.957.274 1.822.8 2.505 1.525.112.263.43 1.182-.4 1.743z" fill="#fff"/><path d="M17.131 22.852a.636.636 0 00.815-.382c.037-.1.076-.2.118-.299a.635.635 0 10-1.172-.498c-.051.12-.099.242-.143.364a.638.638 0 00.382.815zm16.631 12.587a.632.632 0 00.372-.12l.61-.439a.637.637 0 00-.745-1.033l-.61.438a.637.637 0 00.373 1.154zM22.924 35a.637.637 0 100-1.273.637.637 0 000 1.273zm-6.862 4.882a.637.637 0 10.248.025c-.08-.025-.164-.033-.248-.025zm-3.275-7.36a.637.637 0 10.125 1.267.637.637 0 00-.125-1.267z" fill="#fff"/></svg>