<svg width="24" height="24" fill="none" xmlns="http://www.w3.org/2000/svg"><path d="M21.474 10.992a.68.68 0 00-.092-.327c-.163-.283-.52-.463-1.061-.535a10.504 10.504 0 01-.875-.152 9.671 9.671 0 00-2.5-.223 20.047 20.047 0 00-2.623.272c-1.417.226-4.3.686-6.092.331-.243-.459-.285-.87-.124-1.22.349-.764 1.53-1.121 1.959-1.228.506.774 1.15 1.25 1.915 1.417 1.423.31 2.734-.572 2.79-.61a.239.239 0 00-.136-.435.75.75 0 01-.362-.124 1.552 1.552 0 01-.564-.597c-.487-.898-1.191-1.233-1.595-1.356.822-1.97-.248-3.26-.296-3.315l-.006-.007c-.258-.278-.113-.782-.112-.787a.238.238 0 00-.197-.306.239.239 0 00-.135.021c-1.136.545-1.813 1.558-1.957 2.931a5.9 5.9 0 00.055 1.564 9.31 9.31 0 00-1.645.035c-.216.021-4.314.46-6.133 3.7-.8 1.425-.875 3.136-.2 4.577.55 1.176 1.46 2.08 2.707 2.694a4.89 4.89 0 00-.885 1.31c-.771 1.67-2.4 1.425-2.469 1.413a.24.24 0 00-.204.41c.775.732 1.763 1.164 2.724 1.096 1.823-.13 3.315-1.704 3.872-2.382.229-.283.483-.544.76-.78h.031c1.16-.074 2.646.007 2.657.007l.117.008a3.611 3.611 0 00-1.074 1.202c-.383.688-1.366 2.125-2.886 2.135a1.94 1.94 0 00.754-1.8.238.238 0 10-.475.052A1.51 1.51 0 016.882 21a1.61 1.61 0 01-.884.627.24.24 0 00-.015.464c.278.079.565.12.854.12 1.764 0 2.874-1.61 3.305-2.382a3.089 3.089 0 011.58-1.396c.004 0 .006-.003.008-.004l.224.002c4.842 0 7.769-2.002 8.854-2.918.259-.219.586-.339.924-.34h.591c.248.004.491-.067.698-.203.527-.356.453-.929.324-1.232.009-.365-.05-2.08-1.871-2.746zm-14.61 7.864c-.404.491-1.85 2.102-3.533 2.208-.651.041-1.277-.147-1.868-.56.682-.08 1.7-.425 2.282-1.686.007-.015.657-1.474 1.675-1.729a.239.239 0 00-.116-.463 2.092 2.092 0 00-.715.344c-1.24-.565-2.14-1.423-2.668-2.554-.61-1.302-.541-2.85.184-4.142C3.809 7.24 7.829 6.82 7.87 6.816h.006c.01-.002 1.018-.12 1.855 0a.239.239 0 00.265-.298 5.386 5.386 0 01-.109-1.74c.112-1.04.547-1.815 1.295-2.314 0 .271.097.533.275.738.068.083.993 1.261.103 3.067a.24.24 0 00.192.343c.01.001.952.099 1.538 1.177.172.322.427.591.74.78l.007.004c-.46.21-1.203.452-1.957.287-.678-.148-1.249-.6-1.698-1.343a.24.24 0 00-.248-.112c-.079.015-1.93.375-2.461 1.533-.177.385-.187.807-.033 1.257a1.785 1.785 0 01-.65-.395 1.263 1.263 0 01-.31-.489.239.239 0 10-.453.15c.087.254.232.485.423.674 1.362 1.383 5.516.72 7.748.363l.507-.08c.683-.098 1.37-.16 2.06-.186a9.198 9.198 0 012.377.212c.28.062.588.115.915.159.498.066.634.189.737.386-.112.036-.228.06-.345.07-.19.02-.382.015-.57-.013a6.633 6.633 0 00-3.652.58 5.93 5.93 0 00-2.037 1.632c-.518.637-1.962 2.12-4.164 2.138a.239.239 0 00.002.477h.002c2.404-.019 3.97-1.624 4.53-2.314a5.456 5.456 0 011.873-1.502 6.139 6.139 0 013.381-.537c.228.032.458.037.686.014.18-.015.358-.057.527-.122 1.166.39 1.51 1.256 1.606 1.822a2.63 2.63 0 00-1.401-.45h-.003c-2.652-.231-4.862 1.792-5.033 1.953-1.973 1.588-5.188 1.99-5.22 1.994l-.014.002-1.665.302c-.09.014-.812.144-1.777.948a6.37 6.37 0 00-.857.873zm13.626-3.7c-.64.53-1.34.984-2.084 1.352.195-.314.357-.648.481-.996a.239.239 0 10-.448-.164c-.48 1.31-1.117 1.639-1.133 1.647-.002 0-.003.002-.005.003-.438.17-.885.316-1.339.44a3.69 3.69 0 00.643-1.217c.418-1.279.869-1.712.935-1.77a7.749 7.749 0 011.664-.867 4.03 4.03 0 00-.373.667.233.233 0 00.12.316.276.276 0 00.316-.12c.4-.892.839-1.099.91-1.127a4.619 4.619 0 011.249-.058h.007a2.78 2.78 0 00-.333.778 2.892 2.892 0 01-.61 1.116zm-6.921 2.718c.148-.171.269-.364.36-.572 0-.003.002-.006.003-.008.002-.006.232-.58.557-.941a9.04 9.04 0 001.955-1.051c-.11.252-.208.51-.292.77-.424 1.3-1.19 1.586-1.269 1.613-.416.079-.854.143-1.314.19v-.001zm-4.874 0c.523-.31.863-.365.874-.366l.004-.002h.006l1.524-.276a2.096 2.096 0 01-.613.669 30.255 30.255 0 00-1.795-.024zm2.477.061c.217-.231.387-.502.503-.796a14.86 14.86 0 002.047-.509 4.677 4.677 0 00-.233.484c-.25.565-.651.773-.762.82-.496.024-1.014.026-1.555.002zm11.582-3.36a.766.766 0 01-.43.121h-.592c-.132 0-.263.015-.392.043.091-.184.165-.376.22-.573.134-.487.323-.73.405-.817.358.103.683.3.939.572.042.098.161.443-.15.654z" fill="#fff"/><path d="M6.425 8.57a.239.239 0 00.306-.144c.013-.038.028-.075.044-.112a.239.239 0 00-.44-.187 2.278 2.278 0 00-.053.137.239.239 0 00.143.305zm6.235 4.72c.051 0 .1-.016.14-.045l.229-.165a.238.238 0 00-.28-.387l-.228.164a.238.238 0 000 .387c.04.03.09.046.14.046zm-4.064-.165a.239.239 0 100-.477.239.239 0 000 .477zm-2.572 1.831a.238.238 0 00-.128.422.24.24 0 10.22-.413c-.03-.01-.06-.012-.092-.01zm-1.229-2.76a.24.24 0 10.048.476.24.24 0 00-.048-.476z" fill="#fff"/></svg>