<svg width="18" height="18" viewBox="0 0 18 18" fill="none" xmlns="http://www.w3.org/2000/svg">
<g clip-path="url(#clip0_2638_42435)">
<path d="M10.2481 10.0964C10.2212 10.0964 10.1953 10.0871 10.1745 10.0675C10.1329 10.0276 10.132 9.9621 10.1719 9.92129C10.3313 9.75973 10.5116 9.64069 10.7083 9.56756C10.9605 9.47318 11.1511 9.48253 11.6113 9.50464C11.7067 9.50889 11.8133 9.51399 11.9355 9.51909C12.0611 9.5242 12.3783 9.5361 12.6088 9.5378C12.8342 9.5395 13.2189 9.53185 13.966 9.44427C14.5908 9.37114 15.0033 9.32267 15.5788 9.19853C15.5875 9.19683 16.4905 8.99701 17.4576 8.47408C17.5417 8.42901 17.7956 8.29126 17.7878 8.19773C17.7809 8.11185 17.5616 8.01406 17.4039 7.9758C16.416 8.02682 15.4393 8.13225 14.5007 8.28956C14.4114 8.30487 12.3003 8.65264 11.1407 8.43071C10.5419 8.31592 10.1632 7.9843 10.1476 7.96985C10.1311 7.95539 10.1173 7.94264 10.1103 7.93584C10.0687 7.89587 10.067 7.83125 10.1077 7.78958C10.1476 7.74877 10.2143 7.74707 10.2568 7.78703C10.2637 7.79299 10.275 7.80404 10.2897 7.81679C10.2932 7.82019 10.6433 8.1246 11.1815 8.22749C12.3029 8.44176 14.4444 8.08889 14.466 8.08549C15.4167 7.92648 16.4073 7.82019 17.4091 7.76833C17.4186 7.76833 17.429 7.76833 17.4386 7.77088C17.5278 7.79128 17.9759 7.90693 17.9984 8.18072C18.0166 8.4069 17.7306 8.56166 17.5599 8.65434C16.6534 9.14411 15.7772 9.36774 15.6247 9.39835C15.0389 9.52675 14.622 9.57521 13.9911 9.64919C13.2319 9.73847 12.8376 9.74612 12.6071 9.74357C12.3731 9.74187 12.0533 9.72997 11.9268 9.72487C11.8037 9.71977 11.6963 9.71466 11.6009 9.71041C11.1598 9.68915 10.9943 9.68065 10.7837 9.75973C10.6164 9.82265 10.4613 9.92469 10.3235 10.0641C10.3027 10.0854 10.275 10.0956 10.2481 10.0956V10.0964Z" fill="#0D2936"/>
<path d="M6.80819 8.97406C6.79086 8.97406 6.77352 8.96981 6.75706 8.9613C6.70593 8.93324 6.68773 8.87117 6.71546 8.821C6.77959 8.70706 6.80559 8.59823 6.79259 8.49704C6.74579 8.12886 6.19981 7.89078 5.99355 7.80149L5.97535 7.79384C5.95109 7.78364 3.51238 6.6961 1.52432 3.84505C1.34492 3.58741 1.32066 3.37313 1.30853 3.27025L1.30593 3.24729C1.27386 2.99305 1.39952 2.78642 1.46625 2.67504C1.49312 2.62997 1.55118 2.61211 1.59971 2.63337C1.74098 2.69459 1.87877 2.76687 2.00963 2.8485C2.24536 2.99475 2.46375 3.17246 2.65701 3.37653C3.03313 3.77277 3.45518 4.12905 3.86423 4.47427C4.13202 4.70045 4.40848 4.93428 4.6702 5.17662C5.47357 5.92233 6.5898 6.56431 7.98681 7.08554C8.04141 7.10595 8.06828 7.16547 8.04748 7.21904C8.02668 7.27261 7.96601 7.29897 7.91142 7.27856C6.4884 6.74712 5.34964 6.09069 4.52547 5.32627C4.26722 5.08734 3.99249 4.85435 3.72644 4.62987C3.31305 4.28125 2.88667 3.92072 2.50708 3.52108C2.43515 3.44541 2.22976 3.22858 1.89697 3.02281C1.80164 2.96329 1.70198 2.90972 1.60058 2.86125C1.54772 2.95733 1.49745 3.08148 1.51565 3.22178L1.51825 3.24814C1.52865 3.34082 1.54858 3.51428 1.69851 3.72941C3.65364 6.53285 6.03775 7.59572 6.06115 7.60592L6.07935 7.61358C6.31507 7.71561 6.94078 7.98771 7.00232 8.47238C7.02051 8.61778 6.98672 8.76913 6.90005 8.92134C6.88099 8.95535 6.84459 8.97491 6.80819 8.97491V8.97406Z" fill="#0D2936"/>
<path d="M10.1249 7.83125C10.1188 7.83125 10.1128 7.83125 10.1067 7.82955C10.0495 7.81935 10.0114 7.76578 10.0209 7.70966C10.2948 6.18507 10.566 4.86966 10.8269 3.79998C11.2247 2.1674 11.2671 1.99649 11.2827 1.96418C11.2853 1.95908 11.5418 1.41659 11.6372 0.54503C11.6458 0.469353 11.6493 0.360515 11.5869 0.293341C11.5583 0.262731 11.5167 0.241473 11.4621 0.230419C11.4587 0.230419 11.4552 0.228719 11.4517 0.227868C11.3772 0.20491 11.307 0.200659 11.2429 0.214263C11.1666 0.231269 11.0401 0.352862 10.8676 0.576491C10.0209 1.67338 9.67512 3.05852 9.3406 4.39774C9.19847 4.96574 9.05201 5.5533 8.86828 6.11535C8.86222 6.13405 8.85528 6.15786 8.84748 6.18507C8.80068 6.34833 8.71402 6.65359 8.47223 6.93078C8.39337 7.02092 8.30497 7.10254 8.20791 7.17482C8.16111 7.20968 8.09524 7.20033 8.06058 7.15441C8.02505 7.1085 8.03458 7.04387 8.08138 7.00986C8.16631 6.94694 8.24431 6.87466 8.31277 6.79644C8.52423 6.5541 8.60049 6.28796 8.64556 6.1298C8.65422 6.10004 8.66116 6.07368 8.66809 6.05242C8.84922 5.49803 8.99481 4.91387 9.13607 4.34927C9.47579 2.98964 9.82678 1.58325 10.7003 0.452347C10.9187 0.170048 11.0626 0.0425028 11.1978 0.0127423C11.2975 -0.00936547 11.4032 -0.00341337 11.5107 0.028898C11.606 0.0493052 11.684 0.0909699 11.742 0.153892C11.8755 0.297593 11.8538 0.500814 11.846 0.567138C11.7464 1.47611 11.4838 2.02965 11.4725 2.05261C11.4578 2.09853 11.2975 2.75581 11.0314 3.84504C10.7705 4.91387 10.5002 6.22503 10.2272 7.74537C10.2185 7.79554 10.1734 7.8304 10.1232 7.8304L10.1249 7.83125Z" fill="#0D2936"/>
<path d="M0.842847 13.9075C0.436395 13.9075 0.13394 13.7647 0.0100111 13.5045C-0.0081882 13.4662 -0.00125513 13.422 0.0282104 13.3914C1.03264 12.3158 2.35339 11.5913 3.63081 10.8915C4.67077 10.3218 5.7454 9.73255 6.6415 8.95708C6.68483 8.91967 6.75156 8.92307 6.79056 8.96643C6.82869 9.00895 6.82522 9.07442 6.78103 9.11268C5.86759 9.90261 4.78257 10.497 3.73307 11.0726C2.49205 11.7529 1.2103 12.4552 0.234469 13.4764C0.433795 13.7596 0.956376 13.7043 1.1193 13.6796C2.50419 13.4662 3.73307 12.7035 4.92123 11.9663C5.42561 11.6534 5.94646 11.3303 6.4751 11.0505L6.50717 11.0335C6.64583 10.9587 6.93442 10.8039 7.32787 10.7342C7.54367 10.6959 7.76552 10.6866 7.98738 10.7061C8.04545 10.7112 8.08791 10.7614 8.08271 10.8184C8.07751 10.8754 8.02638 10.917 7.96832 10.9119C7.76552 10.8941 7.56186 10.9034 7.36427 10.9374C7.00462 11.0012 6.74636 11.1398 6.60683 11.2146L6.57303 11.2325C6.05045 11.5088 5.53221 11.8302 5.03129 12.1406C3.82494 12.8889 2.57785 13.6626 1.14964 13.8829C1.04044 13.8999 0.93731 13.9075 0.83938 13.9075H0.842847Z" fill="#0D2936"/>
<path d="M11.76 18C11.4757 18 11.1637 17.8138 10.8882 17.4694C9.99552 16.353 9.62027 14.9534 9.25715 13.5988C9.10636 13.0368 8.95036 12.4552 8.7597 11.9034C8.75277 11.8821 8.74497 11.8566 8.73544 11.8268C8.68777 11.6687 8.60717 11.4051 8.39138 11.1653C8.32118 11.0879 8.24232 11.0173 8.15652 10.9553C8.10973 10.9221 8.09933 10.8566 8.13313 10.8107C8.16779 10.7648 8.23365 10.7546 8.28045 10.7878C8.37838 10.8583 8.46938 10.9383 8.54911 11.0275C8.7961 11.3013 8.88796 11.604 8.93736 11.7665C8.94516 11.7937 8.95296 11.8166 8.95903 11.8353C9.15229 12.394 9.30915 12.979 9.46081 13.5444C9.81873 14.8777 10.1879 16.2569 11.0537 17.3393C11.1559 17.4669 11.5 17.8563 11.8423 17.7823C11.838 16.3827 11.3873 15.0112 10.9514 13.6839C10.5831 12.5615 10.2018 11.4008 10.0822 10.2121C10.0761 10.1551 10.1186 10.105 10.1767 10.099C10.2347 10.0931 10.2858 10.1347 10.2919 10.1917C10.4098 11.3583 10.7868 12.5079 11.1525 13.6201C11.6014 14.9865 12.065 16.3997 12.0529 17.8589C12.0529 17.9005 12.0269 17.9379 11.987 17.9541C11.9143 17.983 11.838 17.9975 11.7591 17.9975L11.76 18Z" fill="#0D2936"/>
<path d="M11.0421 1.43954C10.9901 1.43954 10.9407 1.42594 10.8991 1.39958C10.7518 1.3052 10.7674 1.09942 10.8133 0.984634C10.8627 0.861341 10.9832 0.733796 11.1305 0.74655C11.2007 0.752502 11.2466 0.788215 11.2648 0.80182C11.3862 0.894502 11.4503 1.10198 11.3524 1.26183C11.3012 1.34516 11.212 1.40893 11.114 1.43104C11.0898 1.43614 11.0655 1.43954 11.0421 1.43954ZM11.0144 1.22612C11.0256 1.23292 11.0447 1.23462 11.0664 1.22952C11.108 1.22017 11.1504 1.19041 11.1721 1.15554C11.2137 1.08752 11.1773 0.997389 11.1348 0.964227C11.1279 0.959125 11.1201 0.952323 11.1123 0.952323C11.088 0.948922 11.0334 1.00079 11.0101 1.06031C10.9867 1.11898 10.9841 1.20741 11.0144 1.22697V1.22612Z" fill="#0D2936"/>
<path d="M10.7775 2.32475C10.7342 2.32475 10.6909 2.31284 10.6554 2.28903C10.599 2.25162 10.5635 2.187 10.5592 2.11217C10.554 2.03139 10.5852 1.95402 10.6424 1.9047C10.6961 1.85878 10.7741 1.83752 10.8503 1.84858C10.9136 1.85793 10.9647 1.88769 10.9925 1.93276C11.0098 1.95912 11.0167 1.99228 11.015 2.0399C11.0124 2.10707 11.0089 2.21931 10.911 2.28393C10.8711 2.31029 10.8243 2.3239 10.7784 2.3239L10.7775 2.32475ZM10.7732 2.11727C10.7775 2.11727 10.7871 2.11727 10.7914 2.11387C10.7983 2.10707 10.8009 2.07646 10.8018 2.0535C10.7931 2.0535 10.7845 2.0569 10.7793 2.06115C10.7663 2.07306 10.7645 2.10707 10.7723 2.11812L10.7732 2.11727Z" fill="#0D2936"/>
<path d="M10.318 3.86373C10.2729 3.86373 10.2279 3.85268 10.188 3.82972C10.078 3.7668 10.0502 3.63925 10.0606 3.54912C10.0736 3.43178 10.1542 3.36376 10.2071 3.31954C10.2452 3.28723 10.292 3.25407 10.3553 3.25067C10.4367 3.24556 10.5182 3.29488 10.5572 3.37396C10.5884 3.43773 10.5884 3.4947 10.5841 3.54742C10.5763 3.6384 10.565 3.76255 10.4506 3.82887C10.4107 3.85183 10.3639 3.86373 10.318 3.86373ZM10.2937 3.65116C10.3093 3.65966 10.331 3.65796 10.3431 3.65116C10.3648 3.6384 10.37 3.57803 10.3743 3.52871C10.3778 3.4913 10.3743 3.47855 10.3683 3.46409C10.3683 3.46239 10.3665 3.46154 10.3657 3.45984C10.3622 3.46239 10.357 3.46579 10.3492 3.47259C10.3015 3.51341 10.2738 3.53722 10.2703 3.57208C10.2686 3.58398 10.2695 3.6367 10.2937 3.65031V3.65116Z" fill="#0D2936"/>
<path d="M9.41961 6.62042C9.38407 6.62042 9.34941 6.61362 9.31648 6.59661C9.22808 6.55155 9.17348 6.44356 9.16828 6.30666C9.16395 6.18252 9.20381 6.02351 9.32774 5.94954C9.43434 5.88576 9.6068 5.88491 9.69433 5.98525C9.72726 6.02266 9.73766 6.06348 9.74459 6.10259C9.76539 6.21908 9.79313 6.37894 9.6744 6.50478C9.61287 6.57025 9.51407 6.62127 9.41961 6.62127V6.62042ZM9.41354 6.41295C9.42827 6.41805 9.4846 6.40019 9.52014 6.36278C9.56433 6.31602 9.55567 6.24289 9.53747 6.1366C9.53487 6.1213 9.53314 6.11619 9.53227 6.11619C9.52274 6.10939 9.46727 6.10769 9.43694 6.12555C9.40314 6.14595 9.37887 6.21398 9.37801 6.2871C9.37801 6.36618 9.40401 6.407 9.41267 6.41295H9.41354Z" fill="#0D2936"/>
<path d="M9.44441 7.27092C9.42794 7.27092 9.41147 7.26752 9.39587 7.25902L9.06482 7.08896C9.01282 7.0626 8.99289 7.00053 9.01975 6.94951C9.04662 6.89934 9.10988 6.87893 9.16188 6.90529L9.49294 7.07535C9.54494 7.10171 9.56487 7.16378 9.538 7.2148C9.51894 7.25052 9.48254 7.27007 9.44441 7.27007V7.27092Z" fill="#0D2936"/>
<path d="M9.15171 8.19689C9.14391 8.19689 9.13611 8.19689 9.12831 8.19434C8.96365 8.15863 8.82239 8.04809 8.74873 7.90014C8.7236 7.84912 8.74526 7.78705 8.79813 7.76239C8.85012 7.73773 8.91339 7.75899 8.93852 7.81085C8.98359 7.90184 9.07372 7.97156 9.17425 7.99367C9.23144 8.00642 9.26698 8.06169 9.25398 8.11696C9.24271 8.16543 9.19938 8.19774 9.15085 8.19774L9.15171 8.19689Z" fill="#0D2936"/>
<path d="M7.94548 8.71645C7.91342 8.71645 7.88222 8.70285 7.86142 8.67564C7.82589 8.63057 7.83542 8.5651 7.88135 8.53109C7.93942 8.48772 7.98188 8.42565 8.00095 8.35678C8.01655 8.30151 8.07375 8.26919 8.13008 8.2845C8.18641 8.29981 8.21934 8.35592 8.20374 8.41119C8.17254 8.52343 8.10321 8.62462 8.00875 8.69519C7.98968 8.70965 7.96715 8.71645 7.94462 8.71645H7.94548Z" fill="#0D2936"/>
<path d="M7.21034 7.9418C7.16007 7.9418 7.11587 7.90694 7.10721 7.85677C7.09681 7.80065 7.13407 7.74708 7.19214 7.73603C7.25974 7.72412 7.3256 7.68756 7.37066 7.63739C7.40966 7.59488 7.47553 7.59063 7.51973 7.62889C7.56306 7.66715 7.56739 7.73178 7.52839 7.77514C7.45126 7.86102 7.34466 7.91969 7.23027 7.9401C7.2242 7.94095 7.21727 7.9418 7.2112 7.9418H7.21034Z" fill="#0D2936"/>
<path d="M9.30284 9.22322C9.25518 9.22322 9.21184 9.19176 9.20058 9.14414C9.18065 9.06081 9.18325 8.97408 9.21011 8.8933C9.22744 8.83888 9.28724 8.80912 9.34271 8.82613C9.39817 8.84314 9.4285 8.90181 9.41117 8.95623C9.39644 9.00044 9.3947 9.05061 9.40597 9.09568C9.41984 9.15094 9.38517 9.20706 9.32797 9.22067C9.31931 9.22237 9.31151 9.22322 9.30284 9.22322Z" fill="#0D2936"/>
<path d="M10.6582 9.19686C10.6088 9.19686 10.5646 9.162 10.555 9.11268L10.5056 8.85249C10.4952 8.79637 10.5325 8.7428 10.5897 8.73175C10.6469 8.72154 10.7015 8.75811 10.7128 8.81423L10.7622 9.07442C10.7726 9.13054 10.7353 9.18411 10.6781 9.19516C10.672 9.19601 10.6651 9.19686 10.659 9.19686H10.6582Z" fill="#0D2936"/>
<path d="M8.47753 9.60838C8.47753 9.60838 8.4706 9.60838 8.46713 9.60838C8.34754 9.59733 8.24701 9.50124 8.23141 9.38475C8.22361 9.32778 8.26521 9.27676 8.32241 9.26911C8.3796 9.26146 8.43247 9.30227 8.44027 9.35839C8.44287 9.3788 8.4654 9.40091 8.48707 9.40261C8.54513 9.40771 8.5876 9.45873 8.5824 9.51485C8.5772 9.56842 8.53127 9.60838 8.47753 9.60838Z" fill="#0D2936"/>
<path d="M8.34721 10.3235C8.33768 10.3235 8.32728 10.3218 8.31774 10.3192C8.17821 10.2793 8.07595 10.1475 8.07422 10.0046C8.07422 9.94764 8.12015 9.90087 8.17821 9.90002H8.17908C8.23715 9.90002 8.28394 9.94594 8.28481 10.0021C8.28481 10.0539 8.32554 10.1058 8.37667 10.1203C8.43214 10.1364 8.46507 10.1934 8.4486 10.2486C8.43561 10.2937 8.39314 10.3235 8.34721 10.3235Z" fill="#0D2936"/>
<path d="M4.27508 11.934C4.23954 11.934 4.20488 11.9263 4.17195 11.9101C4.08355 11.8651 4.02808 11.7571 4.02375 11.6193C4.01942 11.4952 4.05928 11.3362 4.18321 11.2622C4.28981 11.1984 4.46227 11.1976 4.5498 11.2979C4.58273 11.3353 4.59313 11.3762 4.60006 11.4153C4.62 11.5318 4.6486 11.6916 4.52987 11.8175C4.46747 11.8829 4.36954 11.934 4.27508 11.934ZM4.26901 11.7265C4.28374 11.7316 4.34007 11.7137 4.37561 11.6763C4.4198 11.6295 4.41114 11.5564 4.39294 11.4501C4.39034 11.4348 4.3886 11.4297 4.38774 11.4289C4.37821 11.4221 4.32274 11.4204 4.29241 11.4382C4.25861 11.4586 4.23348 11.5267 4.23348 11.5998C4.23348 11.678 4.25948 11.7197 4.26814 11.7256L4.26901 11.7265Z" fill="#0D2936"/>
<path d="M16.9235 8.54464C16.8784 8.54464 16.8333 8.53359 16.7935 8.51063C16.6834 8.44771 16.6557 8.32016 16.6661 8.23003C16.6791 8.11269 16.7597 8.04466 16.8126 8.00045C16.8507 7.96814 16.8975 7.93498 16.9607 7.93157C17.0431 7.92647 17.1237 7.97579 17.1627 8.05487C17.1939 8.11864 17.1939 8.17561 17.1895 8.22748C17.1817 8.31846 17.1705 8.44261 17.0561 8.50978C17.0162 8.53274 16.9694 8.54464 16.9235 8.54464ZM16.8992 8.33207C16.9148 8.34057 16.9365 8.33887 16.9486 8.33207C16.9703 8.31931 16.9755 8.25894 16.9798 8.20962C16.9833 8.17221 16.9798 8.15946 16.9737 8.145C16.9737 8.1433 16.972 8.14245 16.9711 8.1416C16.9677 8.14415 16.9625 8.14755 16.9547 8.15435C16.907 8.19517 16.8793 8.21898 16.8758 8.25384C16.8741 8.26574 16.8749 8.31846 16.8992 8.33207Z" fill="#0D2936"/>
<path d="M16.2619 8.68498C16.2186 8.68498 16.1753 8.67307 16.1397 8.64926C16.0834 8.61185 16.0479 8.54723 16.0435 8.4724C16.0383 8.39162 16.0695 8.31425 16.1259 8.26493C16.1796 8.21901 16.2576 8.19775 16.3339 8.20881C16.3971 8.21816 16.4482 8.24792 16.476 8.29299C16.4933 8.32105 16.5002 8.35336 16.4985 8.40013C16.4959 8.4673 16.4924 8.57954 16.3945 8.64416C16.3547 8.67052 16.3079 8.68413 16.2619 8.68413V8.68498ZM16.2576 8.47835C16.2619 8.47835 16.2715 8.47835 16.2758 8.47495C16.2827 8.46815 16.2853 8.43754 16.2862 8.41458C16.2775 8.41458 16.2689 8.41798 16.2637 8.42223C16.2507 8.43329 16.2498 8.46815 16.2567 8.4792L16.2576 8.47835Z" fill="#0D2936"/>
<path d="M14.947 9.06419C14.9019 9.06419 14.8568 9.05313 14.817 9.03018C14.706 8.96725 14.6792 8.83971 14.6896 8.74958C14.7026 8.63224 14.7832 8.56421 14.836 8.51915C14.8742 8.48683 14.921 8.45367 14.9842 8.45027C15.0665 8.44602 15.148 8.49449 15.1861 8.57356C15.2173 8.63734 15.2173 8.69431 15.213 8.74618C15.2052 8.83716 15.1939 8.9613 15.0795 9.02762C15.0397 9.05058 14.9929 9.06249 14.947 9.06249V9.06419ZM14.9227 8.85161C14.9383 8.86012 14.9608 8.85841 14.9721 8.85161C14.9938 8.83886 14.999 8.77849 15.0033 8.72917C15.0068 8.69176 15.0033 8.679 14.9972 8.66455C14.9972 8.66285 14.9955 8.662 14.9946 8.66115C14.9912 8.6637 14.986 8.6671 14.9782 8.6739C14.9305 8.71471 14.9036 8.73852 14.8993 8.77339C14.8976 8.78529 14.8984 8.83801 14.9227 8.85161Z" fill="#0D2936"/>
<path d="M3.58614 12.087C3.54281 12.087 3.49948 12.0751 3.46395 12.0513C3.40761 12.0139 3.37208 11.9493 3.36775 11.8744C3.36255 11.7937 3.39375 11.7163 3.45008 11.667C3.50381 11.6211 3.58181 11.5998 3.65807 11.6108C3.72134 11.6202 3.77247 11.65 3.8002 11.695C3.81753 11.7214 3.82447 11.7545 3.82273 11.8022C3.82013 11.8693 3.81667 11.9816 3.71874 12.0462C3.67887 12.0726 3.63207 12.0862 3.58614 12.0862V12.087ZM3.58181 11.8804C3.58614 11.8804 3.59567 11.8804 3.60001 11.877C3.60694 11.8702 3.60954 11.8396 3.61127 11.8166C3.60261 11.8166 3.59394 11.82 3.58874 11.8243C3.57574 11.8362 3.57487 11.8702 3.58181 11.8812V11.8804Z" fill="#0D2936"/>
<path d="M2.11243 13.0717C2.06043 13.0717 2.01103 13.0581 1.96943 13.0317C1.82211 12.9373 1.83771 12.7316 1.88364 12.6168C1.93303 12.4935 2.05263 12.3659 2.20082 12.3787C2.27016 12.3846 2.31695 12.4204 2.33429 12.434C2.45562 12.5266 2.51975 12.7341 2.42268 12.894C2.37155 12.9773 2.28229 13.0411 2.18436 13.0632C2.16009 13.0683 2.13583 13.0717 2.11243 13.0717ZM2.18089 12.5845C2.15489 12.5845 2.10376 12.6338 2.08036 12.6925C2.05696 12.7511 2.05436 12.8396 2.08556 12.8591C2.09683 12.8659 2.11589 12.8676 2.13756 12.8625C2.17916 12.8532 2.22162 12.8234 2.24242 12.7885C2.28402 12.7205 2.24849 12.6295 2.20516 12.5972C2.19909 12.5921 2.19043 12.5853 2.18263 12.5853C2.18263 12.5853 2.18176 12.5853 2.18089 12.5853V12.5845Z" fill="#0D2936"/>
<path d="M6.19055 7.41379C6.13855 7.41379 6.08916 7.40018 6.04756 7.37382C5.90023 7.27944 5.91583 7.07367 5.96176 6.95888C6.01116 6.83558 6.13249 6.70804 6.27895 6.72079C6.34828 6.72675 6.39508 6.76246 6.41241 6.77606C6.53374 6.8696 6.59787 7.07622 6.50081 7.23607C6.44968 7.3194 6.36041 7.38318 6.26248 7.40528C6.23822 7.41039 6.21395 7.41379 6.19055 7.41379ZM6.16282 7.20036C6.17409 7.20802 6.19315 7.20887 6.21482 7.20376C6.25642 7.19441 6.29888 7.16465 6.31968 7.12979C6.36128 7.06176 6.32488 6.97163 6.28242 6.93847C6.27635 6.93337 6.26768 6.92657 6.25988 6.92657C6.23302 6.92316 6.18102 6.97418 6.15762 7.03455C6.13422 7.09322 6.13162 7.18166 6.16282 7.20121V7.20036Z" fill="#0D2936"/>
<path d="M9.63587 11.5964C9.58387 11.5964 9.53447 11.5828 9.49287 11.5564C9.34554 11.4621 9.36114 11.2563 9.40707 11.1415C9.45647 11.0182 9.5752 10.8907 9.72426 10.9034C9.79359 10.9094 9.84039 10.9451 9.85772 10.9587C9.97905 11.0514 10.0432 11.2588 9.94612 11.4187C9.89499 11.5029 9.80573 11.5658 9.70693 11.5879C9.68266 11.593 9.6584 11.5964 9.635 11.5964H9.63587ZM9.60813 11.383C9.6194 11.3898 9.63847 11.3915 9.66013 11.3864C9.70173 11.377 9.74419 11.3473 9.76586 11.3124C9.80746 11.2444 9.77106 11.1542 9.7286 11.1211C9.72253 11.116 9.713 11.1092 9.70606 11.1092C9.6844 11.1058 9.6272 11.1568 9.6038 11.2172C9.5804 11.2758 9.5778 11.3643 9.609 11.3838L9.60813 11.383Z" fill="#0D2936"/>
<path d="M11.0968 16.6855C11.0448 16.6855 10.9954 16.6718 10.9538 16.6455C10.8065 16.5511 10.8221 16.3453 10.868 16.2305C10.9174 16.1073 11.0379 15.9797 11.1852 15.9925C11.2545 15.9984 11.3013 16.0341 11.3187 16.0477C11.44 16.1404 11.5041 16.3479 11.4071 16.5077C11.3559 16.5911 11.2667 16.6548 11.1687 16.677C11.1445 16.6821 11.1202 16.6855 11.0968 16.6855ZM11.0691 16.472C11.0803 16.4797 11.0994 16.4805 11.1211 16.4754C11.1627 16.4661 11.2051 16.4363 11.2259 16.4015C11.2675 16.3334 11.232 16.2424 11.1887 16.2101C11.1826 16.205 11.1739 16.1982 11.1661 16.1982C11.1427 16.194 11.0873 16.2459 11.0639 16.3062C11.0405 16.3649 11.0379 16.4533 11.0691 16.4729V16.472Z" fill="#0D2936"/>
<path d="M10.1813 14.1966C10.1458 14.1966 10.1111 14.1889 10.0782 14.1728C9.9898 14.1277 9.93433 14.0197 9.93 13.882C9.92567 13.7578 9.96553 13.5988 10.0895 13.5249C10.1961 13.4611 10.3685 13.4602 10.456 13.5606C10.489 13.598 10.4994 13.6388 10.5063 13.6779C10.5271 13.7944 10.5548 13.9543 10.4361 14.0801C10.3746 14.1456 10.2758 14.1966 10.1813 14.1966ZM10.1753 13.9891C10.19 13.9942 10.2463 13.9764 10.2819 13.9389C10.3261 13.8922 10.3174 13.8191 10.2992 13.7128C10.2966 13.6975 10.2949 13.6924 10.294 13.6915C10.2845 13.6847 10.229 13.683 10.1987 13.7009C10.1649 13.7213 10.1397 13.7893 10.1397 13.8624C10.1397 13.9406 10.1657 13.9823 10.1744 13.9883L10.1753 13.9891Z" fill="#0D2936"/>
<path d="M9.96114 13.2443C9.91781 13.2443 9.87448 13.2324 9.83895 13.2086C9.78261 13.1712 9.74708 13.1066 9.74275 13.0317C9.73755 12.9509 9.76875 12.8736 9.82508 12.8243C9.87881 12.7783 9.95681 12.7571 10.0331 12.7681C10.0963 12.7775 10.1475 12.8072 10.1752 12.8523C10.1925 12.8787 10.1995 12.9118 10.1977 12.9595C10.1951 13.0266 10.1917 13.1389 10.0937 13.2035C10.0539 13.2298 10.0071 13.2435 9.96114 13.2435V13.2443ZM9.95681 13.0368C9.96114 13.0368 9.97067 13.0368 9.97501 13.0334C9.98194 13.0266 9.98454 12.996 9.98541 12.9731C9.97674 12.9731 9.96807 12.9765 9.96287 12.9807C9.94987 12.9926 9.94901 13.0266 9.95594 13.0377L9.95681 13.0368Z" fill="#0D2936"/>
<path d="M2.31661 4.08482C2.27328 4.08482 2.22995 4.07291 2.19441 4.04911C2.13808 4.01169 2.10255 3.94707 2.09822 3.87224C2.09302 3.79146 2.12422 3.71409 2.18055 3.66477C2.23428 3.61885 2.31228 3.5976 2.38854 3.60865C2.4518 3.618 2.50207 3.64776 2.53067 3.69283C2.548 3.72004 2.55493 3.7532 2.5532 3.79997C2.5506 3.86714 2.54713 3.97938 2.4492 4.044C2.40934 4.07036 2.36254 4.08397 2.31661 4.08397V4.08482ZM2.31228 3.87819C2.31748 3.87819 2.32614 3.87819 2.33048 3.87479C2.33741 3.86799 2.34001 3.83738 2.34088 3.81442C2.33221 3.81442 2.32354 3.81782 2.31834 3.82208C2.30534 3.83313 2.30448 3.86799 2.31141 3.87905L2.31228 3.87819Z" fill="#0D2936"/>
<path d="M2.83118 4.90536C2.77918 4.90536 2.72978 4.89176 2.68818 4.8654C2.54086 4.77102 2.55646 4.56524 2.60239 4.45045C2.65178 4.32716 2.77051 4.19962 2.91957 4.21237C2.98891 4.21832 3.0357 4.25404 3.05304 4.26764C3.17437 4.36032 3.2385 4.5678 3.14143 4.72765C3.0903 4.81098 3.00104 4.87475 2.90311 4.89686C2.87884 4.90196 2.85458 4.90536 2.83118 4.90536ZM2.89964 4.41814C2.87364 4.41814 2.82165 4.46746 2.79825 4.52613C2.77485 4.5848 2.77225 4.67323 2.80345 4.69279C2.81471 4.69959 2.83378 4.70129 2.85544 4.69619C2.89704 4.68684 2.93951 4.65708 2.96031 4.62222C3.00191 4.55419 2.96637 4.46321 2.92304 4.4309C2.91697 4.4258 2.90744 4.41899 2.90051 4.41899C2.90051 4.41899 2.89964 4.41899 2.89878 4.41899L2.89964 4.41814Z" fill="#0D2936"/>
<path d="M3.66712 5.71575C3.61512 5.71575 3.56572 5.70214 3.52412 5.67578C3.37679 5.5814 3.39239 5.37563 3.43832 5.26084C3.48772 5.13754 3.60818 5.01085 3.75551 5.02275C3.82571 5.0287 3.87164 5.06442 3.88984 5.07802C4.01117 5.1707 4.0753 5.37818 3.97737 5.53803C3.92624 5.62136 3.83698 5.68514 3.73905 5.70724C3.71478 5.71234 3.69052 5.71575 3.66712 5.71575ZM3.63938 5.50232C3.65065 5.50912 3.66972 5.51082 3.69138 5.50572C3.73298 5.49637 3.77545 5.46661 3.79711 5.43175C3.83871 5.36372 3.80231 5.27359 3.75985 5.24043C3.75291 5.23533 3.74511 5.22852 3.73731 5.22852C3.71305 5.22427 3.65845 5.27699 3.63505 5.33651C3.61165 5.39518 3.60905 5.48361 3.63938 5.50317V5.50232Z" fill="#0D2936"/>
</g>
<defs>
<clipPath id="clip0_2638_42435">
<rect width="18" height="18" fill="white"/>
</clipPath>
</defs>
</svg>
