<svg width="666" height="594" fill="none" xmlns="http://www.w3.org/2000/svg"><path d="M608.509 267.682a19.802 19.802 0 00-2.669-9.514c-4.722-8.226-15.11-13.461-30.852-15.561-9.109-1.215-17.674-2.704-25.456-4.424a281.266 281.266 0 00-72.722-6.483 583.207 583.207 0 00-61.383 5.567c-4.311.655-9.318 1.454-14.869 2.343-41.223 6.581-125.092 19.969-177.185 9.649-7.077-13.361-8.296-25.299-3.62-35.516 10.154-22.191 44.533-32.587 56.98-35.687 14.734 22.511 33.463 36.364 55.713 41.201 41.385 8.994 79.504-16.629 81.107-17.721a6.947 6.947 0 00.203-11.319 6.944 6.944 0 00-4.12-1.358 21.8 21.8 0 01-10.529-3.587 45.127 45.127 0 01-16.405-17.365c-14.182-26.13-34.654-35.871-46.413-39.439 23.933-57.325-7.186-94.793-8.588-96.43l-.191-.204c-7.505-8.085-3.284-22.74-3.245-22.864a6.943 6.943 0 00-9.649-8.286c-33.053 15.822-52.734 45.299-56.926 85.238a171.568 171.568 0 001.591 45.475 270.763 270.763 0 00-47.834 1.027c-6.278.616-125.46 13.393-178.355 107.588-23.28 41.457-25.457 91.231-5.826 133.142 16.013 34.193 42.485 60.506 78.718 78.35a142.121 142.121 0 00-25.742 38.078c-22.416 48.564-69.8 41.439-71.792 41.112a6.946 6.946 0 00-5.93 11.893c22.524 21.309 51.26 33.863 79.204 31.888 53.023-3.746 96.425-49.552 112.612-69.264a174.1 174.1 0 0122.116-22.708c.302.03.606.041.91.031 33.707-2.149 76.936.185 77.264.206 1.142.08 2.258.135 3.396.205a104.818 104.818 0 00-31.215 34.984c-11.154 20.01-39.731 61.794-83.945 62.091a56.397 56.397 0 0021.921-52.387 6.95 6.95 0 00-2.528-4.737 6.957 6.957 0 00-5.15-1.518 6.94 6.94 0 00-5.93 5.051 6.958 6.958 0 00-.196 2.732 43.904 43.904 0 01-6.844 29.589 46.832 46.832 0 01-25.697 18.236 6.947 6.947 0 00-5.501 6.571 6.942 6.942 0 005.068 6.911 91.911 91.911 0 0024.824 3.529c51.293 0 83.584-46.836 96.111-69.314a89.783 89.783 0 0130.716-32.82c4.867-3 9.973-5.595 15.266-7.758.082-.035.149-.086.229-.123 2.172.026 4.346.057 6.494.057 140.819 0 225.949-58.215 257.519-84.879a41.703 41.703 0 0126.858-9.854h17.194a36.05 36.05 0 0020.303-5.933c15.311-10.338 13.186-27.015 9.413-35.838.263-10.616-1.425-60.486-54.423-79.853zM183.603 496.4c-11.73 14.282-53.803 61.134-102.752 64.216-18.92 1.191-37.123-4.276-54.327-16.272 19.858-2.35 49.454-12.379 66.386-49.065.187-.427 19.103-42.87 48.715-50.272a6.946 6.946 0 00-3.367-13.476 60.91 60.91 0 00-20.813 10.018c-36.08-16.44-62.204-41.405-77.601-74.285-17.738-37.863-15.734-82.89 5.358-120.448C94.77 158.539 211.696 146.353 212.87 146.242c.031 0 .057-.014.088-.019.031-.004.06 0 .088 0 .296-.034 29.6-3.502 53.964-.018a6.949 6.949 0 007.735-5.266 6.946 6.946 0 00-.038-3.387 156.617 156.617 0 01-3.168-50.58c3.264-30.232 15.914-52.81 37.661-67.302a32.697 32.697 0 007.986 21.461c1.993 2.423 28.889 36.68 2.997 89.184a6.937 6.937 0 00.17 6.468 6.94 6.94 0 005.429 3.52c.275.024 27.675 2.862 44.721 34.239a59.01 59.01 0 0021.509 22.672c.074.041.147.087.221.132-13.37 6.107-34.978 13.139-56.924 8.327-19.708-4.312-36.32-17.45-49.369-39.064a6.944 6.944 0 00-7.228-3.233c-2.283.427-56.138 10.905-71.57 44.561-5.132 11.215-5.444 23.467-.961 36.563a51.935 51.935 0 01-18.858-11.478 36.748 36.748 0 01-9.004-14.219 6.951 6.951 0 00-3.457-4.062 6.96 6.96 0 00-2.617-.737 6.942 6.942 0 00-7.462 6.429c-.065.913.051 1.83.342 2.698a50.42 50.42 0 0012.301 19.632c39.597 40.223 160.417 20.928 225.327 10.562 5.508-.88 10.47-1.673 14.758-2.321a569.22 569.22 0 0159.897-5.424 267.324 267.324 0 0169.124 6.159c8.165 1.804 17.12 3.364 26.617 4.631 14.504 1.934 18.454 5.487 21.453 11.228a46.952 46.952 0 01-10.043 2.052c-5.529.54-11.104.41-16.602-.386a192.926 192.926 0 00-106.188 16.867 172.438 172.438 0 00-59.24 47.45c-15.081 18.526-57.072 61.675-121.091 62.186a6.941 6.941 0 00-6.801 6.971 6.943 6.943 0 006.857 6.917h.057c69.917-.556 115.429-47.255 131.748-67.306a158.679 158.679 0 0154.468-43.688 178.552 178.552 0 0198.336-15.632 83.228 83.228 0 0019.949.43 55.729 55.729 0 0015.312-3.568c33.911 11.354 43.905 36.542 46.721 53.006a76.482 76.482 0 00-40.763-13.103h-.082c-77.113-6.722-141.409 52.128-146.375 56.798-57.394 46.202-150.891 57.893-151.823 58.008a9.958 9.958 0 00-.411.062l-48.418 8.772c-2.603.394-23.597 4.192-51.675 27.557a186.596 186.596 0 00-24.935 25.409zm396.308-107.601a312.654 312.654 0 01-60.613 39.308 151.127 151.127 0 0013.987-28.959 6.945 6.945 0 00-9.442-8.688 6.939 6.939 0 00-3.598 3.911c-13.961 38.117-32.464 47.659-32.928 47.889-.061.028-.11.072-.17.1a390.521 390.521 0 01-38.924 12.774 107.293 107.293 0 0018.709-35.364c12.135-37.193 25.251-49.798 27.189-51.509a225.318 225.318 0 0148.382-25.181 117.28 117.28 0 00-10.844 19.388 6.76 6.76 0 00-.233 5.341 6.756 6.756 0 003.723 3.838 8.046 8.046 0 009.181-3.49c11.656-25.943 24.409-31.946 26.456-32.771a134.212 134.212 0 0135.559-1.717c.252.023.528.029.784.027h.187a81.823 81.823 0 00-9.673 22.63 84.118 84.118 0 01-17.732 32.473zm-201.293 79.038a65.48 65.48 0 0010.448-16.641c.033-.078.067-.16.098-.238.07-.174 6.761-16.863 16.218-27.37a262.958 262.958 0 0056.857-30.566 239.003 239.003 0 00-8.508 22.432c-12.33 37.801-34.571 46.101-36.893 46.875a434.843 434.843 0 01-38.22 5.514v-.006zm-141.755.015c15.206-9.011 25.101-10.628 25.417-10.676.047 0 .09-.026.138-.032.047-.007.115-.001.174-.017l44.303-8.027a61 61 0 01-17.834 19.464c-10.189-.431-30.973-1.131-52.198-.706v-.006zm72.058 1.769a73.142 73.142 0 0014.617-23.171 434.038 434.038 0 0059.535-14.781 136.205 136.205 0 00-6.775 14.054c-7.263 16.452-18.944 22.48-22.171 23.882-14.41.663-29.47.723-45.21.022l.004-.006zm336.828-97.753a22.25 22.25 0 01-12.523 3.554h-17.204a55.052 55.052 0 00-11.402 1.232 92.905 92.905 0 006.414-16.664c3.9-14.165 9.374-21.207 11.759-23.757a60.343 60.343 0 0127.314 16.629c1.228 2.87 4.693 12.897-4.362 19.013l.004-.007z" fill="#0D2936" fill-opacity=".1"/></svg>