<svg width="18" height="18" fill="none" xmlns="http://www.w3.org/2000/svg"><g clip-path="url(#clip0_2638_42435)" fill="#0D2936"><path d="M10.248 10.096a.106.106 0 01-.073-.028.103.103 0 01-.003-.147c.16-.161.34-.28.536-.353.252-.095.443-.085.903-.063l.324.014c.126.005.443.017.674.019.225.002.61-.006 1.357-.094.625-.073 1.037-.121 1.613-.245a8.037 8.037 0 001.879-.725c.084-.045.338-.183.33-.276-.007-.086-.226-.184-.384-.222-.988.05-1.965.156-2.903.314-.09.015-2.2.363-3.36.14a2.23 2.23 0 01-1.03-.494.102.102 0 01-.003-.146.107.107 0 01.149-.003l.033.03c.003.003.353.308.892.41 1.12.215 3.262-.138 3.284-.142.95-.159 1.941-.265 2.943-.317.01 0 .02 0 .03.003.089.02.537.136.56.41.018.226-.268.38-.44.473a8.21 8.21 0 01-1.934.744c-.586.129-1.003.177-1.634.251-.76.09-1.153.097-1.384.095a23.964 23.964 0 01-.68-.02c-.123-.004-.23-.01-.326-.014-.441-.02-.607-.03-.817.05a1.282 1.282 0 00-.46.304.105.105 0 01-.076.032zm-3.44-1.122a.11.11 0 01-.05-.013.103.103 0 01-.043-.14.524.524 0 00.078-.324c-.047-.368-.593-.606-.8-.696l-.018-.007c-.024-.01-2.463-1.098-4.45-3.949-.18-.258-.204-.472-.216-.575l-.003-.023c-.032-.254.094-.46.16-.572a.106.106 0 01.134-.042 3.26 3.26 0 011.057.743c.376.397.798.753 1.207 1.098.268.226.544.46.806.703.804.745 1.92 1.387 3.317 1.909.054.02.081.08.06.133a.106.106 0 01-.136.06C6.488 6.747 5.35 6.09 4.525 5.326a23.38 23.38 0 00-.799-.696c-.413-.349-.84-.71-1.219-1.109a3.015 3.015 0 00-.907-.66.59.59 0 00-.084.36l.002.027c.01.093.03.266.18.481 1.956 2.804 4.34 3.867 4.363 3.877l.018.008c.236.102.862.374.923.858a.719.719 0 01-.102.45.106.106 0 01-.092.053z"/><path d="M10.125 7.831l-.018-.001a.105.105 0 01-.086-.12c.274-1.525.545-2.84.806-3.91.398-1.633.44-1.804.456-1.836.002-.005.259-.547.354-1.419.009-.076.012-.184-.05-.252a.227.227 0 00-.125-.063l-.01-.002a.413.413 0 00-.21-.014c-.075.017-.202.139-.374.362C10.02 1.673 9.675 3.06 9.34 4.398c-.143.568-.289 1.155-.473 1.717a2.287 2.287 0 00-.02.07c-.047.163-.134.469-.376.746-.079.09-.167.172-.264.244a.106.106 0 01-.147-.02.101.101 0 01.02-.145c.085-.063.163-.135.232-.214.211-.242.287-.508.333-.666l.022-.078c.181-.554.327-1.138.468-1.703.34-1.36.69-2.766 1.564-3.897.219-.282.363-.41.498-.44a.616.616 0 01.313.017c.095.02.173.062.231.125.133.144.112.347.104.413-.1.91-.362 1.463-.373 1.486-.015.046-.176.703-.442 1.792a66.189 66.189 0 00-.804 3.9.105.105 0 01-.104.085l.002.001zM.843 13.908c-.407 0-.71-.143-.833-.403a.1.1 0 01.018-.114c1.005-1.075 2.325-1.8 3.603-2.5 1.04-.57 2.114-1.158 3.01-1.934a.107.107 0 01.15.01.102.102 0 01-.01.146c-.913.79-1.998 1.384-3.048 1.96-1.241.68-2.523 1.382-3.499 2.403.2.284.722.228.885.204 1.385-.214 2.614-.976 3.802-1.714a26.564 26.564 0 011.554-.915l.032-.018c.139-.074.427-.23.82-.299.217-.038.439-.047.66-.028.058.005.1.055.096.112a.105.105 0 01-.115.094 2.354 2.354 0 00-.604.025c-.36.064-.618.203-.757.278l-.034.018c-.523.276-1.04.597-1.542.908-1.206.748-2.453 1.522-3.881 1.742-.11.017-.213.025-.31.025h.003zM11.76 18c-.284 0-.596-.186-.872-.53-.892-1.117-1.268-2.517-1.63-3.871-.152-.562-.308-1.144-.498-1.696l-.025-.076a1.647 1.647 0 00-.344-.662 1.516 1.516 0 00-.234-.21.103.103 0 01-.024-.144.108.108 0 01.147-.023c.098.07.19.15.27.24.246.273.338.576.387.739l.022.068c.193.559.35 1.144.502 1.71.358 1.333.727 2.712 1.593 3.794.102.128.446.517.788.443-.004-1.4-.455-2.77-.89-4.098-.369-1.122-.75-2.283-.87-3.472a.104.104 0 01.095-.113.105.105 0 01.115.093c.118 1.166.495 2.316.86 3.428.45 1.367.913 2.78.9 4.239a.103.103 0 01-.065.095.613.613 0 01-.228.043l.001.003z"/><path d="M11.042 1.44a.266.266 0 01-.143-.04c-.147-.095-.132-.3-.086-.415.05-.124.17-.251.317-.238.07.006.117.041.135.055.121.093.185.3.087.46a.384.384 0 01-.31.178zm-.028-.214c.012.007.03.009.052.004a.178.178 0 00.106-.074c.042-.068.005-.159-.037-.192-.007-.005-.015-.012-.023-.012-.024-.003-.079.049-.102.108-.023.059-.026.147.004.167zm-.237 1.099a.22.22 0 01-.122-.036.224.224 0 01-.096-.177.252.252 0 01.083-.207.265.265 0 01.208-.056.195.195 0 01.143.084c.017.026.024.06.022.107-.003.067-.006.18-.104.244a.242.242 0 01-.133.04zm-.004-.208c.005 0 .014 0 .018-.003.007-.007.01-.038.01-.06a.037.037 0 00-.022.007c-.013.012-.014.046-.007.057h.001zm-.455 1.747a.26.26 0 01-.13-.034c-.11-.063-.138-.19-.127-.28.013-.118.093-.186.146-.23a.248.248 0 01.148-.07.216.216 0 01.202.124c.031.064.031.12.027.173-.008.091-.019.216-.133.282a.268.268 0 01-.133.035zm-.024-.213a.056.056 0 00.05 0c.02-.013.026-.073.03-.122.004-.038 0-.05-.006-.065l-.002-.004-.017.013c-.047.04-.075.064-.079.1-.001.011 0 .064.024.077v.001zM9.42 6.62a.22.22 0 01-.104-.023c-.088-.045-.143-.153-.148-.29-.004-.124.036-.283.16-.357.106-.064.279-.065.366.035a.225.225 0 01.05.118c.021.116.05.276-.07.402a.371.371 0 01-.254.116zm-.006-.207c.014.005.07-.013.106-.05.044-.047.036-.12.017-.226-.002-.016-.004-.02-.005-.02-.01-.008-.065-.01-.095.009-.034.02-.058.088-.059.161 0 .08.026.12.035.126zm.03.857a.1.1 0 01-.048-.011l-.331-.17a.102.102 0 01-.045-.14c.027-.05.09-.07.142-.044l.33.17a.102.102 0 01.046.14.105.105 0 01-.094.055zm-.292.927c-.008 0-.016 0-.024-.003a.56.56 0 01-.38-.294.102.102 0 01.05-.138.106.106 0 01.14.049c.046.09.136.16.236.183a.103.103 0 01-.023.204v-.001zm-1.207.519a.105.105 0 01-.084-.04.102.102 0 01.02-.145.328.328 0 00.12-.174.105.105 0 01.13-.072c.055.015.088.07.073.126a.537.537 0 01-.195.284.105.105 0 01-.064.021zm-.735-.774a.104.104 0 01-.018-.206.32.32 0 00.179-.099.107.107 0 01.149-.008.102.102 0 01.008.146.528.528 0 01-.317.167zm2.093 1.281a.104.104 0 01-.102-.079.457.457 0 01.01-.25.106.106 0 01.132-.068.103.103 0 01.068.13.254.254 0 00-.005.14.103.103 0 01-.103.127zm1.355-.026a.105.105 0 01-.103-.084l-.05-.26a.104.104 0 01.085-.121.106.106 0 01.123.082l.05.26a.104.104 0 01-.104.123zm-2.18.411h-.01a.265.265 0 01-.237-.223.105.105 0 01.209-.026c.003.02.025.042.047.044.058.005.1.056.095.112a.105.105 0 01-.104.093zm-.131.715a.115.115 0 01-.03-.004.339.339 0 01-.243-.314c0-.057.046-.104.104-.105h.001c.058 0 .105.046.106.102 0 .052.04.104.092.118a.103.103 0 01-.03.204zm-4.072 1.611a.231.231 0 01-.103-.024c-.088-.045-.144-.153-.148-.29-.005-.125.035-.284.16-.358.106-.064.278-.064.366.036a.225.225 0 01.05.117c.02.117.049.277-.07.403a.373.373 0 01-.255.116zm-.006-.207c.015.005.071-.013.107-.05.044-.047.035-.12.017-.227a.068.068 0 00-.005-.021c-.01-.007-.065-.009-.096.01-.033.02-.059.088-.059.16 0 .079.026.12.035.127h.001zm12.655-3.182a.26.26 0 01-.13-.034c-.11-.063-.138-.19-.128-.281.013-.117.094-.185.147-.23a.248.248 0 01.148-.068.215.215 0 01.202.123.31.31 0 01.026.172c-.007.091-.018.216-.133.283a.268.268 0 01-.133.035zm-.025-.213a.056.056 0 00.05 0c.021-.013.026-.073.03-.122.004-.038 0-.05-.005-.065 0-.002-.002-.003-.003-.003l-.016.012c-.048.041-.076.065-.08.1 0 .012 0 .064.024.078zm-.637.353a.22.22 0 01-.122-.036.225.225 0 01-.096-.177.254.254 0 01.082-.207.265.265 0 01.208-.056c.063.01.114.039.142.084a.18.18 0 01.023.107c-.003.067-.007.18-.104.244a.242.242 0 01-.133.04v.001zm-.004-.207c.004 0 .014 0 .018-.003.007-.007.01-.037.01-.06a.037.037 0 00-.022.007c-.013.011-.014.046-.007.057zm-1.311.586a.26.26 0 01-.13-.034c-.111-.063-.138-.19-.127-.28.013-.118.093-.186.146-.23a.249.249 0 01.148-.07.216.216 0 01.202.124.31.31 0 01.027.172c-.008.091-.02.215-.133.282a.268.268 0 01-.133.034v.002zm-.024-.212a.056.056 0 00.05 0c.02-.013.026-.074.03-.123.004-.037 0-.05-.006-.064l-.002-.004-.017.013c-.047.04-.074.065-.079.1-.001.011 0 .064.024.078zM3.586 12.087a.22.22 0 01-.122-.036.224.224 0 01-.096-.177.254.254 0 01.082-.207.266.266 0 01.208-.056c.063.01.114.039.142.084.018.026.024.06.023.107-.003.067-.006.18-.104.244a.242.242 0 01-.133.04v.001zm-.004-.207c.004 0 .014 0 .018-.003.007-.007.01-.037.011-.06a.037.037 0 00-.022.007c-.013.012-.014.046-.007.057zm-1.47 1.192a.266.266 0 01-.143-.04c-.147-.095-.131-.3-.085-.415.049-.124.169-.251.317-.238.07.006.116.041.133.055.122.093.186.3.089.46a.384.384 0 01-.31.178zm.069-.487c-.026 0-.077.049-.1.107-.024.06-.027.148.005.167.01.007.03.009.052.004a.173.173 0 00.104-.074c.042-.069.006-.16-.037-.192-.006-.005-.015-.012-.022-.012H2.18zM6.19 7.414a.266.266 0 01-.142-.04c-.148-.095-.132-.3-.086-.415.05-.123.17-.251.317-.238a.25.25 0 01.133.055c.122.094.186.3.089.46a.384.384 0 01-.31.178zM6.164 7.2c.011.008.03.009.052.004a.173.173 0 00.105-.074c.041-.068.005-.158-.038-.192-.006-.005-.014-.011-.022-.011-.027-.004-.079.047-.102.108-.024.058-.026.147.005.166zm3.472 4.396a.266.266 0 01-.143-.04c-.147-.094-.132-.3-.086-.414.05-.124.168-.251.317-.239a.25.25 0 01.134.056c.121.092.185.3.088.46a.38.38 0 01-.311.177zm-.028-.213c.011.007.03.009.052.003a.178.178 0 00.106-.074c.041-.068.005-.158-.037-.19-.006-.006-.016-.013-.023-.013-.022-.003-.079.048-.102.108-.024.059-.026.147.005.167v-.001zm1.489 5.303a.267.267 0 01-.143-.04c-.148-.095-.132-.3-.086-.416.05-.123.17-.25.317-.238a.25.25 0 01.134.056c.121.092.185.3.088.46a.385.385 0 01-.31.178zm-.028-.214c.011.008.03.008.052.003a.173.173 0 00.105-.074c.041-.068.006-.159-.037-.19-.006-.006-.015-.013-.023-.013-.023-.004-.079.048-.102.108-.024.059-.026.147.005.167v-.001zm-.888-2.275a.232.232 0 01-.103-.024c-.088-.045-.144-.153-.148-.291-.004-.124.036-.283.16-.357.106-.064.278-.065.366.036a.224.224 0 01.05.117c.021.116.049.276-.07.402a.37.37 0 01-.255.117zm-.006-.208c.015.005.071-.013.107-.05.044-.047.035-.12.017-.226a.07.07 0 00-.005-.021c-.01-.007-.065-.009-.095.009-.034.02-.06.088-.06.161 0 .079.027.12.035.126l.001.001zm-.214-.745a.22.22 0 01-.122-.035.224.224 0 01-.096-.177.254.254 0 01.082-.208.265.265 0 01.208-.056c.063.01.115.04.142.084.018.027.024.06.023.107-.003.068-.006.18-.104.245a.242.242 0 01-.133.04zm-.004-.207c.004 0 .014 0 .018-.004.007-.006.01-.037.01-.06a.038.038 0 00-.022.008c-.013.012-.014.046-.007.057v-.001zm-7.64-8.952a.22.22 0 01-.123-.036.224.224 0 01-.096-.177.254.254 0 01.083-.207.265.265 0 01.208-.056.197.197 0 01.142.084c.017.027.024.06.022.107-.002.067-.006.18-.104.244a.242.242 0 01-.132.04zm-.005-.207c.005 0 .014 0 .018-.003.007-.007.01-.038.01-.06a.038.038 0 00-.022.007c-.013.011-.014.046-.007.057h.001zm.519 1.027a.266.266 0 01-.143-.04c-.147-.094-.132-.3-.086-.415.05-.123.169-.25.318-.238a.25.25 0 01.133.056c.121.092.186.3.088.46a.384.384 0 01-.31.177zm.069-.487c-.026 0-.078.05-.102.108-.023.059-.026.147.005.167.012.007.03.008.052.003a.173.173 0 00.105-.074c.042-.068.006-.159-.037-.191-.006-.005-.016-.012-.022-.012h-.002zm.767 1.298a.266.266 0 01-.143-.04c-.147-.095-.132-.3-.086-.415.05-.123.17-.25.318-.238a.25.25 0 01.134.055c.121.093.185.3.087.46a.384.384 0 01-.31.178zm-.028-.214c.012.007.03.009.052.004a.178.178 0 00.106-.074c.042-.068.005-.158-.037-.192-.007-.005-.015-.011-.023-.011-.024-.005-.079.048-.102.108-.023.058-.026.147.004.166z"/></g><defs><clipPath id="clip0_2638_42435"><path fill="#fff" d="M0 0h18v18H0z"/></clipPath></defs></svg>