<svg width="18" height="18" viewBox="0 0 18 18" fill="none" xmlns="http://www.w3.org/2000/svg">
<g clip-path="url(#clip0_487_12317)">
<path d="M10.2471 10.0964C10.2203 10.0964 10.1943 10.0871 10.1735 10.0675C10.1319 10.0276 10.131 9.9621 10.1709 9.92129C10.3303 9.75973 10.5106 9.64069 10.7073 9.56756C10.9595 9.47318 11.1502 9.48253 11.6104 9.50464C11.7057 9.50889 11.8123 9.51399 11.9345 9.51909C12.0601 9.5242 12.3773 9.5361 12.6079 9.5378C12.8332 9.5395 13.218 9.53185 13.965 9.44427C14.5898 9.37114 15.0024 9.32267 15.5778 9.19853C15.5865 9.19683 16.4895 8.99701 17.4567 8.47408C17.5407 8.42901 17.7947 8.29126 17.7869 8.19773C17.7799 8.11185 17.5607 8.01406 17.4029 7.9758C16.415 8.02682 15.4383 8.13225 14.4997 8.28956C14.4105 8.30487 12.2993 8.65264 11.1398 8.43071C10.5409 8.31592 10.1622 7.9843 10.1466 7.96985C10.1301 7.95539 10.1163 7.94264 10.1093 7.93584C10.0677 7.89587 10.066 7.83125 10.1067 7.78958C10.1466 7.74877 10.2133 7.74707 10.2558 7.78703C10.2627 7.79299 10.274 7.80404 10.2887 7.81679C10.2922 7.82019 10.6423 8.1246 11.1805 8.22749C12.3019 8.44176 14.4434 8.08889 14.465 8.08549C15.4157 7.92648 16.4063 7.82019 17.4081 7.76833C17.4177 7.76833 17.4281 7.76833 17.4376 7.77088C17.5269 7.79128 17.9749 7.90693 17.9975 8.18072C18.0157 8.4069 17.7297 8.56166 17.5589 8.65434C16.6524 9.14411 15.7763 9.36774 15.6237 9.39835C15.0379 9.52675 14.621 9.57521 13.9901 9.64919C13.231 9.73847 12.8366 9.74612 12.6061 9.74357C12.3721 9.74187 12.0523 9.72997 11.9258 9.72487C11.8027 9.71977 11.6953 9.71466 11.6 9.71041C11.1588 9.68915 10.9933 9.68065 10.7827 9.75973C10.6155 9.82265 10.4603 9.92469 10.3225 10.0641C10.3017 10.0854 10.274 10.0956 10.2471 10.0956V10.0964Z" fill="white"/>
<path d="M6.80917 8.97406C6.79183 8.97406 6.7745 8.96981 6.75803 8.9613C6.7069 8.93324 6.6887 8.87117 6.71644 8.821C6.78057 8.70706 6.80657 8.59823 6.79357 8.49704C6.74677 8.12886 6.20079 7.89078 5.99453 7.80149L5.97633 7.79384C5.95206 7.78364 3.51335 6.6961 1.52529 3.84505C1.3459 3.58741 1.32164 3.37313 1.3095 3.27025L1.3069 3.24729C1.27484 2.99305 1.4005 2.78642 1.46723 2.67504C1.4941 2.62997 1.55216 2.61211 1.60069 2.63337C1.74195 2.69459 1.87975 2.76687 2.01061 2.8485C2.24633 2.99475 2.46473 3.17246 2.65799 3.37653C3.03411 3.77277 3.45616 4.12905 3.86521 4.47427C4.133 4.70045 4.40945 4.93428 4.67118 5.17662C5.47455 5.92233 6.59077 6.56431 7.98779 7.08554C8.04239 7.10595 8.06925 7.16547 8.04845 7.21904C8.02765 7.27261 7.96699 7.29897 7.91239 7.27856C6.48938 6.74712 5.35062 6.09069 4.52645 5.32627C4.26819 5.08734 3.99347 4.85435 3.72741 4.62987C3.31403 4.28125 2.88764 3.92072 2.50806 3.52108C2.43613 3.44541 2.23073 3.22858 1.89795 3.02281C1.80262 2.96329 1.70295 2.90972 1.60156 2.86125C1.54869 2.95733 1.49843 3.08148 1.51663 3.22178L1.51923 3.24814C1.52963 3.34082 1.54956 3.51428 1.69949 3.72941C3.65462 6.53285 6.03873 7.59572 6.06213 7.60592L6.08033 7.61358C6.31605 7.71561 6.94176 7.98771 7.00329 8.47238C7.02149 8.61778 6.98769 8.76913 6.90103 8.92134C6.88196 8.95535 6.84556 8.97491 6.80917 8.97491V8.97406Z" fill="white"/>
<path d="M10.1229 7.83125C10.1169 7.83125 10.1108 7.83125 10.1047 7.82955C10.0476 7.81935 10.0094 7.76578 10.019 7.70966C10.2928 6.18507 10.5641 4.86966 10.8249 3.79998C11.2227 2.1674 11.2652 1.99649 11.2808 1.96418C11.2834 1.95908 11.5399 1.41659 11.6352 0.54503C11.6439 0.469353 11.6474 0.360515 11.585 0.293341C11.5564 0.262731 11.5148 0.241473 11.4602 0.230419C11.4567 0.230419 11.4532 0.228719 11.4498 0.227868C11.3752 0.20491 11.305 0.200659 11.2409 0.214263C11.1646 0.231269 11.0381 0.352862 10.8657 0.576491C10.019 1.67338 9.67317 3.05852 9.33864 4.39774C9.19652 4.96574 9.05006 5.5533 8.86633 6.11535C8.86026 6.13405 8.85333 6.15786 8.84553 6.18507C8.79873 6.34833 8.71207 6.65359 8.47028 6.93078C8.39141 7.02092 8.30302 7.10254 8.20595 7.17482C8.15916 7.20968 8.09329 7.20033 8.05863 7.15441C8.02309 7.1085 8.03263 7.04387 8.07942 7.00986C8.16435 6.94694 8.24235 6.87466 8.31082 6.79644C8.52227 6.5541 8.59854 6.28796 8.6436 6.1298C8.65227 6.10004 8.6592 6.07368 8.66614 6.05242C8.84726 5.49803 8.99286 4.91387 9.13412 4.34927C9.47384 2.98964 9.82483 1.58325 10.6984 0.452347C10.9168 0.170048 11.0606 0.0425028 11.1958 0.0127423C11.2955 -0.00936547 11.4012 -0.00341337 11.5087 0.028898C11.604 0.0493052 11.682 0.0909699 11.7401 0.153892C11.8736 0.297593 11.8519 0.500814 11.8441 0.567138C11.7444 1.47611 11.4818 2.02965 11.4706 2.05261C11.4558 2.09853 11.2955 2.75581 11.0294 3.84504C10.7686 4.91387 10.4982 6.22503 10.2252 7.74537C10.2165 7.79554 10.1715 7.8304 10.1212 7.8304L10.1229 7.83125Z" fill="white"/>
<path d="M0.842359 13.9075C0.435907 13.9075 0.133452 13.7646 0.00952284 13.5045C-0.00867648 13.4662 -0.00174341 13.422 0.0277222 13.3914C1.03215 12.3157 2.3529 11.5913 3.63032 10.8915C4.67028 10.3218 5.74491 9.73252 6.64101 8.95705C6.68434 8.91963 6.75107 8.92304 6.79007 8.9664C6.8282 9.00892 6.82474 9.07439 6.78054 9.11265C5.86711 9.90258 4.78208 10.4969 3.73258 11.0726C2.49156 11.7528 1.20981 12.4552 0.233981 13.4764C0.433307 13.7595 0.955888 13.7043 1.11882 13.6796C2.5037 13.4662 3.73258 12.7035 4.92074 11.9663C5.42512 11.6533 5.94597 11.3302 6.47462 11.0505L6.50668 11.0335C6.64534 10.9587 6.93393 10.8039 7.32738 10.7342C7.54318 10.6959 7.76504 10.6866 7.98689 10.7061C8.04496 10.7112 8.08742 10.7614 8.08222 10.8184C8.07702 10.8753 8.02589 10.917 7.96783 10.9119C7.76504 10.894 7.56138 10.9034 7.36378 10.9374C7.00413 11.0012 6.74587 11.1398 6.60635 11.2146L6.57255 11.2325C6.04997 11.5088 5.53172 11.8302 5.0308 12.1406C3.82445 12.8888 2.57736 13.6626 1.14915 13.8828C1.03995 13.8998 0.936822 13.9075 0.838892 13.9075H0.842359Z" fill="white"/>
<path d="M11.761 18C11.4767 18 11.1647 17.8138 10.8891 17.4694C9.9965 16.353 9.62125 14.9534 9.25813 13.5988C9.10733 13.0368 8.95134 12.4552 8.76068 11.9034C8.75375 11.8821 8.74595 11.8566 8.73641 11.8268C8.68875 11.6687 8.60815 11.4051 8.39236 11.1653C8.32216 11.0879 8.2433 11.0173 8.1575 10.9553C8.1107 10.9221 8.1003 10.8566 8.1341 10.8107C8.16877 10.7648 8.23463 10.7546 8.28143 10.7878C8.37936 10.8583 8.47036 10.9383 8.55009 11.0275C8.79708 11.3013 8.88894 11.604 8.93834 11.7665C8.94614 11.7937 8.95394 11.8166 8.96 11.8353C9.15326 12.394 9.31013 12.979 9.46179 13.5444C9.81971 14.8777 10.1889 16.2569 11.0547 17.3393C11.1569 17.4669 11.501 17.8563 11.8433 17.7823C11.839 16.3827 11.3883 15.0112 10.9524 13.6839C10.5841 12.5615 10.2028 11.4008 10.0832 10.2121C10.0771 10.1551 10.1196 10.105 10.1776 10.099C10.2357 10.0931 10.2868 10.1347 10.2929 10.1917C10.4108 11.3583 10.7877 12.5079 11.1535 13.6201C11.6024 14.9865 12.066 16.3997 12.0539 17.8589C12.0539 17.9005 12.0279 17.9379 11.988 17.9541C11.9152 17.983 11.839 17.9975 11.7601 17.9975L11.761 18Z" fill="white"/>
<path d="M11.0426 1.43954C10.9906 1.43954 10.9412 1.42594 10.8996 1.39958C10.7523 1.3052 10.7679 1.09942 10.8138 0.984634C10.8632 0.861341 10.9837 0.733796 11.131 0.74655C11.2012 0.752502 11.2471 0.788215 11.2653 0.80182C11.3867 0.894502 11.4508 1.10198 11.3529 1.26183C11.3017 1.34516 11.2125 1.40893 11.1145 1.43104C11.0903 1.43614 11.066 1.43954 11.0426 1.43954ZM11.0149 1.22612C11.0261 1.23292 11.0452 1.23462 11.0669 1.22952C11.1085 1.22017 11.1509 1.19041 11.1726 1.15554C11.2142 1.08752 11.1778 0.997389 11.1353 0.964227C11.1284 0.959125 11.1206 0.952323 11.1128 0.952323C11.0885 0.948922 11.0339 1.00079 11.0105 1.06031C10.9871 1.11898 10.9845 1.20741 11.0149 1.22697V1.22612Z" fill="white"/>
<path d="M10.7775 2.32472C10.7342 2.32472 10.6909 2.31281 10.6554 2.289C10.599 2.25159 10.5635 2.18697 10.5592 2.11214C10.554 2.03136 10.5852 1.95399 10.6424 1.90467C10.6961 1.85875 10.7741 1.83749 10.8503 1.84855C10.9136 1.8579 10.9647 1.88766 10.9925 1.93273C11.0098 1.95909 11.0167 1.99225 11.015 2.03987C11.0124 2.10704 11.0089 2.21928 10.911 2.2839C10.8711 2.31026 10.8243 2.32387 10.7784 2.32387L10.7775 2.32472ZM10.7732 2.11724C10.7775 2.11724 10.7871 2.11724 10.7914 2.11384C10.7983 2.10704 10.8009 2.07643 10.8018 2.05347C10.7931 2.05347 10.7845 2.05687 10.7793 2.06112C10.7663 2.07303 10.7645 2.10704 10.7723 2.11809L10.7732 2.11724Z" fill="white"/>
<path d="M10.319 3.86376C10.2739 3.86376 10.2289 3.85271 10.189 3.82975C10.0789 3.76683 10.0512 3.63928 10.0616 3.54915C10.0746 3.43181 10.1552 3.36379 10.2081 3.31957C10.2462 3.28726 10.293 3.2541 10.3563 3.2507C10.4377 3.2456 10.5192 3.29491 10.5582 3.37399C10.5894 3.43776 10.5894 3.49473 10.585 3.54745C10.5772 3.63843 10.566 3.76258 10.4516 3.8289C10.4117 3.85186 10.3649 3.86376 10.319 3.86376ZM10.2947 3.65119C10.3103 3.65969 10.332 3.65799 10.3441 3.65119C10.3658 3.63843 10.371 3.57806 10.3753 3.52875C10.3788 3.49133 10.3753 3.47858 10.3693 3.46412C10.3693 3.46242 10.3675 3.46157 10.3667 3.45987C10.3632 3.46242 10.358 3.46582 10.3502 3.47263C10.3025 3.51344 10.2748 3.53725 10.2713 3.57211C10.2696 3.58401 10.2705 3.63673 10.2947 3.65034V3.65119Z" fill="white"/>
<path d="M9.41961 6.62042C9.38407 6.62042 9.34941 6.61362 9.31648 6.59661C9.22808 6.55155 9.17348 6.44356 9.16828 6.30666C9.16395 6.18252 9.20381 6.02351 9.32774 5.94954C9.43434 5.88576 9.6068 5.88491 9.69433 5.98525C9.72726 6.02266 9.73766 6.06348 9.74459 6.10259C9.76539 6.21908 9.79313 6.37894 9.6744 6.50478C9.61287 6.57025 9.51407 6.62127 9.41961 6.62127V6.62042ZM9.41354 6.41295C9.42827 6.41805 9.4846 6.40019 9.52014 6.36278C9.56433 6.31602 9.55567 6.24289 9.53747 6.1366C9.53487 6.1213 9.53314 6.11619 9.53227 6.11619C9.52274 6.10939 9.46727 6.10769 9.43694 6.12555C9.40314 6.14595 9.37887 6.21398 9.37801 6.2871C9.37801 6.36618 9.40401 6.407 9.41267 6.41295H9.41354Z" fill="white"/>
<path d="M9.44538 7.27092C9.42892 7.27092 9.41245 7.26752 9.39685 7.25902L9.0658 7.08896C9.0138 7.0626 8.99386 7.00053 9.02073 6.94951C9.0476 6.89934 9.11086 6.87893 9.16286 6.90529L9.49391 7.07535C9.54591 7.10171 9.56584 7.16378 9.53898 7.2148C9.51991 7.25052 9.48351 7.27007 9.44538 7.27007V7.27092Z" fill="white"/>
<path d="M9.15318 8.19689C9.14538 8.19689 9.13758 8.19689 9.12978 8.19434C8.96512 8.15863 8.82386 8.04809 8.75019 7.90014C8.72506 7.84912 8.74673 7.78705 8.79959 7.76239C8.85159 7.73773 8.91485 7.75899 8.93999 7.81085C8.98505 7.90184 9.07518 7.97156 9.17571 7.99367C9.23291 8.00642 9.26844 8.06169 9.25544 8.11696C9.24418 8.16543 9.20084 8.19774 9.15231 8.19774L9.15318 8.19689Z" fill="white"/>
<path d="M7.94451 8.71642C7.91244 8.71642 7.88124 8.70282 7.86044 8.67561C7.82491 8.63054 7.83444 8.56507 7.88038 8.53106C7.93844 8.48769 7.9809 8.42562 7.99997 8.35674C8.01557 8.30148 8.07277 8.26916 8.1291 8.28447C8.18543 8.29977 8.21836 8.35589 8.20276 8.41116C8.17156 8.5234 8.10223 8.62459 8.00777 8.69516C7.9887 8.70962 7.96617 8.71642 7.94364 8.71642H7.94451Z" fill="white"/>
<path d="M7.21229 7.9418C7.16203 7.9418 7.11783 7.90694 7.10916 7.85677C7.09876 7.80065 7.13603 7.74708 7.19409 7.73603C7.26169 7.72412 7.32755 7.68756 7.37262 7.63739C7.41162 7.59488 7.47748 7.59063 7.52168 7.62889C7.56501 7.66715 7.56934 7.73178 7.53034 7.77514C7.45321 7.86102 7.34662 7.91969 7.23222 7.9401C7.22616 7.94095 7.21922 7.9418 7.21316 7.9418H7.21229Z" fill="white"/>
<path d="M9.30138 9.22319C9.25371 9.22319 9.21038 9.19173 9.19911 9.14411C9.17918 9.06078 9.18178 8.97405 9.20865 8.89327C9.22598 8.83885 9.28578 8.80909 9.34124 8.8261C9.39671 8.84311 9.42704 8.90178 9.40971 8.9562C9.39497 9.00041 9.39324 9.05058 9.40451 9.09564C9.41837 9.15091 9.38371 9.20703 9.32651 9.22064C9.31784 9.22234 9.31004 9.22319 9.30138 9.22319Z" fill="white"/>
<path d="M10.6577 9.19683C10.6083 9.19683 10.5641 9.16197 10.5546 9.11265L10.5052 8.85246C10.4948 8.79634 10.532 8.74277 10.5892 8.73172C10.6464 8.72151 10.701 8.75808 10.7123 8.8142L10.7617 9.07439C10.7721 9.13051 10.7348 9.18408 10.6776 9.19513C10.6716 9.19598 10.6646 9.19683 10.6586 9.19683H10.6577Z" fill="white"/>
<path d="M8.47851 9.60838C8.47851 9.60838 8.47158 9.60838 8.46811 9.60838C8.34852 9.59733 8.24799 9.50124 8.23239 9.38475C8.22459 9.32778 8.26619 9.27676 8.32338 9.26911C8.38058 9.26146 8.43345 9.30227 8.44125 9.35839C8.44385 9.3788 8.46638 9.40091 8.48804 9.40261C8.54611 9.40771 8.58857 9.45873 8.58337 9.51485C8.57817 9.56842 8.53224 9.60838 8.47851 9.60838Z" fill="white"/>
<path d="M8.34819 10.3235C8.33865 10.3235 8.32825 10.3218 8.31872 10.3193C8.17919 10.2793 8.07693 10.1475 8.0752 10.0046C8.0752 9.94767 8.12113 9.90091 8.17919 9.90005H8.18006C8.23812 9.90005 8.28492 9.94597 8.28579 10.0021C8.28579 10.054 8.32652 10.1058 8.37765 10.1203C8.43312 10.1364 8.46605 10.1934 8.44958 10.2487C8.43658 10.2937 8.39412 10.3235 8.34819 10.3235Z" fill="white"/>
<path d="M4.27361 11.934C4.23808 11.934 4.20341 11.9263 4.17048 11.9101C4.08208 11.8651 4.02662 11.7571 4.02229 11.6193C4.01795 11.4952 4.05782 11.3362 4.18175 11.2622C4.28834 11.1984 4.4608 11.1976 4.54833 11.2979C4.58127 11.3353 4.59167 11.3762 4.5986 11.4153C4.61853 11.5318 4.64713 11.6916 4.5284 11.8175C4.466 11.8829 4.36807 11.934 4.27361 11.934ZM4.26754 11.7265C4.28228 11.7316 4.33861 11.7137 4.37414 11.6763C4.41834 11.6295 4.40967 11.5564 4.39147 11.4501C4.38887 11.4348 4.38714 11.4297 4.38627 11.4289C4.37674 11.4221 4.32128 11.4204 4.29094 11.4382C4.25714 11.4586 4.23201 11.5267 4.23201 11.5998C4.23201 11.678 4.25801 11.7197 4.26668 11.7256L4.26754 11.7265Z" fill="white"/>
<path d="M16.923 8.54467C16.8779 8.54467 16.8329 8.53362 16.793 8.51066C16.6829 8.44774 16.6552 8.32019 16.6656 8.23006C16.6786 8.11272 16.7592 8.04469 16.8121 8.00048C16.8502 7.96817 16.897 7.93501 16.9603 7.93161C17.0426 7.9265 17.1232 7.97582 17.1622 8.0549C17.1934 8.11867 17.1934 8.17564 17.189 8.22751C17.1812 8.31849 17.17 8.44264 17.0556 8.50981C17.0157 8.53277 16.9689 8.54467 16.923 8.54467ZM16.8987 8.3321C16.9143 8.3406 16.936 8.3389 16.9481 8.3321C16.9698 8.31934 16.975 8.25897 16.9793 8.20965C16.9828 8.17224 16.9793 8.15949 16.9733 8.14503C16.9733 8.14333 16.9715 8.14248 16.9707 8.14163C16.9672 8.14418 16.962 8.14758 16.9542 8.15438C16.9065 8.1952 16.8788 8.21901 16.8753 8.25387C16.8736 8.26577 16.8745 8.31849 16.8987 8.3321Z" fill="white"/>
<path d="M16.2614 8.68498C16.2181 8.68498 16.1748 8.67307 16.1392 8.64926C16.0829 8.61185 16.0474 8.54723 16.043 8.4724C16.0378 8.39162 16.069 8.31425 16.1254 8.26493C16.1791 8.21901 16.2571 8.19775 16.3334 8.20881C16.3966 8.21816 16.4478 8.24792 16.4755 8.29299C16.4928 8.32105 16.4998 8.35336 16.498 8.40013C16.4954 8.4673 16.492 8.57954 16.394 8.64416C16.3542 8.67052 16.3074 8.68413 16.2614 8.68413V8.68498ZM16.2571 8.47835C16.2614 8.47835 16.271 8.47835 16.2753 8.47495C16.2822 8.46815 16.2848 8.43754 16.2857 8.41458C16.277 8.41458 16.2684 8.41798 16.2632 8.42223C16.2502 8.43329 16.2493 8.46815 16.2562 8.4792L16.2571 8.47835Z" fill="white"/>
<path d="M14.9484 9.06419C14.9034 9.06419 14.8583 9.05313 14.8184 9.03018C14.7075 8.96725 14.6806 8.83971 14.691 8.74958C14.704 8.63224 14.7846 8.56421 14.8375 8.51915C14.8756 8.48683 14.9224 8.45367 14.9857 8.45027C15.068 8.44602 15.1495 8.49449 15.1876 8.57356C15.2188 8.63734 15.2188 8.69431 15.2145 8.74618C15.2067 8.83716 15.1954 8.9613 15.081 9.02762C15.0411 9.05058 14.9944 9.06249 14.9484 9.06249V9.06419ZM14.9242 8.85161C14.9398 8.86012 14.9623 8.85841 14.9736 8.85161C14.9952 8.83886 15.0004 8.77849 15.0047 8.72917C15.0082 8.69176 15.0048 8.679 14.9987 8.66455C14.9987 8.66285 14.9969 8.662 14.9961 8.66115C14.9926 8.6637 14.9874 8.6671 14.9796 8.6739C14.932 8.71471 14.9051 8.73852 14.9008 8.77339C14.899 8.78529 14.8999 8.83801 14.9242 8.85161Z" fill="white"/>
<path d="M3.58614 12.087C3.54281 12.087 3.49948 12.0751 3.46395 12.0513C3.40761 12.0139 3.37208 11.9493 3.36775 11.8744C3.36255 11.7937 3.39375 11.7163 3.45008 11.667C3.50381 11.6211 3.58181 11.5998 3.65807 11.6108C3.72134 11.6202 3.77247 11.65 3.8002 11.695C3.81753 11.7214 3.82447 11.7545 3.82273 11.8022C3.82013 11.8693 3.81667 11.9816 3.71874 12.0462C3.67887 12.0726 3.63207 12.0862 3.58614 12.0862V12.087ZM3.58181 11.8804C3.58614 11.8804 3.59567 11.8804 3.60001 11.877C3.60694 11.8702 3.60954 11.8396 3.61127 11.8166C3.60261 11.8166 3.59394 11.82 3.58874 11.8243C3.57574 11.8362 3.57487 11.8702 3.58181 11.8812V11.8804Z" fill="white"/>
<path d="M2.11365 13.0717C2.06165 13.0717 2.01225 13.058 1.97065 13.0317C1.82333 12.9373 1.83893 12.7315 1.88486 12.6167C1.93426 12.4935 2.05385 12.3659 2.20205 12.3787C2.27138 12.3846 2.31817 12.4203 2.33551 12.4339C2.45684 12.5266 2.52097 12.7341 2.4239 12.8939C2.37277 12.9773 2.28351 13.041 2.18558 13.0632C2.16131 13.0683 2.13705 13.0717 2.11365 13.0717ZM2.18211 12.5844C2.15611 12.5844 2.10498 12.6338 2.08158 12.6924C2.05818 12.7511 2.05558 12.8395 2.08678 12.8591C2.09805 12.8659 2.11712 12.8676 2.13878 12.8625C2.18038 12.8531 2.22284 12.8234 2.24364 12.7885C2.28524 12.7205 2.24971 12.6295 2.20638 12.5972C2.20031 12.5921 2.19165 12.5853 2.18385 12.5853C2.18385 12.5853 2.18298 12.5853 2.18211 12.5853V12.5844Z" fill="white"/>
<path d="M6.19202 7.41376C6.14002 7.41376 6.09062 7.40015 6.04902 7.37379C5.9017 7.27941 5.91729 7.07364 5.96323 6.95885C6.01262 6.83555 6.13395 6.70801 6.28041 6.72076C6.34975 6.72671 6.39654 6.76243 6.41388 6.77603C6.53521 6.86957 6.59934 7.07619 6.50227 7.23604C6.45114 7.31937 6.36188 7.38315 6.26395 7.40525C6.23968 7.41036 6.21542 7.41376 6.19202 7.41376ZM6.16429 7.20033C6.17555 7.20798 6.19462 7.20884 6.21628 7.20373C6.25788 7.19438 6.30035 7.16462 6.32115 7.12976C6.36275 7.06173 6.32635 6.9716 6.28388 6.93844C6.27782 6.93334 6.26915 6.92654 6.26135 6.92654C6.23448 6.92313 6.18249 6.97415 6.15909 7.03452C6.13569 7.09319 6.13309 7.18163 6.16429 7.20118V7.20033Z" fill="white"/>
<path d="M9.63684 11.5964C9.58484 11.5964 9.53545 11.5828 9.49385 11.5564C9.34652 11.4621 9.36212 11.2563 9.40805 11.1415C9.45745 11.0182 9.57618 10.8907 9.72524 10.9034C9.79457 10.9094 9.84137 10.9451 9.8587 10.9587C9.98003 11.0514 10.0442 11.2588 9.9471 11.4187C9.89597 11.5029 9.8067 11.5658 9.70791 11.5879C9.68364 11.593 9.65938 11.5964 9.63598 11.5964H9.63684ZM9.60911 11.383C9.62038 11.3898 9.63944 11.3915 9.66111 11.3864C9.70271 11.377 9.74517 11.3473 9.76684 11.3124C9.80844 11.2444 9.77204 11.1542 9.72957 11.1211C9.72351 11.116 9.71397 11.1092 9.70704 11.1092C9.68537 11.1058 9.62818 11.1568 9.60478 11.2172C9.58138 11.2758 9.57878 11.3643 9.60998 11.3838L9.60911 11.383Z" fill="white"/>
<path d="M11.0953 16.6854C11.0433 16.6854 10.9939 16.6718 10.9523 16.6455C10.805 16.5511 10.8206 16.3453 10.8665 16.2305C10.9159 16.1072 11.0364 15.9797 11.1837 15.9924C11.2531 15.9984 11.2999 16.0341 11.3172 16.0477C11.4385 16.1404 11.5027 16.3479 11.4056 16.5077C11.3545 16.591 11.2652 16.6548 11.1673 16.6769C11.143 16.682 11.1187 16.6854 11.0953 16.6854ZM11.0676 16.472C11.0789 16.4797 11.0979 16.4805 11.1196 16.4754C11.1612 16.466 11.2037 16.4363 11.2245 16.4014C11.2661 16.3334 11.2305 16.2424 11.1872 16.2101C11.1811 16.205 11.1725 16.1982 11.1647 16.1982C11.1413 16.194 11.0858 16.2458 11.0624 16.3062C11.039 16.3649 11.0364 16.4533 11.0676 16.4728V16.472Z" fill="white"/>
<path d="M10.1823 14.1966C10.1468 14.1966 10.1121 14.189 10.0792 14.1728C9.99078 14.1277 9.93531 14.0198 9.93098 13.882C9.92664 13.7579 9.96651 13.5989 10.0904 13.5249C10.197 13.4611 10.3695 13.4603 10.457 13.5606C10.49 13.598 10.5004 13.6388 10.5073 13.6779C10.5281 13.7944 10.5558 13.9543 10.4371 14.0801C10.3756 14.1456 10.2768 14.1966 10.1823 14.1966ZM10.1762 13.9891C10.191 13.9942 10.2473 13.9764 10.2828 13.939C10.327 13.8922 10.3184 13.8191 10.3002 13.7128C10.2976 13.6975 10.2958 13.6924 10.295 13.6915C10.2854 13.6847 10.23 13.683 10.1996 13.7009C10.1658 13.7213 10.1407 13.7893 10.1407 13.8625C10.1407 13.9407 10.1667 13.9823 10.1754 13.9883L10.1762 13.9891Z" fill="white"/>
<path d="M9.96212 13.2443C9.91879 13.2443 9.87545 13.2324 9.83992 13.2086C9.78359 13.1711 9.74806 13.1065 9.74373 13.0317C9.73853 12.9509 9.76972 12.8735 9.82606 12.8242C9.87979 12.7783 9.95778 12.7571 10.034 12.7681C10.0973 12.7775 10.1484 12.8072 10.1762 12.8523C10.1935 12.8786 10.2004 12.9118 10.1987 12.9594C10.1961 13.0266 10.1926 13.1388 10.0947 13.2035C10.0548 13.2298 10.008 13.2434 9.96212 13.2434V13.2443ZM9.95778 13.0368C9.96212 13.0368 9.97165 13.0368 9.97598 13.0334C9.98292 13.0266 9.98552 12.996 9.98638 12.973C9.97772 12.973 9.96905 12.9764 9.96385 12.9807C9.95085 12.9926 9.94998 13.0266 9.95692 13.0376L9.95778 13.0368Z" fill="white"/>
<path d="M2.31832 4.08485C2.27499 4.08485 2.23166 4.07294 2.19612 4.04914C2.13979 4.01172 2.10426 3.9471 2.09993 3.87227C2.09473 3.79149 2.12593 3.71412 2.18226 3.6648C2.23599 3.61888 2.31399 3.59763 2.39025 3.60868C2.45351 3.61803 2.50378 3.64779 2.53238 3.69286C2.54971 3.72007 2.55664 3.75323 2.55491 3.8C2.55231 3.86717 2.54884 3.97941 2.45091 4.04403C2.41105 4.07039 2.36425 4.084 2.31832 4.084V4.08485ZM2.31399 3.87823C2.31919 3.87823 2.32785 3.87823 2.33218 3.87482C2.33912 3.86802 2.34172 3.83741 2.34258 3.81445C2.33392 3.81445 2.32525 3.81785 2.32005 3.82211C2.30705 3.83316 2.30619 3.86802 2.31312 3.87908L2.31399 3.87823Z" fill="white"/>
<path d="M2.83118 4.9054C2.77918 4.9054 2.72978 4.89179 2.68818 4.86543C2.54086 4.77105 2.55646 4.56528 2.60239 4.45048C2.65178 4.32719 2.77051 4.19965 2.91957 4.2124C2.98891 4.21835 3.0357 4.25407 3.05304 4.26767C3.17437 4.36035 3.2385 4.56783 3.14143 4.72768C3.0903 4.81101 3.00104 4.87478 2.90311 4.89689C2.87884 4.90199 2.85458 4.9054 2.83118 4.9054ZM2.89964 4.41817C2.87364 4.41817 2.82165 4.46749 2.79825 4.52616C2.77485 4.58483 2.77225 4.67326 2.80345 4.69282C2.81471 4.69962 2.83378 4.70132 2.85544 4.69622C2.89704 4.68687 2.93951 4.65711 2.96031 4.62225C3.00191 4.55422 2.96637 4.46324 2.92304 4.43093C2.91697 4.42583 2.90744 4.41902 2.90051 4.41902C2.90051 4.41902 2.89964 4.41902 2.89878 4.41902L2.89964 4.41817Z" fill="white"/>
<path d="M3.66663 5.71572C3.61463 5.71572 3.56523 5.70211 3.52363 5.67575C3.3763 5.58137 3.3919 5.3756 3.43784 5.2608C3.48723 5.13751 3.6077 5.01082 3.75502 5.02272C3.82522 5.02867 3.87115 5.06439 3.88935 5.07799C4.01068 5.17067 4.07481 5.37815 3.97688 5.538C3.92575 5.62133 3.83649 5.6851 3.73856 5.70721C3.71429 5.71231 3.69003 5.71572 3.66663 5.71572ZM3.6389 5.50229C3.65016 5.50909 3.66923 5.51079 3.69089 5.50569C3.73249 5.49634 3.77496 5.46658 3.79662 5.43172C3.83822 5.36369 3.80182 5.27356 3.75936 5.2404C3.75242 5.2353 3.74462 5.22849 3.73682 5.22849C3.71256 5.22424 3.65796 5.27696 3.63456 5.33648C3.61116 5.39515 3.60856 5.48358 3.6389 5.50314V5.50229Z" fill="white"/>
</g>
<defs>
<clipPath id="clip0_487_12317">
<rect width="18" height="18" fill="white"/>
</clipPath>
</defs>
</svg>
