<svg width="174" height="65" viewBox="0 0 174 65" fill="none" xmlns="http://www.w3.org/2000/svg">
<path d="M5.14568 39.0632L5.09097 39.1171C5.14568 39.0632 5.14568 39.0632 5.14568 39.0093V38.74C5.74748 35.562 6.89636 32.4378 8.04524 29.3675C9.24883 26.1357 10.3977 22.9576 11.9295 19.8873C13.352 16.9786 14.9932 14.1238 16.8533 11.4844C18.4946 9.06051 20.4641 6.42113 22.9807 4.80519C23.7466 4.58973 24.5125 3.78176 25.4973 3.94335C26.482 4.10495 26.482 5.12838 26.2632 6.09795C26.5368 5.34384 26.7009 4.53587 26.0444 3.99722C25.169 3.35084 23.4731 4.37427 22.7619 4.85906C22.4336 4.96678 22.1054 5.18224 21.8318 5.3977C21.9959 5.23611 22.2148 5.07452 22.4883 4.91292L22.2148 5.02065L22.9807 4.58973C23.856 4.10495 25.8255 3.02765 26.482 4.42814C26.9744 5.5593 26.2085 7.44456 25.8255 8.52186C25.1143 10.3533 24.239 12.0769 23.3089 13.8006C23.4731 13.4236 24.1296 11.9692 24.1296 11.9692C23.7466 11.9153 21.9959 15.9013 21.6677 16.0091H21.7224C21.5036 16.1707 21.3394 16.3323 21.3394 16.3861C21.23 17.0325 21.9959 16.8709 22.4336 16.817C24.2937 16.6016 26.7009 15.0395 27.9045 13.6929C29.2175 12.2385 29.7099 10.0301 29.7099 8.09094V8.03708C29.6551 4.37427 27.0838 -0.2581 22.6524 0.0112233C20.1906 0.118955 17.8928 2.489 16.3062 4.10495C15.1574 5.3977 14.0632 6.79819 13.0784 8.19867C12.6408 8.84505 12.2031 9.43756 11.8201 10.0839C11.3825 10.6765 10.5071 11.5922 10.2883 12.2924C10.2883 12.2924 10.5618 11.9692 10.7807 11.7538C10.1789 12.6694 9.63179 13.639 9.0847 14.5547C9.02999 14.5009 9.41295 13.7467 9.41295 13.7467C8.92057 13.639 6.67752 18.0559 6.40398 18.5407C5.41922 20.3183 4.54389 22.0958 3.94209 23.9811C3.28559 26.0818 2.41025 28.0748 1.75375 30.1216C1.42549 31.1451 1.09724 32.1146 0.878408 33.1381C0.76899 33.6229 0.659573 34.0538 0.604864 34.5386C0.604864 34.5924 0.495447 35.4543 0.604864 35.3465C0.495447 35.7236 0.495447 36.2084 0.440738 36.5854C0.440738 36.5854 0.440738 35.6697 0.495447 35.562C0.276613 35.8313 0.440738 36.8547 0.38603 36.9625C0.112487 39.0093 -0.325182 41.1639 0.38603 43.1569C1.31608 45.904 3.61384 48.1663 6.13044 49.6207C7.44344 50.4287 9.19412 51.3444 10.8354 51.2366C12.7502 51.1289 14.6103 49.5668 16.0327 48.4357C20.1906 44.9883 23.9655 40.1405 24.6767 34.6463C24.7314 34.2692 25.0049 32.384 24.3484 32.3301C23.7466 32.2762 23.3089 33.569 23.0901 33.8922C21.4489 36.5316 19.534 39.0093 17.4004 41.2717C15.2121 43.6417 12.4766 46.1733 9.13941 46.9275C8.70174 47.0352 8.20936 47.0891 7.71699 47.0891C7.06048 47.0352 6.45869 46.8736 5.96631 46.3888C5.69277 46.1195 5.41922 45.2038 5.09097 45.0422C5.09097 44.7729 5.03626 44.5035 4.98155 44.3419L4.81743 44.0188C4.76272 42.4028 4.81743 40.8946 5.09097 39.2248V39.1709C5.09097 39.1171 5.14568 39.1171 5.14568 39.0632ZM14.7744 12.7233C12.6408 16.1707 10.8354 19.7257 9.02999 23.3885C7.99053 25.5431 6.95107 27.7516 6.13044 30.0678C7.27932 26.4588 8.64703 23.0115 10.2883 19.5641C12.2578 15.4166 14.8838 11.3767 18.0022 8.03708C16.7439 9.54529 15.6497 11.269 14.7744 12.7233ZM20.4094 6.79819C19.6435 7.5523 18.9323 8.41413 18.2758 9.22211C19.3152 7.87548 20.4094 6.52887 21.7771 5.45157C21.2847 5.88249 20.7923 6.42113 20.4094 6.79819ZM25.9897 7.22911C26.0991 6.90592 26.2085 6.52887 26.2632 6.09795C26.1538 6.58273 25.935 7.06751 25.935 7.44457C25.9897 7.33684 25.9897 7.28297 25.9897 7.22911Z" fill="#408F95"/>
<path d="M52.4699 29.96C52.4699 29.96 52.5246 30.0139 52.4699 29.9062C52.1964 29.5291 51.8134 29.7985 51.4305 29.9062C49.8439 30.2294 48.2026 30.6064 46.5614 30.8758C47.1632 28.9366 47.765 26.8898 47.9838 24.8968C48.0932 24.1427 48.1479 23.3347 47.9838 22.5806C47.8744 22.0958 47.7103 21.611 47.4367 21.1801C47.4367 21.1801 46.7802 20.3721 46.9444 20.803L46.8896 20.7492L46.6708 20.3183L46.8896 20.5337C46.9444 20.2105 46.0143 19.618 46.0143 19.618C44.6466 18.2714 42.7865 17.248 40.9264 18.2714C39.7775 18.9178 38.8475 19.9951 38.0816 21.0724C37.808 21.4494 37.5345 21.8803 37.3156 22.3113C37.0968 22.7422 36.7685 24.1427 36.4403 24.3581C36.1668 24.5736 35.3461 24.6274 34.9632 24.8429C34.4161 25.0584 33.9237 25.3277 33.486 25.6509C32.4466 26.2972 31.6259 27.2129 30.86 28.1286C29.547 29.8523 28.8905 31.7915 27.9605 33.5151C26.2098 36.8009 28.1246 41.1101 31.3524 42.6721C32.3919 43.1569 33.5954 43.3724 34.6896 43.2646C35.8385 43.1031 36.9327 42.5106 37.808 41.8642C38.6286 41.2717 40.434 40.1944 40.7623 39.2787C40.7623 39.2248 40.6529 39.2787 40.4887 39.4403L42.0753 37.6089C42.13 37.6627 41.6923 38.2014 41.6923 38.2014C42.0753 38.363 44.0448 35.5081 44.2636 35.2927C44.6466 34.6463 45.0295 33.946 45.4672 33.2997C45.8502 32.8149 45.7408 32.8688 46.2878 32.6533C46.2331 32.7072 46.9444 32.4917 47.0538 32.4917C47.6556 32.384 54.0565 31.953 52.4699 29.96ZM33.5407 40.8407H33.486C28.9452 41.4871 34.1972 32.0069 34.3067 31.4683L33.9784 31.953C34.799 30.3371 35.565 29.0443 35.9479 28.6134C36.5497 31.3067 39.504 32.3301 41.9112 32.6533C40.3246 35.7775 37.3703 40.1405 33.5407 40.8407ZM44.3183 25.9202C43.9354 27.4284 43.6071 29.4214 42.7865 30.768C42.513 31.3067 42.6771 31.1451 42.13 31.2528C41.8017 31.3605 41.0905 31.2528 40.7623 31.1989C40.1605 31.1451 39.4493 31.0373 39.0116 30.6603C38.2457 30.0139 38.3551 28.9905 38.4645 28.0748C38.5739 27.1591 38.8475 26.2972 39.1757 25.4354C39.3399 25.1122 40.3793 23.3885 40.2152 23.0654C40.1605 22.9038 39.5587 23.8733 39.504 23.9272C39.8322 23.3347 40.1605 23.0115 40.434 22.6344C40.3793 22.6344 40.434 22.5806 40.4887 22.4728V22.5267L40.5434 22.419C40.5434 22.419 40.5434 22.3651 40.5982 22.3651C41.4188 21.2878 43.443 18.8639 44.5372 20.5337C45.3578 21.9342 44.5919 24.5736 44.3183 25.9202ZM40.5434 22.419L40.5982 22.3651C40.5982 22.419 40.5434 22.419 40.5434 22.419Z" fill="#408F95"/>
<path d="M81.0073 30.2294V30.1755C80.6791 28.398 78.2172 31.3605 77.8889 31.6299C76.3024 33.3535 74.8252 35.2388 73.4028 37.1241C71.9804 39.0632 70.6127 41.0023 69.1355 42.9415C68.4243 43.911 67.7131 44.8267 66.8925 45.6886C66.6189 46.0118 65.9624 46.9275 65.4701 46.9275C63.5553 46.9275 65.0324 39.3325 65.2512 38.1475C65.5795 36.0468 65.7436 33.2458 67.1113 31.576C67.4396 31.1451 71.1598 26.4588 71.1598 26.4588C71.0503 26.405 70.6127 26.9436 70.3391 27.2668L72.6916 24.1427L72.8557 23.9272L73.2934 23.3347C73.3481 23.3885 73.2934 23.4963 73.2387 23.604L73.7311 23.0654L75.1535 21.234C76.193 19.7796 77.1777 18.2175 78.1077 16.7093C79.5849 14.2315 81.6091 10.6765 80.5149 7.66002C79.6943 5.45157 76.6853 5.02065 74.6611 5.77476C73.184 6.31341 71.9257 7.44457 70.8862 8.62959C70.3391 9.32983 69.792 10.0839 69.2997 10.8919C69.1355 11.1074 68.4243 12.831 68.2602 13.0465H68.3149C67.9866 13.639 67.6584 14.2315 67.4396 14.824C67.549 14.3931 67.8225 13.5313 68.0414 13.3697C67.6037 13.6929 67.2207 15.255 67.1113 15.4166C65.0324 19.8873 63.227 24.412 61.914 29.1521C60.4369 27.4823 58.0844 24.6274 55.5131 25.6509C53.3795 26.5127 51.7929 28.7212 50.6987 30.6603C49.714 32.384 49.4404 34.1615 48.7292 35.8313C47.4709 38.6861 46.8691 44.5574 51.1364 45.4192C52.4494 45.6886 53.653 44.8806 54.6925 44.1804C56.5526 42.8337 58.3032 41.2717 59.9445 39.6557C59.6709 42.5105 59.0691 46.8197 61.4216 49.0821C64.3212 51.9908 67.2207 48.0586 68.9714 45.904C71.2145 43.1031 72.9651 39.9789 75.2082 37.2857C76.3024 35.9929 77.3965 34.7001 78.5454 33.5151C79.4208 32.6533 81.1714 31.576 81.0073 30.2294ZM60.8745 33.7845C60.8198 33.946 60.8198 34.0538 60.8198 34.0538C60.601 35.3465 60.601 36.4777 59.6709 37.3934C58.8503 38.2552 57.975 39.0632 57.0996 39.8712C56.279 40.6253 54.3095 42.8337 53.0512 42.726C51.5194 42.5644 52.6682 39.1171 53.4342 37.0163C52.6135 39.1709 51.3005 42.6721 53.1059 42.7799C53.5983 42.8337 54.4189 42.4028 55.1301 41.8103C54.4736 42.4028 53.3795 43.2108 52.7229 42.8876C51.4647 42.349 52.5588 39.2787 52.7777 38.4168C53.4889 35.939 54.5283 33.569 55.7319 31.3067C56.3337 30.1755 57.2091 28.3441 58.3579 28.2364L58.0844 28.398C58.1391 28.3441 58.1938 28.3441 58.2485 28.3441C58.6315 28.2364 59.0144 28.5057 59.288 28.7212C59.9992 29.2059 60.4369 30.1216 60.9292 30.8219C61.4763 31.6837 61.0934 32.5994 60.8745 33.569V33.7845ZM69.6826 21.3417C69.6826 21.2878 69.6826 21.1801 69.7373 21.1262V21.0724C69.792 20.9108 69.8467 20.8569 69.8467 20.8569V20.803C71.105 17.3557 72.4728 13.9083 74.4423 10.7842C74.9347 9.97621 76.3571 7.49843 77.6154 8.19867C78.1078 8.468 78.2172 9.16824 78.2172 9.65302C78.436 12.8849 75.81 16.7093 74.1687 19.2948C72.2539 22.3112 70.1203 25.2738 67.8772 28.0209L69.0808 26.782L70.175 25.4354L67.3849 28.9905L67.0019 29.4753L66.7831 29.6907C66.8378 29.3675 67.1113 29.0443 67.3849 28.6673C67.2754 28.775 67.166 28.8828 67.1113 28.9905C67.8225 26.6743 68.5885 24.3581 69.4091 22.0419C69.3544 22.0958 69.4091 21.9881 69.4638 21.7726L69.6279 21.5033C69.6279 21.4494 69.6279 21.3955 69.6826 21.3417ZM65.0871 25.7586C64.9777 26.0279 64.6494 27.2668 64.4853 27.4284C64.4853 27.4823 64.4306 27.5361 64.3759 27.5361C64.8136 26.9975 64.54 26.2972 64.7589 25.6509C64.8683 25.3277 65.4154 24.7352 65.5248 24.3042C65.5248 24.7352 65.2512 25.4893 65.0871 25.7586ZM56.3884 40.6791C57.7561 39.4941 59.0692 38.2552 60.3274 36.9625C60.218 37.6627 58.5221 38.8477 57.9203 39.3864C57.2091 40.0866 56.3884 40.7869 55.5678 41.4333H55.5131L56.3884 40.6791ZM66.0719 20.8569C65.853 21.5033 65.5795 22.0958 65.2512 22.6883C65.5248 21.8803 65.6889 21.0724 66.0719 20.3183C66.4001 19.7257 66.7831 18.9716 67.0566 18.2714C66.7831 19.1332 66.3454 20.0489 66.0719 20.8569ZM69.6279 21.5033L69.4091 22.0419C69.4091 21.9881 69.4638 21.8803 69.4638 21.7726L69.6279 21.5033ZM57.8109 28.6134C57.592 28.775 57.4279 28.9905 57.3732 28.9905C57.4826 28.9905 57.6467 28.775 57.8109 28.6134ZM59.3427 28.5057C59.4521 28.5596 59.5615 28.6134 59.6709 28.7212L59.3427 28.5057ZM70.175 27.5361C70.175 27.4823 70.2297 27.4284 70.2844 27.3745C70.2297 27.4823 70.175 27.5361 70.175 27.5361ZM70.2844 27.3745L70.3391 27.2668C70.3391 27.3207 70.2844 27.3745 70.2844 27.3745Z" fill="#408F95"/>
<path d="M97.9439 30.0678C97.9439 30.1216 97.9439 30.1216 97.8892 30.0678V30.0139C97.0139 28.5596 95.865 30.5526 95.3726 31.2528C94.4426 32.4917 93.5672 33.6767 92.5825 34.8079C91.7618 35.7775 90.8865 36.747 90.23 37.7704C90.23 37.8782 90.1206 38.1475 90.1206 38.1475C89.9017 38.4707 89.5735 38.74 89.2999 39.0632C88.8076 39.548 88.3152 40.0866 87.7681 40.5714C86.9475 41.3255 82.3519 45.5808 81.7502 42.8337C81.4219 41.4871 81.8596 39.8173 82.1331 38.5246C82.2972 37.8243 82.4614 37.1779 82.5708 36.4777C82.6802 35.939 82.5161 35.4004 82.7896 34.8617C82.9537 34.5386 83.0085 34.5924 83.3914 34.4847L84.3215 34.1615C84.9233 33.946 85.525 33.7306 86.0721 33.4074C86.8928 32.9226 87.6587 32.3301 88.3699 31.7376C90.0659 30.3371 91.8712 28.6673 92.5825 26.5666C92.9654 25.3815 93.0201 24.0888 92.2542 23.0654C91.543 22.1497 90.3394 21.6649 89.2452 21.4494C86.291 20.9108 84.0479 22.5806 82.3519 24.789C80.273 27.3207 78.7959 30.4448 78.0847 33.6229C77.7017 35.1849 77.4829 36.747 77.2093 38.363C76.9358 39.9789 76.7717 41.4871 77.647 42.9953C77.5923 42.4567 77.4829 41.9719 77.4829 41.4871C77.4829 41.2178 77.5923 40.9485 77.5923 40.733C77.5923 40.6253 77.4829 40.3021 77.4829 40.1405C77.4829 39.6557 77.5923 39.2787 77.7017 38.7939C77.7564 38.3091 77.7017 37.8243 77.7564 37.3395C77.8111 36.8009 78.03 36.37 78.2488 35.8852C78.4129 35.4543 78.4676 35.0772 78.6318 34.6463C78.7959 34.2692 78.9053 33.8383 79.0694 33.4074C79.1241 33.1381 79.3977 32.8149 79.5618 32.4917C79.3977 32.9765 79.0694 33.4074 78.96 33.8383C78.7959 34.4847 78.9053 35.1849 78.8506 35.8313C78.7412 36.5316 78.5223 37.2318 78.4129 37.9859C78.3035 38.6861 77.9753 39.3325 77.8658 40.0328C77.7564 40.6791 77.5376 41.1639 77.5923 41.8103C77.5923 42.1874 77.647 42.5644 77.7017 42.8876C77.7564 43.3185 78.03 43.5878 78.3035 43.911C79.2336 44.9883 80.4918 45.8502 81.9143 46.2272C82.899 46.4965 83.7744 46.4427 84.7044 45.9579C86.0174 45.2576 87.1663 44.1804 88.1511 43.1569C89.0811 42.1335 89.7923 41.0023 90.6129 39.925C91.3789 38.9555 92.3089 38.0398 93.0748 37.0702L96.0291 33.2997L97.7251 31.0912C97.9986 30.768 98.1627 30.4987 97.9439 30.0678ZM84.3762 30.6603C84.4309 30.5526 84.4309 30.4987 84.4309 30.4987C85.2515 28.775 85.8533 26.9436 87.0022 25.2738L87.9869 23.9811C88.2058 23.7117 88.5887 23.227 88.9717 23.1192C89.7923 22.9576 90.0112 24.3581 89.9565 24.8968L89.7376 26.0279C89.6829 26.3511 89.7923 26.5666 89.7376 26.8359C89.6282 27.1591 89.3546 27.3207 89.1905 27.59L88.2605 28.775C87.0022 30.2294 85.4156 31.4683 83.665 32.384C83.9385 31.7915 84.1026 31.1989 84.3762 30.6603Z" fill="#408F95"/>
<path d="M127.571 14.2854C127.352 12.5617 124.672 11.269 123.195 12.2924C121.991 13.1004 120.897 15.3088 120.021 16.6016L114.66 24.5736C113.839 25.8125 113.019 27.0514 112.143 28.2364C111.925 28.6134 109.846 31.7915 109.846 31.7915C110.064 31.8453 110.557 31.0912 110.666 30.9835C109.189 33.0303 107.274 35.1849 105.469 37.2318C104.867 37.9859 101.256 42.6721 99.9433 42.0796C99.5057 41.8642 99.3962 41.1639 99.3415 40.7869C98.9039 37.932 99.998 35.0772 100.326 32.3301L100.107 32.8687L100.436 31.5221C100.436 31.6837 100.381 31.8453 100.381 32.0069L100.436 31.6837L100.272 33.2997C101.038 30.0678 102.132 26.9436 103.39 23.9272C103.718 23.1731 106.891 15.3627 107.548 14.6624C107.438 14.7163 107.274 14.9318 107.11 15.1472C108.15 13.262 109.244 11.4844 110.502 9.76075C110.229 10.1917 109.736 10.9996 109.736 10.9996C109.955 11.0535 112.143 8.09094 112.143 7.76776C112.143 7.71389 111.979 7.82162 111.815 7.92935C112.362 7.22911 112.745 6.85205 112.307 5.66703C111.651 4.32041 109.736 2.6506 108.15 3.45857C107.821 3.67403 107.603 3.94335 107.384 4.21268C106.235 5.66703 105.305 7.5523 104.539 9.16824C104.265 9.81462 104.046 9.92235 103.609 10.4071C102.898 11.2151 102.515 12.2924 102.022 13.2081C101.037 15.1472 100.272 17.1941 99.3962 19.1871C98.5209 21.0185 97.8097 22.9038 97.2079 24.8429C96.9344 25.597 96.7155 26.3511 96.4967 27.1052C96.2778 27.8593 95.5119 29.2598 95.6213 30.0678L95.9496 29.3675C95.6761 30.2832 95.4572 31.2528 95.2384 32.2224C95.1837 32.2224 95.2931 31.5221 95.2931 31.5221C95.0743 31.5221 94.5819 33.8922 94.4725 34.2154C94.2536 35.3465 94.0895 36.4777 93.9801 37.6627C93.9254 38.9016 93.9801 40.0328 94.5819 41.1639C95.7308 43.1569 97.8097 45.0961 100.053 45.7963C100.436 45.904 100.873 46.0118 101.256 45.9579C101.639 45.904 102.022 45.7424 102.296 45.4731C102.515 45.3654 103.39 44.4497 102.788 44.8806L103.828 43.911C103.828 43.911 103.335 44.5035 103.171 44.6113C103.445 44.5035 104.046 43.6956 104.046 43.6956C105.852 41.7564 107.657 39.8712 109.299 37.7704C110.994 35.5081 112.526 33.0303 114.058 30.6064C113.62 31.8992 113.511 33.1919 113.128 34.4847C112.909 35.1849 112.69 35.8852 112.526 36.5854C112.417 36.8547 112.307 38.1475 112.417 38.0398C112.417 38.2014 112.417 38.3091 112.362 38.4168C112.362 38.363 112.362 38.3091 112.307 38.2552C112.143 38.3091 112.143 39.925 112.089 40.1944C111.87 40.9485 111.542 41.6487 111.432 42.5105C111.159 44.7729 111.323 47.4122 112.745 49.3514C113.62 50.5364 114.934 51.1828 116.411 51.2905C117.997 51.3444 118.873 50.4825 119.693 49.2975C120.24 48.4895 120.733 47.7893 121.061 46.8736C121.334 46.1195 121.882 44.6651 121.553 43.911C121.334 43.4262 121.225 43.3724 120.787 43.5878C120.186 43.8033 119.474 45.0961 119.091 45.5808C118.544 46.1734 117.45 47.6816 116.52 47.7893C115.973 47.8432 116.082 47.7354 115.973 47.0891C115.918 46.712 115.918 44.1804 115.973 44.1265C115.809 44.3419 115.754 44.5574 115.699 44.7729C115.918 42.9953 116.684 40.8407 117.231 38.9555C117.888 36.747 118.38 34.5386 118.982 32.3301C119.638 30.0678 120.514 27.8055 121.444 25.6509C121.663 25.1661 124.125 19.8335 124.508 19.3487C124.125 19.618 122.155 23.7117 121.499 25.0584C122.812 21.9881 124.343 19.0255 126.258 16.2245C126.313 16.2245 125.711 17.1402 125.821 17.1402C125.985 17.248 127.298 15.255 127.188 15.2011C127.134 15.2011 127.079 15.2011 127.024 15.255C127.298 14.9856 127.626 14.824 127.571 14.2854ZM113.292 39.8712C112.8 42.0796 112.253 45.0422 112.69 47.2506C112.198 44.7729 112.362 41.9719 112.8 39.4941C113.128 37.4473 113.73 35.562 114.441 33.6767C113.839 35.8313 113.785 37.7166 113.292 39.8712ZM104.156 19.4025C105.688 15.7936 107.876 12.5079 110.174 9.3837C107.876 12.6156 106.016 16.1168 104.375 19.7257C103.116 22.5806 101.968 25.3277 101.147 28.1825C101.311 27.4284 101.475 26.6743 101.749 25.9202C102.405 23.7117 103.281 21.5571 104.156 19.4025ZM102.898 24.6274C103.882 21.9881 105.031 19.3487 106.344 16.7632C105.141 19.241 103.499 23.1192 102.898 24.6274ZM120.24 28.1825C120.076 28.6673 119.857 29.1521 119.638 29.583L120.623 27.1052L120.24 28.1825Z" fill="#408F95"/>
<path d="M155.665 30.0139C155.337 30.0678 152.492 30.9296 152.656 31.3605C152.656 31.4144 152.766 31.4683 152.82 31.4683C151.89 31.8453 150.687 31.8992 149.757 32.4917C148.717 33.1919 147.733 33.8922 146.638 34.4847C147.623 32.8149 148.553 31.0373 149.155 29.2598C149.374 28.6134 150.632 24.6274 149.812 24.1965C149.702 24.1427 149.647 24.6274 149.593 24.8968C149.647 22.7422 148.936 19.4564 145.982 19.241C144.177 19.1332 142.481 21.3417 141.496 22.5267C139.253 25.3277 137.283 28.3441 135.314 31.2528C134.767 32.0608 129.296 40.7869 129.296 40.7869C129.296 40.7869 129.679 40.2482 130.171 39.548C129.679 40.356 129.186 41.2178 128.749 42.0796C128.968 41.2717 131.046 34.8617 132.359 31.0912C132.469 30.9296 132.524 30.7142 132.578 30.5526L132.907 29.6369V29.6907C133.399 28.2364 133.891 26.782 134.329 25.2738C134.329 25.4354 134.11 26.2434 134.165 26.2434C134.493 26.2972 134.931 24.0349 134.712 24.0349L134.548 24.3042C134.712 23.4963 134.985 23.1192 134.493 22.2035C134.11 21.3955 133.454 20.6414 132.524 20.426C130.718 19.9412 129.843 21.3955 129.952 22.796C129.952 23.0115 130.226 23.1192 130.226 23.3347C130.226 23.604 129.952 24.0888 129.898 24.3042C129.515 25.4354 129.241 26.5127 128.803 27.59C128.585 28.1825 126.56 33.7845 126.56 33.7845C126.67 33.7306 126.724 33.6229 126.779 33.5151C126.615 33.9999 126.451 34.4847 126.232 34.9695C126.177 34.9156 126.396 34.5386 126.287 34.5386C125.74 34.4308 124.372 38.9555 124.263 39.3864C124.044 40.4098 123.77 41.3794 123.387 42.4028C123.223 42.9415 123.004 43.4801 122.84 44.0726C122.84 44.1265 122.567 45.4192 122.84 44.9345C122.785 45.0961 122.731 45.2038 122.731 45.3115C122.731 45.2576 122.676 45.2038 122.676 45.1499C122.512 45.2038 122.403 46.3349 122.403 46.3888C122.184 46.9813 121.91 47.4122 121.637 47.9509C120.925 49.6746 120.542 51.5598 120.269 53.3912C119.831 56.1922 118.518 60.3937 119.941 62.9792C120.433 63.8949 121.965 65.7801 123.168 64.649C123.716 64.1103 123.716 62.8714 123.77 62.2251C124.098 60.4475 124.372 58.6161 124.755 56.8386L125.247 54.3608C125.302 54.2531 125.74 52.2601 125.576 52.3139C125.466 52.4217 125.357 52.5833 125.302 52.7449C125.576 51.883 125.959 51.075 126.287 50.1593C126.724 48.8666 127.053 47.6277 127.709 46.4427C128.475 45.2576 129.132 43.9649 129.843 42.7799C130.39 41.8103 130.882 40.5714 131.484 39.7634C131.648 39.548 131.977 39.4403 132.25 39.2248C132.797 38.6323 133.18 37.8243 133.618 37.1779C134.438 35.8852 135.15 34.5924 136.025 33.4074C136.408 32.8687 140.785 26.8359 141.222 26.4588C141.113 26.5127 141.003 26.5666 140.894 26.6743C141.332 26.1357 141.824 25.6509 142.262 25.2199C142.316 25.2738 141.933 25.597 141.988 25.6509C142.098 25.7047 144.614 23.7656 145.052 23.7117C146.255 23.4963 145.818 25.7586 145.654 26.3511C145.38 27.59 144.669 28.775 144.067 29.8523C143.739 30.4448 143.411 30.9835 143.137 31.576C143.082 31.6299 142.645 32.6533 142.809 32.5456L142.481 33.0303C142.59 32.8687 142.645 32.6533 142.645 32.6533C142.426 32.6533 142.152 33.569 142.098 33.7306C141.769 34.2692 141.332 34.7001 140.894 35.1311C139.745 36.4238 138.706 37.7704 137.557 39.0093C136.681 39.925 135.533 41.541 134.22 41.8642C133.29 42.0796 132.578 41.5948 133.071 43.0492C133.399 44.0726 134.603 46.4427 135.916 46.4427C137.119 46.4427 138.596 44.6651 139.307 43.911C140.128 42.9953 141.058 42.1335 141.933 41.1639C142.152 40.8407 144.669 37.8782 145.052 37.7166H144.997C145.544 37.4473 146.091 37.6627 146.857 37.1241C147.295 36.8009 147.514 36.4777 148.006 36.1545C148.389 35.939 148.553 35.6697 148.717 35.5081C148.717 35.5081 148.717 35.562 148.772 35.562C149.319 35.0233 150.085 35.1849 150.796 34.7001C151.672 34.1076 152.766 33.3535 153.532 32.6533C154.516 31.7915 155.884 31.3067 156.322 29.8523C156.103 29.9062 155.829 29.9062 155.665 30.0139ZM127.655 35.5081V35.562C127.6 36.2622 127.107 37.0702 126.834 37.7166C126.451 38.74 126.123 39.7634 125.794 40.7869C125.083 42.9415 124.263 45.0961 123.387 47.1429C122.676 48.8666 122.02 50.7519 121.527 52.6371C122.129 49.9978 123.114 47.4122 123.88 44.9345C124.591 42.6721 125.685 40.4637 126.56 38.2552C126.67 37.9859 127.709 35.8313 127.6 35.4004C127.655 35.4543 127.655 35.5081 127.655 35.5081ZM130.062 37.1241C129.898 37.7704 129.733 38.363 129.515 38.9016C129.679 38.363 129.843 37.7166 130.062 37.1241ZM137.557 28.2902L136.517 29.7985C136.846 29.3137 137.174 28.775 137.557 28.2902ZM146.474 34.8079C146.529 34.6463 146.803 34.5924 146.967 34.4847L146.474 34.8079ZM133.399 28.5057C133.344 28.5596 133.29 28.7212 133.235 28.9366L133.399 28.5057ZM135.861 30.768V30.7142C135.916 30.6603 135.916 30.6603 135.916 30.6064C135.97 30.5526 135.916 30.6603 135.861 30.768ZM133.016 29.4214C133.016 29.5291 132.961 29.583 132.907 29.6369L133.016 29.4214ZM121.418 53.1219C121.418 53.068 121.418 53.068 121.472 53.0142C121.472 53.068 121.472 53.068 121.418 53.1219ZM130.39 36.4777C130.39 36.5316 130.335 36.5316 130.335 36.5316L130.39 36.4777Z" fill="#408F95"/>
<path d="M173.988 30.7142C173.823 29.9601 173.386 29.8523 172.839 30.0678C171.799 30.5526 170.76 31.6299 169.775 32.2762C167.532 33.6767 165.289 34.8079 162.882 35.9929C162.882 35.939 162.827 35.8313 162.772 35.6697C162.827 35.939 162.772 36.0468 162.718 36.1006C162.171 33.7845 161.623 31.4683 161.186 29.0982C161.405 30.1216 161.897 31.8453 162.28 33.2997C161.788 31.0373 161.186 28.2364 161.24 28.2364C161.131 28.2902 161.131 28.398 161.131 28.5057C161.022 27.8593 160.858 27.0514 160.967 26.3511C161.022 25.5431 161.459 24.8429 161.733 24.0888C161.678 24.4658 161.569 24.9506 161.569 24.9506C161.897 25.0045 162.116 23.0115 162.116 22.796C162.061 22.4728 161.35 21.4494 161.35 21.7187C159.873 20.3721 156.973 23.3347 156.536 24.6274C156.207 25.4893 156.207 26.405 156.262 27.3207C156.317 28.2364 156.59 29.0443 156.864 29.9062C157.028 30.5526 156.809 30.9835 156.864 31.6837C156.973 32.761 157.356 33.8383 157.575 34.8617C157.794 35.6697 158.505 37.2857 158.341 38.0398C158.232 38.7939 156.59 39.4403 155.879 39.8712C154.949 40.4637 154.019 41.1639 153.089 41.8642C151.448 43.1031 149.697 44.6651 149.04 46.6581C148.931 46.9275 148.548 48.1125 148.931 48.3279C148.986 48.3818 149.15 47.4661 149.205 47.3584C148.493 50.9134 152.049 52.6371 155.387 52.691C159.162 52.7987 161.788 50.6441 163.101 47.3045C163.648 45.8502 163.812 44.3419 163.757 42.8337C163.757 41.8103 163.648 40.8407 163.484 39.8712C163.374 39.0093 163.265 39.0632 163.867 38.5784C164.304 38.2552 164.961 38.0398 165.398 37.8243C167.149 36.9086 168.736 35.8313 170.322 34.7001C171.471 33.8922 174.206 32.4917 173.988 30.768V30.7142ZM151.885 49.2436C150.463 48.8127 151.885 46.6043 152.378 45.904C153.198 44.8267 154.402 44.0188 155.496 43.2646L157.137 42.1874C157.301 42.0796 158.341 41.2717 158.013 41.3794L158.669 41.0023L158.286 41.3255C158.396 41.2717 158.56 41.2178 158.669 41.1101C158.724 42.4028 158.724 43.6956 158.341 44.9883C158.286 45.2038 157.247 47.3584 156.809 47.7893L157.083 47.5738C156.59 48.1663 156.043 48.6511 155.387 49.0282C155.387 48.9743 155.879 48.6511 155.824 48.5973L154.293 49.1898C153.527 49.3514 152.651 49.513 151.885 49.2436ZM158.779 50.8057C157.356 51.3982 155.988 51.6676 154.511 51.7214C157.192 51.5598 159.982 50.2671 161.569 48.0586C160.967 49.2436 160.201 50.1593 158.779 50.8057ZM162.772 35.5081C162.718 35.1311 162.608 34.5924 162.444 33.9999C162.554 34.5924 162.663 35.1849 162.772 35.5081ZM163.484 41.1101C163.429 41.0562 163.429 40.9485 163.429 40.8407C163.429 40.9485 163.484 41.0562 163.484 41.1101Z" fill="#408F95"/>
</svg>
