<svg width="120" height="45" viewBox="0 0 120 45" fill="none" xmlns="http://www.w3.org/2000/svg">
<path d="M3.54875 27.0438L3.51101 27.081C3.54875 27.0438 3.54875 27.0438 3.54875 27.0065V26.82C3.96378 24.6198 4.75611 22.457 5.54844 20.3314C6.3785 18.0939 7.17083 15.8937 8.22728 13.7682C9.20826 11.7544 10.3402 9.77802 11.623 7.95076C12.7549 6.27266 14.1132 4.4454 15.8488 3.32667C16.377 3.17751 16.9052 2.61814 17.5843 2.73001C18.2635 2.84189 18.2635 3.55042 18.1126 4.22166C18.3012 3.69958 18.4144 3.14022 17.9616 2.76731C17.358 2.31981 16.1883 3.02834 15.6978 3.36396C15.4715 3.43854 15.2451 3.58771 15.0564 3.73687C15.1696 3.625 15.3205 3.51313 15.5092 3.40125L15.3205 3.47584L15.8488 3.17751C16.4524 2.84189 17.8107 2.09607 18.2635 3.06563C18.6031 3.84875 18.0748 5.15393 17.8107 5.89975C17.3202 7.16764 16.7165 8.36096 16.0751 9.55427C16.1883 9.29323 16.6411 8.28638 16.6411 8.28638C16.377 8.24908 15.1696 11.0086 14.9432 11.0832H14.981C14.83 11.1951 14.7169 11.3069 14.7169 11.3442C14.6414 11.7917 15.1696 11.6799 15.4715 11.6426C16.7543 11.4934 18.4144 10.412 19.2445 9.47969C20.15 8.47283 20.4896 6.9439 20.4896 5.60142V5.56413C20.4518 3.02834 18.6785 -0.178685 15.6224 0.00777C13.9245 0.0823533 12.3399 1.72316 11.2457 2.84189C10.4534 3.73687 9.69875 4.70644 9.01961 5.676C8.71777 6.1235 8.41593 6.5337 8.15182 6.98119C7.84997 7.39139 7.24629 8.02534 7.09537 8.51012C7.09537 8.51012 7.28402 8.28638 7.43494 8.13721C7.01991 8.77116 6.64261 9.4424 6.26531 10.0763C6.22758 10.0391 6.49169 9.51698 6.49169 9.51698C6.15212 9.4424 4.60519 12.5003 4.41654 12.8359C3.7374 14.0665 3.13371 15.2971 2.71868 16.6023C2.26592 18.0566 1.66224 19.4364 1.20948 20.8534C0.983099 21.562 0.756719 22.2332 0.605798 22.9417C0.530338 23.2774 0.454878 23.5757 0.417148 23.9113C0.417148 23.9486 0.341688 24.5453 0.417148 24.4707C0.341688 24.7317 0.341688 25.0673 0.303958 25.3284C0.303958 25.3284 0.303958 24.6944 0.341688 24.6198C0.190767 24.8063 0.303958 25.5148 0.266227 25.5894C0.077577 27.0065 -0.224264 28.4981 0.266227 29.8779C0.907639 31.7797 2.4923 33.3459 4.22789 34.3528C5.13341 34.9122 6.34077 35.5461 7.47267 35.4715C8.79323 35.3969 10.076 34.3155 11.057 33.5324C13.9245 31.1458 16.5279 27.7896 17.0184 23.9859C17.0561 23.7249 17.2448 22.4197 16.792 22.3824C16.377 22.3451 16.0751 23.2401 15.9242 23.4638C14.7923 25.2911 13.4718 27.0065 12.0003 28.5727C10.4911 30.2135 8.60458 31.9662 6.30304 32.4882C6.0012 32.5628 5.66163 32.6001 5.32206 32.6001C4.8693 32.5628 4.45427 32.451 4.1147 32.1153C3.92605 31.9289 3.7374 31.2949 3.51101 31.1831C3.51101 30.9966 3.47329 30.8101 3.43555 30.6983L3.32236 30.4745C3.28463 29.3558 3.32236 28.3116 3.51101 27.1556V27.1183C3.51101 27.081 3.54875 27.081 3.54875 27.0438ZM10.1892 8.80845C8.71777 11.1951 7.47267 13.6563 6.22758 16.1921C5.51071 17.6837 4.79384 19.2126 4.22789 20.8162C5.02022 18.3177 5.96347 15.931 7.09537 13.5444C8.45366 10.673 10.2647 7.87617 12.4153 5.56413C11.5475 6.60828 10.7929 7.80159 10.1892 8.80845ZM14.0754 4.70644C13.5472 5.22851 13.0567 5.82517 12.604 6.38453C13.3208 5.45226 14.0754 4.51998 15.0187 3.77416C14.6791 4.07249 14.3396 4.4454 14.0754 4.70644ZM17.9239 5.00477C17.9994 4.78102 18.0748 4.51998 18.1126 4.22166C18.0371 4.55727 17.8862 4.89289 17.8862 5.15393C17.9239 5.07935 17.9239 5.04206 17.9239 5.00477Z" fill="white"/>
<path d="M36.1862 20.7416C36.1862 20.7416 36.2239 20.7789 36.1862 20.7043C35.9975 20.4432 35.7334 20.6297 35.4693 20.7043C34.3751 20.928 33.2432 21.1891 32.1113 21.3755C32.5263 20.033 32.9414 18.616 33.0923 17.2362C33.1677 16.7141 33.2055 16.1548 33.0923 15.6327C33.0168 15.2971 32.9036 14.9615 32.715 14.6631C32.715 14.6631 32.2622 14.1038 32.3754 14.4021L32.3377 14.3648L32.1868 14.0665L32.3377 14.2156C32.3754 13.9919 31.734 13.5817 31.734 13.5817C30.7908 12.6494 29.5079 11.9409 28.2251 12.6494C27.4328 13.0969 26.7914 13.8427 26.2631 14.5886C26.0745 14.8496 25.8858 15.1479 25.7349 15.4462C25.584 15.7446 25.3576 16.7141 25.1312 16.8633C24.9426 17.0125 24.3766 17.0498 24.1125 17.1989C23.7352 17.3481 23.3957 17.5345 23.0938 17.7583C22.3769 18.2058 21.811 18.8397 21.2828 19.4737C20.3772 20.667 19.9245 22.0095 19.2831 23.2028C18.0757 25.4775 19.3963 28.4608 21.6223 29.5423C22.3392 29.8779 23.1693 30.027 23.9239 29.9524C24.7162 29.8406 25.4708 29.4304 26.0745 28.9829C26.6404 28.5727 27.8855 27.8269 28.1119 27.1929C28.1119 27.1556 28.0365 27.1929 27.9233 27.3048L29.0174 26.0369C29.0552 26.0742 28.7533 26.4471 28.7533 26.4471C29.0174 26.559 30.3757 24.5825 30.5266 24.4334C30.7908 23.9859 31.0549 23.5011 31.3567 23.0536C31.6208 22.718 31.5454 22.7553 31.9227 22.6061C31.8849 22.6434 32.3754 22.4942 32.4509 22.4942C32.8659 22.4197 37.2803 22.1213 36.1862 20.7416ZM23.1315 28.2744H23.0938C19.9622 28.7218 23.5843 22.1586 23.6598 21.7857L23.4334 22.1213C23.9993 21.0026 24.5276 20.1076 24.7917 19.8093C25.2067 21.6738 27.2441 22.3824 28.9042 22.6061C27.8101 24.769 25.7726 27.7896 23.1315 28.2744ZM30.5644 17.9447C30.3003 18.9889 30.0739 20.3687 29.5079 21.3009C29.3193 21.6738 29.4325 21.562 29.0552 21.6366C28.8288 21.7111 28.3383 21.6366 28.1119 21.5993C27.6969 21.562 27.2064 21.4874 26.9046 21.2264C26.3763 20.7789 26.4518 20.0703 26.5273 19.4364C26.6027 18.8024 26.7914 18.2058 27.0177 17.6091C27.1309 17.3854 27.8478 16.1921 27.7346 15.9683C27.6969 15.8565 27.2819 16.5277 27.2441 16.565C27.4705 16.1548 27.6969 15.931 27.8855 15.67C27.8478 15.67 27.8855 15.6327 27.9233 15.5581V15.5954L27.961 15.5208C27.961 15.5208 27.961 15.4835 27.9987 15.4835C28.5647 14.7377 29.9607 13.0596 30.7153 14.2156C31.2812 15.1852 30.753 17.0125 30.5644 17.9447ZM27.961 15.5208L27.9987 15.4835C27.9987 15.5208 27.961 15.5208 27.961 15.5208Z" fill="white"/>
<path d="M55.8671 20.928V20.8907C55.6407 19.6601 53.9429 21.7111 53.7165 21.8976C52.6223 23.0909 51.6036 24.3961 50.6226 25.7013C49.6416 27.0438 48.6984 28.3862 47.6797 29.7287C47.1892 30.3999 46.6987 31.0339 46.1327 31.6305C45.9441 31.8543 45.4913 32.4882 45.1518 32.4882C43.8312 32.4882 44.8499 27.2302 45.0008 26.4098C45.2272 24.9555 45.3404 23.0163 46.2837 21.8603C46.51 21.562 49.0757 18.3177 49.0757 18.3177C49.0002 18.2804 48.6984 18.6533 48.5097 18.877L50.1321 16.7141L50.2453 16.565H50.2831H50.2453L50.5472 16.1548C50.5849 16.1921 50.5472 16.2667 50.5094 16.3412L50.849 15.9683L51.83 14.7004C52.5469 13.6936 53.226 12.6121 53.8674 11.568C54.8861 9.8526 56.2821 7.39139 55.5275 5.30309C54.9616 3.77416 52.8864 3.47584 51.4904 3.99791C50.4717 4.37082 49.6039 5.15393 48.887 5.97433C48.5097 6.45912 48.1324 6.98119 47.7929 7.54055C47.6797 7.68972 47.1892 8.88303 47.076 9.0322H47.1137C46.8873 9.4424 46.661 9.8526 46.51 10.2628C46.5855 9.96447 46.7742 9.36781 46.9251 9.25594C46.6232 9.47969 46.3591 10.5611 46.2837 10.673C44.8499 13.7682 43.6048 16.9006 42.6993 20.1822C41.6806 19.0262 40.0582 17.0498 38.2849 17.7583C36.8134 18.3549 35.7192 19.8839 34.9646 21.2264C34.2855 22.4197 34.0969 23.6503 33.6064 24.8063C32.7386 26.7827 32.3235 30.8474 35.2665 31.4441C36.172 31.6305 37.0021 31.0712 37.7189 30.5864C39.0018 29.6541 40.2091 28.5727 41.341 27.454C41.1524 29.4304 40.7373 32.4137 42.3597 33.9799C44.3594 35.9936 46.3591 33.2714 47.5665 31.7797C49.1134 29.8406 50.3208 27.6777 51.8677 25.8132C52.6223 24.9182 53.3769 24.0232 54.1693 23.2028C54.7729 22.6061 55.9803 21.8603 55.8671 20.928ZM41.9824 23.3892C41.9447 23.5011 41.9447 23.5757 41.9447 23.5757C41.7938 24.4707 41.7938 25.2538 41.1524 25.8877C40.5864 26.4844 39.9827 27.0438 39.3791 27.6031C38.8131 28.1252 37.4548 29.6541 36.587 29.5795C35.5306 29.4677 36.3229 27.081 36.8511 25.6267C36.2852 27.1183 35.3797 29.5423 36.6248 29.6168C36.9643 29.6541 37.5303 29.3558 38.0208 28.9456C37.568 29.3558 36.8134 29.9152 36.3607 29.6914C35.4929 29.3185 36.2475 27.1929 36.3984 26.5963C36.8889 24.8809 37.6057 23.2401 38.4358 21.6739C38.8508 20.8907 39.4545 19.6228 40.2469 19.5483L40.0582 19.6601C40.0959 19.6228 40.1337 19.6228 40.1714 19.6228C40.4355 19.5483 40.6996 19.7347 40.8883 19.8839C41.3788 20.2195 41.6806 20.8534 42.0202 21.3382C42.3975 21.9349 42.1334 22.5688 41.9824 23.2401V23.3892ZM48.057 14.775C48.057 14.7377 48.057 14.6631 48.0947 14.6258V14.5886C48.1324 14.4767 48.1702 14.4394 48.1702 14.4394V14.4021C49.038 12.0155 49.9812 9.62885 51.3395 7.46597C51.6791 6.90661 52.6601 5.19122 53.5278 5.676C53.8674 5.86246 53.9429 6.34724 53.9429 6.68286C54.0938 8.92032 52.2827 11.568 51.1508 13.358C49.8303 15.4462 48.3588 17.4973 46.8119 19.3991L47.642 18.5414L48.3966 17.6091L46.4723 20.0703L46.2082 20.406L46.0573 20.5551C46.095 20.3314 46.2837 20.1076 46.4723 19.8466C46.3969 19.9212 46.3214 19.9958 46.2837 20.0703C46.7742 18.4668 47.3024 16.8633 47.8683 15.2598C47.8306 15.2971 47.8683 15.2225 47.9061 15.0733L48.0192 14.8869C48.0192 14.8496 48.0193 14.8123 48.057 14.775ZM44.8877 17.8329C44.8122 18.0193 44.5858 18.877 44.4726 18.9889C44.4726 19.0262 44.4349 19.0635 44.3972 19.0635C44.699 18.6906 44.5104 18.2058 44.6613 17.7583C44.7367 17.5345 45.114 17.1243 45.1895 16.826C45.1895 17.1243 45.0008 17.6464 44.8877 17.8329ZM38.8886 28.1625C39.8318 27.3421 40.7373 26.4844 41.6051 25.5894C41.5297 26.0742 40.36 26.8946 39.945 27.2675C39.4545 27.7523 38.8886 28.2371 38.3226 28.6846H38.2849L38.8886 28.1625ZM45.5668 14.4394C45.4159 14.8869 45.2272 15.2971 45.0008 15.7073C45.1895 15.1479 45.3027 14.5886 45.5668 14.0665C45.7932 13.6563 46.0573 13.1342 46.2459 12.6494C46.0573 13.2461 45.7554 13.88 45.5668 14.4394ZM48.0192 14.8869L47.8683 15.2598C47.8683 15.2225 47.9061 15.1479 47.9061 15.0733L48.0192 14.8869ZM39.8696 19.8093C39.7186 19.9212 39.6054 20.0703 39.5677 20.0703C39.6432 20.0703 39.7564 19.9212 39.8696 19.8093ZM40.926 19.7347C41.0015 19.772 41.0769 19.8093 41.1524 19.8839L40.926 19.7347ZM48.3966 19.0635C48.3966 19.0262 48.4343 18.9889 48.472 18.9516C48.4343 19.0262 48.3966 19.0635 48.3966 19.0635ZM48.472 18.9516L48.5097 18.877C48.5097 18.9143 48.472 18.9516 48.472 18.9516Z" fill="white"/>
<path d="M67.5475 20.8162C67.5475 20.8534 67.5475 20.8534 67.5098 20.8162V20.7789C66.9061 19.772 66.1138 21.1518 65.7742 21.6366C65.1328 22.4943 64.5291 23.3147 63.85 24.0978C63.284 24.769 62.6803 25.4402 62.2276 26.1488C62.2276 26.2234 62.1521 26.4098 62.1521 26.4098C62.0012 26.6336 61.7748 26.82 61.5862 27.0438C61.2466 27.3794 60.907 27.7523 60.5297 28.0879C59.9638 28.61 56.7944 31.556 56.3794 29.6541C56.153 28.7218 56.4549 27.5658 56.6435 26.6708C56.7567 26.1861 56.8699 25.7386 56.9454 25.2538C57.0208 24.8809 56.9076 24.508 57.0963 24.1351C57.2095 23.9113 57.2472 23.9486 57.5113 23.874L58.1527 23.6503C58.5678 23.5011 58.9828 23.3519 59.3601 23.1282C59.926 22.7926 60.4543 22.3824 60.9448 21.9722C62.1144 21.0026 63.3595 19.8466 63.85 18.3922C64.1141 17.5718 64.1518 16.6769 63.6236 15.9683C63.1331 15.3344 62.303 14.9988 61.5484 14.8496C59.511 14.4767 57.9641 15.6327 56.7944 17.1616C55.3607 18.9143 54.342 21.0772 53.8515 23.2774C53.5874 24.3588 53.4365 25.4402 53.2478 26.559C53.0592 27.6777 52.946 28.7219 53.5497 29.766C53.5119 29.3931 53.4365 29.0575 53.4365 28.7218C53.4365 28.5354 53.5119 28.3489 53.5119 28.1998C53.5119 28.1252 53.4365 27.9014 53.4365 27.7896C53.4365 27.454 53.5119 27.1929 53.5874 26.8573C53.6251 26.5217 53.5874 26.1861 53.6251 25.8504C53.6628 25.4775 53.8138 25.1792 53.9647 24.8436C54.0779 24.5453 54.1156 24.2842 54.2288 23.9859C54.342 23.7249 54.4174 23.4265 54.5306 23.1282C54.5684 22.9417 54.757 22.718 54.8702 22.4942C54.757 22.8299 54.5306 23.1282 54.4552 23.4265C54.342 23.874 54.4174 24.3588 54.3797 24.8063C54.3043 25.2911 54.1533 25.7759 54.0779 26.2979C54.0024 26.7827 53.776 27.2302 53.7006 27.715C53.6251 28.1625 53.4742 28.4981 53.5119 28.9456C53.5119 29.2066 53.5497 29.4677 53.5874 29.6914C53.6251 29.9897 53.8138 30.1762 54.0024 30.3999C54.6438 31.1458 55.5116 31.7424 56.4926 32.0035C57.1717 32.1899 57.7754 32.1526 58.4168 31.817C59.3224 31.3322 60.1147 30.5864 60.7938 29.8779C61.4352 29.1693 61.9257 28.3862 62.4917 27.6404C63.0199 26.9692 63.6613 26.3352 64.1895 25.664L66.227 23.0536L67.3966 21.5247C67.5853 21.3009 67.6984 21.1145 67.5475 20.8162ZM58.1905 21.2264C58.2282 21.1518 58.2282 21.1145 58.2282 21.1145C58.7941 19.9212 59.2092 18.6533 60.0015 17.4973L60.6806 16.6023C60.8316 16.4158 61.0957 16.0802 61.3598 16.0056C61.9257 15.8937 62.0767 16.8633 62.0389 17.2362L61.888 18.0193C61.8503 18.2431 61.9257 18.3922 61.888 18.5787C61.8125 18.8024 61.6239 18.9143 61.5107 19.1008L60.8693 19.9212C60.0015 20.928 58.9073 21.7857 57.7 22.4197C57.8886 22.0095 58.0018 21.5993 58.1905 21.2264Z" fill="white"/>
<path d="M87.9801 9.88989C87.8292 8.69658 85.9804 7.80159 84.9617 8.51012C84.1317 9.06949 83.3771 10.5984 82.7734 11.4934L79.0758 17.0125C78.5099 17.8702 77.9439 18.7279 77.3402 19.5483C77.1893 19.8093 75.7556 22.0095 75.7556 22.0095C75.9065 22.0468 76.2461 21.5247 76.3215 21.4501C75.3028 22.8672 73.9823 24.3588 72.7372 25.7759C72.3221 26.2979 69.832 29.5423 68.9264 29.1321C68.6246 28.9829 68.5491 28.4981 68.5114 28.2371C68.2096 26.2606 68.9642 24.2842 69.1905 22.3824L69.0396 22.7553L69.266 21.823C69.266 21.9349 69.2283 22.0468 69.2283 22.1586L69.266 21.9349L69.1528 23.0536C69.681 20.8162 70.4356 18.6533 71.3034 16.565C71.5298 16.0429 73.7182 10.6357 74.1709 10.1509C74.0955 10.1882 73.9823 10.3374 73.8691 10.4865C74.5859 9.18136 75.3406 7.95076 76.2083 6.75744C76.0197 7.05577 75.6801 7.61514 75.6801 7.61514C75.831 7.65243 77.3402 5.60142 77.3402 5.37768C77.3402 5.34038 77.2271 5.41497 77.1139 5.48955C77.4912 5.00477 77.7553 4.74373 77.4534 3.92333C77.0007 2.99105 75.6801 1.83503 74.5859 2.39439C74.3596 2.54356 74.2086 2.73001 74.0577 2.91647C73.2654 3.92333 72.624 5.22851 72.0958 6.34724C71.9071 6.79474 71.7562 6.86932 71.4544 7.20494C70.9639 7.7643 70.6997 8.51012 70.3602 9.14407C69.681 10.4865 69.1528 11.9036 68.5491 13.2834C67.9454 14.5513 67.455 15.8565 67.0399 17.1989C66.8513 17.721 66.7004 18.2431 66.5494 18.7652C66.3985 19.2872 65.8703 20.2568 65.9458 20.8162L66.1721 20.3314C65.9835 20.9653 65.8326 21.6366 65.6816 22.3078C65.6439 22.3078 65.7194 21.823 65.7194 21.823C65.5685 21.823 65.2289 23.4638 65.1534 23.6876C65.0025 24.4707 64.8893 25.2538 64.8139 26.0742C64.7761 26.9319 64.8139 27.715 65.2289 28.4981C66.0212 29.8779 67.455 31.2203 69.0019 31.7051C69.266 31.7797 69.5678 31.8543 69.832 31.817C70.0961 31.7797 70.3602 31.6678 70.5488 31.4814C70.6998 31.4068 71.3034 30.7729 70.8884 31.0712L71.6053 30.3999C71.6053 30.3999 71.2657 30.8101 71.1525 30.8847C71.3412 30.8101 71.7562 30.2508 71.7562 30.2508C73.0013 28.9083 74.2464 27.6031 75.3783 26.1488C76.5479 24.5825 77.6044 22.8672 78.6608 21.1891C78.359 22.0841 78.2835 22.979 78.0194 23.874C77.8685 24.3588 77.7175 24.8436 77.6044 25.3284C77.5289 25.5148 77.4534 26.4098 77.5289 26.3352C77.5289 26.4471 77.5289 26.5217 77.4912 26.5963C77.4912 26.559 77.4912 26.5217 77.4534 26.4844C77.3402 26.5217 77.3402 27.6404 77.3025 27.8269C77.1516 28.3489 76.9252 28.8337 76.8498 29.4304C76.6611 30.9966 76.7743 32.8239 77.7553 34.1663C78.359 34.9867 79.2645 35.4342 80.2832 35.5088C81.3774 35.5461 81.981 34.9494 82.547 34.129C82.9243 33.5697 83.2639 33.0849 83.4902 32.4509C83.6789 31.9289 84.0562 30.922 83.8298 30.3999C83.6789 30.0643 83.6034 30.027 83.3016 30.1762C82.8866 30.3254 82.3961 31.2203 82.132 31.556C81.7547 31.9662 81.0001 33.0103 80.3587 33.0849C79.9814 33.1222 80.0568 33.0476 79.9814 32.6001C79.9436 32.3391 79.9436 30.5864 79.9814 30.5491C79.8682 30.6983 79.8304 30.8474 79.7927 30.9966C79.9436 29.766 80.4718 28.2744 80.8491 26.9692C81.3019 25.4402 81.6415 23.9113 82.0565 22.3824C82.5093 20.8162 83.1129 19.2499 83.7544 17.7583C83.9053 17.4227 85.6031 13.7309 85.8672 13.3952C85.6031 13.5817 84.2449 16.4158 83.7921 17.3481C84.6976 15.2225 85.7541 13.1715 87.0746 11.2324C87.1123 11.2324 86.6973 11.8663 86.7728 11.8663C86.886 11.9409 87.7915 10.5611 87.716 10.5238C87.6783 10.5238 87.6406 10.5238 87.6028 10.5611C87.7915 10.3747 88.0179 10.2628 87.9801 9.88989ZM78.1326 27.6031C77.793 29.1321 77.4157 31.1831 77.7175 32.712C77.378 30.9966 77.4912 29.0575 77.793 27.3421C78.0194 25.925 78.4344 24.6198 78.9249 23.3147C78.5099 24.8063 78.4721 26.1115 78.1326 27.6031ZM71.8316 13.4325C72.8881 10.934 74.3973 8.65929 75.982 6.49641C74.3973 8.73387 73.1145 11.1578 71.9826 13.6563C71.1148 15.6327 70.3224 17.5345 69.7565 19.511C69.8697 18.9889 69.9829 18.4668 70.1715 17.9447C70.6243 16.4158 71.228 14.9242 71.8316 13.4325ZM70.9639 17.0498C71.643 15.2225 72.4353 13.3952 73.3409 11.6053C72.5108 13.3207 71.3789 16.0056 70.9639 17.0498ZM82.9243 19.511C82.8111 19.8466 82.6602 20.1822 82.5093 20.4805L83.1884 18.7652L82.9243 19.511ZM73.8691 10.5238V10.4865V10.5238ZM76.6988 5.60142C76.6988 5.63871 76.6611 5.676 76.6234 5.676C76.6611 5.676 76.6988 5.63871 76.6988 5.60142Z" fill="white"/>
<path d="M107.355 20.7789C107.129 20.8162 105.167 21.4128 105.28 21.7111C105.28 21.7484 105.356 21.7857 105.393 21.7857C104.752 22.0468 103.922 22.084 103.281 22.4942C102.564 22.979 101.885 23.4638 101.13 23.874C101.809 22.718 102.451 21.4874 102.866 20.2568C103.016 19.8093 103.884 17.0498 103.318 16.7514C103.243 16.7141 103.205 17.0498 103.167 17.2362C103.205 15.7446 102.715 13.4698 100.677 13.3207C99.4321 13.2461 98.2625 14.775 97.5833 15.5954C96.0364 17.5345 94.6781 19.6228 93.3198 21.6366C92.9425 22.1959 89.1695 28.2371 89.1695 28.2371C89.1695 28.2371 89.4336 27.8642 89.7732 27.3794C89.4336 27.9387 89.094 28.5354 88.7922 29.1321C88.9431 28.5727 90.3769 24.1351 91.2824 21.5247C91.3579 21.4128 91.3956 21.2636 91.4333 21.1518L91.6597 20.5178V20.5551C91.9993 19.5483 92.3388 18.5414 92.6407 17.4973C92.6407 17.6091 92.4898 18.1685 92.5275 18.1685C92.7539 18.2058 93.0557 16.6396 92.9048 16.6396L92.7916 16.826C92.9048 16.2667 93.0934 16.0056 92.7539 15.3717C92.4898 14.8123 92.037 14.2902 91.3956 14.1411C90.1505 13.8054 89.5468 14.8123 89.6223 15.7819C89.6223 15.931 89.8109 16.0056 89.8109 16.1548C89.8109 16.3412 89.6223 16.6769 89.5845 16.826C89.3204 17.6091 89.1318 18.3549 88.8299 19.1008C88.679 19.511 87.283 23.3892 87.283 23.3892C87.3585 23.3519 87.3962 23.2774 87.4339 23.2028C87.3207 23.5384 87.2076 23.874 87.0566 24.2096C87.0189 24.1723 87.1698 23.9113 87.0944 23.9113C86.7171 23.8367 85.7738 26.9692 85.6983 27.2675C85.5474 27.976 85.3588 28.6473 85.0947 29.3558C84.9815 29.7287 84.8306 30.1016 84.7174 30.5118C84.7174 30.5491 84.5287 31.4441 84.7174 31.1085C84.6796 31.2203 84.6419 31.2949 84.6419 31.3695C84.6419 31.3322 84.6042 31.2949 84.6042 31.2576C84.491 31.2949 84.4155 32.078 84.4155 32.1153C84.2646 32.5255 84.076 32.8239 83.8873 33.1968C83.3968 34.3901 83.1327 35.6953 82.944 36.9632C82.6422 38.9023 81.7367 41.811 82.7177 43.601C83.0572 44.2349 84.1137 45.5401 84.9437 44.757C85.321 44.3841 85.321 43.5264 85.3588 43.0789C85.5852 41.8483 85.7738 40.5804 86.0379 39.3498L86.3775 37.6344C86.4152 37.5598 86.7171 36.18 86.6039 36.2173C86.5284 36.2919 86.4529 36.4038 86.4152 36.5157C86.6039 35.919 86.868 35.3596 87.0944 34.7257C87.3962 33.8307 87.6226 32.973 88.0753 32.1526C88.6036 31.3322 89.0563 30.4372 89.5468 29.6168C89.9241 28.9456 90.2637 28.0879 90.6787 27.5285C90.7919 27.3794 91.0183 27.3048 91.2069 27.1556C91.5842 26.7454 91.8483 26.1861 92.1502 25.7386C92.7161 24.8436 93.2066 23.9486 93.8103 23.1282C94.0744 22.7553 97.0928 18.5787 97.3947 18.3177C97.3192 18.3549 97.2437 18.3922 97.1683 18.4668C97.4701 18.0939 97.8097 17.7583 98.1115 17.46C98.1493 17.4973 97.8852 17.721 97.9229 17.7583C97.9984 17.7956 99.7339 16.4531 100.036 16.4158C100.866 16.2667 100.564 17.8329 100.451 18.2431C100.262 19.1008 99.7717 19.9212 99.3566 20.667C99.1303 21.0772 98.9039 21.4501 98.7152 21.8603C98.6775 21.8976 98.3756 22.6061 98.4888 22.5315L98.2625 22.8672C98.3379 22.7553 98.3757 22.6061 98.3757 22.6061C98.2247 22.6061 98.0361 23.2401 97.9984 23.3519C97.772 23.7249 97.4701 24.0232 97.1683 24.3215C96.376 25.2165 95.6591 26.1488 94.8668 27.0065C94.2631 27.6404 93.4707 28.7591 92.5652 28.9829C91.9238 29.1321 91.4333 28.7964 91.7729 29.8033C91.9993 30.5118 92.8293 32.1526 93.7348 32.1526C94.5649 32.1526 95.5836 30.922 96.0741 30.3999C96.6401 29.766 97.2815 29.1693 97.8852 28.4981C98.0361 28.2744 99.7717 26.2234 100.036 26.1115H99.998C100.375 25.925 100.753 26.0742 101.281 25.7013C101.583 25.4775 101.734 25.2538 102.073 25.03C102.337 24.8809 102.451 24.6944 102.564 24.5825C102.564 24.5825 102.564 24.6198 102.601 24.6198C102.979 24.2469 103.507 24.3588 103.997 24.0232C104.601 23.613 105.356 23.0909 105.884 22.6061C106.563 22.0095 107.506 21.6738 107.808 20.667C107.657 20.7043 107.469 20.7043 107.355 20.7789ZM88.0376 24.5825V24.6198C87.9999 25.1046 87.6603 25.664 87.4717 26.1115C87.2075 26.82 86.9812 27.5285 86.7548 28.2371C86.2643 29.7287 85.6983 31.2203 85.0947 32.6374C84.6042 33.8307 84.1514 35.1359 83.8118 36.4411C84.2269 34.6138 84.906 32.8239 85.4342 31.1085C85.9247 29.5422 86.6793 28.0133 87.283 26.4844C87.3585 26.2979 88.0753 24.8063 87.9999 24.508C88.0376 24.5453 88.0376 24.5825 88.0376 24.5825ZM89.6977 25.7013C89.5845 26.1488 89.4713 26.559 89.3204 26.9319C89.4336 26.559 89.5468 26.1115 89.6977 25.7013ZM94.8668 19.5856L94.1499 20.6297C94.3763 20.2941 94.6026 19.9212 94.8668 19.5856ZM101.017 24.0978C101.054 23.9859 101.243 23.9486 101.356 23.874L101.017 24.0978ZM91.9993 19.7347C91.9615 19.772 91.9238 19.8839 91.8861 20.033L91.9993 19.7347ZM91.7352 20.3687L91.8861 20.033L91.7352 20.3687ZM93.6971 21.3009V21.2636C93.7349 21.2264 93.7348 21.2264 93.7348 21.1891C93.7726 21.1518 93.7349 21.2264 93.6971 21.3009ZM91.7352 20.3687C91.7352 20.4432 91.6974 20.4805 91.6597 20.5178L91.7352 20.3687ZM83.7364 36.7767C83.7364 36.7394 83.7364 36.7394 83.7741 36.7021C83.7741 36.7394 83.7741 36.7394 83.7364 36.7767ZM89.9241 25.2538C89.9241 25.2911 89.8864 25.2911 89.8864 25.2911L89.9241 25.2538Z" fill="white"/>
<path d="M119.991 21.2636C119.878 20.7416 119.576 20.667 119.199 20.8162C118.482 21.1518 117.765 21.8976 117.086 22.3451C115.539 23.3147 113.992 24.0978 112.332 24.9182C112.332 24.8809 112.295 24.8063 112.257 24.6944C112.295 24.8809 112.257 24.9555 112.219 24.9927C111.842 23.3892 111.464 21.7857 111.163 20.1449C111.314 20.8534 111.653 22.0468 111.917 23.0536C111.578 21.4874 111.163 19.5483 111.2 19.5483C111.125 19.5856 111.125 19.6601 111.125 19.7347C111.049 19.2872 110.936 18.7279 111.012 18.2431C111.049 17.6837 111.351 17.1989 111.54 16.6769C111.502 16.9379 111.427 17.2735 111.427 17.2735C111.653 17.3108 111.804 15.931 111.804 15.7819C111.766 15.5581 111.276 14.8496 111.276 15.036C110.257 14.1038 108.257 16.1548 107.956 17.0498C107.729 17.6464 107.729 18.2804 107.767 18.9143C107.805 19.5483 107.993 20.1076 108.182 20.7043C108.295 21.1518 108.144 21.4501 108.182 21.9349C108.257 22.6807 108.522 23.4265 108.672 24.1351C108.823 24.6944 109.314 25.8132 109.201 26.3352C109.125 26.8573 107.993 27.3048 107.503 27.6031C106.861 28.0133 106.22 28.4981 105.579 28.9829C104.447 29.8406 103.239 30.922 102.787 32.3018C102.711 32.4882 102.447 33.3086 102.711 33.4578C102.749 33.4951 102.862 32.8611 102.9 32.7866C102.409 35.2478 104.862 36.4411 107.163 36.4784C109.767 36.553 111.578 35.0613 112.483 32.7493C112.86 31.7424 112.974 30.6983 112.936 29.6541C112.936 28.9456 112.86 28.2744 112.747 27.6031C112.672 27.0065 112.596 27.0438 113.011 26.7081C113.313 26.4844 113.766 26.3352 114.068 26.1861C115.275 25.5521 116.369 24.8063 117.464 24.0232C118.256 23.4638 120.142 22.4943 119.991 21.3009V21.2636ZM104.748 34.0918C103.768 33.7934 104.748 32.2645 105.088 31.7797C105.654 31.0339 106.484 30.4745 107.239 29.9524L108.371 29.2066C108.484 29.1321 109.201 28.5727 108.974 28.6473L109.427 28.3862L109.163 28.61C109.238 28.5727 109.352 28.5354 109.427 28.4608C109.465 29.3558 109.465 30.2508 109.201 31.1458C109.163 31.2949 108.446 32.7866 108.144 33.0849L108.333 32.9357C107.993 33.3459 107.616 33.6816 107.163 33.9426C107.163 33.9053 107.503 33.6816 107.465 33.6443L106.409 34.0545C105.88 34.1663 105.277 34.2782 104.748 34.0918ZM109.502 35.1732C108.522 35.5834 107.578 35.7699 106.56 35.8071C108.408 35.6953 110.333 34.8003 111.427 33.2714C111.012 34.0918 110.483 34.7257 109.502 35.1732ZM112.257 24.5825C112.219 24.3215 112.144 23.9486 112.03 23.5384C112.106 23.9486 112.181 24.3588 112.257 24.5825ZM112.747 28.4608C112.71 28.4235 112.71 28.3489 112.71 28.2744C112.71 28.3489 112.747 28.4235 112.747 28.4608Z" fill="white"/>
</svg>
